0 LEGO Merged Model with Head
0 Name: Person 
0
1 15 0 -96 30.0 0 0 1 0 1 0 -1 0 0 22885.dat
1 15 60 -96 30.0 0 0 -1 0 1 0 1 0 0 22885.dat
1 15 -18.0 -76 30.0 0 1 0 -1 0 0 0 0 1 3022.dat
1 15 78.0 -76 30.0 0 -1 0 1 0 0 0 0 1 3022.dat
1 19 -26.0 -66 30.0 0 1 0 0 0 -1 -1 0 0 11476.dat
1 19 86.0 -66 30.0 0 -1 -0.000001 0 0 -1 1 0 0 11476.dat
0 // --- Body Start ---
1 15 30 0 0 1 0 0 0 1 0 0 0 1 3710.dat
1 71 0 0 30 0 0 -1 0 1 0 1 0 0 3023.dat
1 15 30 0 20 1 0 0 0 1 0 0 0 1 3023.dat
1 72 60 0 40 0 0 -1 0 1 0 1 0 0 3623.dat
1 72 30 0 50 1 0 0 0 1 0 0 0 1 3022.dat
1 72 0 0 60 1 0 0 0 1 0 0 0 1 3024.dat
1 85 0 -8 0 1 0 0 0 1 0 0 0 1 3024.dat
1 85 60 -8 0 1 0 0 0 1 0 0 0 1 3024.dat
1 0 0 -8 30 0 0 -1 0 1 0 1 0 0 3023.dat
1 72 60 -8 30 0 0 -1 0 1 0 1 0 0 3023.dat
1 0 0 -16 30 0 0 -1 0 1 0 1 0 0 3023.dat
1 0 60 -16 30 0 0 -1 0 1 0 1 0 0 3023.dat
1 0 0 -24 30 0 0 -1 0 1 0 1 0 0 3023.dat
1 0 60 -24 30 0 0 -1 0 1 0 1 0 0 3023.dat
1 0 0 -32 30 0 0 -1 0 1 0 1 0 0 3023.dat
1 0 60 -32 30 0 0 -1 0 1 0 1 0 0 3023.dat
1 0 30 -40 30 1 0 0 0 1 0 0 0 1 3020.dat
1 0 30 -48 10 1 0 0 0 1 0 0 0 1 3020.dat
1 0 30 -48 50 1 0 0 0 1 0 0 0 1 3020.dat
1 15 30 -56 10 1 0 0 0 1 0 0 0 1 3020.dat
1 15 30 -56 50 1 0 0 0 1 0 0 0 1 3020.dat
1 15 30 -64 0 1 0 0 0 1 0 0 0 1 3710.dat
1 15 30 -64 40 0 0 -1 0 1 0 1 0 0 3021.dat
1 15 0 -64 60 1 0 0 0 1 0 0 0 1 3024.dat
1 15 60 -64 60 1 0 0 0 1 0 0 0 1 3024.dat
1 15 30 -72 0 1 0 0 0 1 0 0 0 1 3710.dat
1 15 30 -72 40 0 0 -1 0 1 0 1 0 0 3021.dat
1 15 0 -72 60 1 0 0 0 1 0 0 0 1 3024.dat
1 15 60 -72 60 1 0 0 0 1 0 0 0 1 3024.dat
1 15 30 -80 0 1 0 0 0 1 0 0 0 1 3710.dat
1 15 30 -80 40 0 0 -1 0 1 0 1 0 0 3021.dat
1 15 0 -80 60 1 0 0 0 1 0 0 0 1 3024.dat
1 15 60 -80 60 1 0 0 0 1 0 0 0 1 3024.dat
1 15 30 -88 0 1 0 0 0 1 0 0 0 1 3710.dat
1 15 30 -88 40 0 0 -1 0 1 0 1 0 0 3021.dat
1 15 0 -88 60 1 0 0 0 1 0 0 0 1 3024.dat
1 15 60 -88 60 1 0 0 0 1 0 0 0 1 3024.dat
1 15 30 -96 0 1 0 0 0 1 0 0 0 1 3710.dat
1 15 30 -96 40 0 0 -1 0 1 0 1 0 0 3021.dat
1 15 0 -96 60 1 0 0 0 1 0 0 0 1 3024.dat
1 15 60 -96 60 1 0 0 0 1 0 0 0 1 3024.dat
1 19 30 -104 0 1 0 0 0 1 0 0 0 1 3710.dat
1 15 0 -104 40 0 0 -1 0 1 0 1 0 0 3623.dat
1 19 30 -104 20 1 0 0 0 1 0 0 0 1 3023.dat
1 15 60 -104 40 0 0 -1 0 1 0 1 0 0 3623.dat
1 15 30 -104 50 1 0 0 0 1 0 0 0 1 3022.dat
