0 LEGO Merged Model with Head
0 Name:  messi_barcelona
0 Author:  
0 CustomBrick
0 FlexibleBrickControlPointUnitLength -1
0 FlexibleBrickLockedControlPoint 
1 1 0.000000 -96.000000 30.000000 0.000000 0.000000 1.000000 0.000000 1.000000 0.000000 -1.000000 0.000000 0.000000 22885.dat
1 1 60.000000 -96.000000 30.000000 0.000000 0.000000 -1.000000 0.000000 1.000000 0.000000 1.000000 0.000000 0.000000 22885.dat
1 1 -18.000000 -76.000000 30.000000 0.000000 1.000000 0.000000 -1.000000 0.000000 0.000000 0.000000 0.000000 1.000000 3022.dat
1 1 78.000000 -76.000000 30.000000 0.000000 -1.000000 0.000000 1.000000 0.000000 0.000000 0.000000 0.000000 1.000000 3022.dat
1 92 -26.000000 -66.000000 30.000000 0.000000 1.000000 0.000000 0.000000 0.000000 -1.000000 -1.000000 0.000000 0.000000 11476.dat
1 92 86.000000 -66.000000 30.000000 0.000000 -1.000000 0.000000 0.000000 0.000000 -1.000000 1.000000 0.000000 0.000000 11476.dat
1 92 0.000000 -144.000000 30.000000 0.000000 0.000000 1.000000 0.000000 1.000000 0.000000 -1.000000 0.000000 0.000000 22885.dat
1 92 50.000000 -144.000000 0.000000 1.000000 0.000000 0.000000 0.000000 1.000000 0.000000 0.000000 0.000000 1.000000 22885.dat
1 92 10.000000 -144.000000 0.000000 1.000000 0.000000 0.000000 0.000000 1.000000 0.000000 0.000000 0.000000 1.000000 22885.dat
1 92 30.000380 -184.000100 0.000100 1.000000 0.000000 0.000000 0.000000 1.000000 0.000000 0.000000 0.000000 1.000000 22885.dat
1 92 60.000020 -144.000000 30.000000 0.000001 0.000000 -1.000000 0.000000 1.000000 0.000000 1.000000 0.000000 0.000001 22885.dat
1 92 60.000480 -184.000000 10.000180 0.000001 0.000000 -1.000000 0.000000 1.000000 0.000000 1.000000 0.000000 0.000001 22885.dat
1 92 60.000390 -184.000000 49.999920 0.000001 0.000000 -1.000000 0.000000 1.000000 0.000000 1.000000 0.000000 0.000001 22885.dat
1 92 0.000450 -184.000000 49.999920 0.000000 0.000000 1.000000 0.000000 1.000000 0.000000 -1.000000 0.000000 0.000000 22885.dat
1 92 50.000000 -144.000000 59.999980 -1.000000 0.000000 -0.000001 0.000000 1.000000 0.000000 0.000001 0.000000 -1.000000 22885.dat
1 92 10.000000 -144.000000 59.999990 -1.000000 0.000000 -0.000001 0.000000 1.000000 0.000000 0.000001 0.000000 -1.000000 22885.dat
1 92 0.000450 -184.000100 10.000150 0.000000 0.000000 1.000000 0.000000 1.000000 0.000000 -1.000000 0.000000 0.000000 22885.dat
1 92 30.000300 -176.000000 59.999980 1.000000 0.000000 0.000001 0.000000 1.000000 0.000000 -0.000001 0.000000 1.000000 3023.dat
1 92 29.999400 -184.000000 59.999980 0.999999 0.000000 0.000001 0.000000 1.000000 0.000000 -0.000001 0.000000 0.999999 3023.dat
1 92 30.000380 -167.999900 59.999980 1.000000 0.000000 0.000001 0.000000 1.000000 0.000000 -0.000001 0.000000 1.000000 3004.dat
1 92 30.280720 -173.760300 -24.835920 -1.000000 0.000000 -0.000637 -0.000637 0.000000 1.000000 0.000000 1.000000 0.000000 99206.dat
1 92 30.280780 -153.760100 -24.835920 -1.000000 0.000000 -0.000637 -0.000637 0.000000 1.000000 0.000000 1.000000 0.000000 2431.dat
1 92 60.006360 -143.987200 -18.000000 -0.000637 0.000000 1.000000 1.000000 0.000000 0.000637 0.000000 1.000000 0.000000 3710.dat
1 92 0.006370 -144.000000 -18.000000 -0.000637 0.000000 1.000000 1.000000 0.000000 0.000637 0.000000 1.000000 0.000000 3710.dat
1 92 59.999990 -133.987200 -26.000000 -1.000000 0.000000 -0.000637 -0.000637 0.000000 1.000000 0.000000 1.000000 0.000000 3024.dat
1 92 60.281730 -173.741300 -24.835930 -0.999998 0.000000 -0.000637 -0.000637 0.000000 1.000000 0.000000 1.000000 0.000000 3024.dat
1 92 0.000000 -134.000000 -26.000000 -1.000000 0.000000 -0.000637 -0.000637 0.000000 1.000000 0.000000 1.000000 0.000000 3024.dat
1 92 0.281710 -173.779400 -24.835870 -0.999999 0.000000 -0.000637 -0.000637 0.000000 1.000000 0.000000 1.000000 0.000000 3024.dat
1 15 59.999980 -133.987200 -34.000000 -1.000000 0.000000 -0.000637 -0.000637 0.000000 1.000000 0.000000 1.000000 0.000000 98138p2j.dat
1 15 0.000000 -134.000000 -34.000000 -1.000000 0.000000 -0.000637 -0.000637 0.000000 1.000000 0.000000 1.000000 0.000000 98138p2j.dat
1 92 29.993630 -124.006400 -18.000000 -1.000000 0.000000 -0.000637 -0.000637 0.000000 1.000000 0.000000 1.000000 0.000000 3022.dat
1 92 29.987260 -114.006400 -26.000000 -1.000000 0.000000 -0.000637 -0.000637 0.000000 1.000000 0.000000 1.000000 0.000000 2431.dat
1 92 30.000000 -134.006400 -26.000000 -1.000000 0.000000 -0.000637 -0.000637 0.000000 1.000000 0.000000 1.000000 0.000000 3069b.dat
1 6 0.281710 -173.779500 -32.835830 -0.999998 0.000000 -0.000637 -0.000637 0.000000 1.000000 0.000000 1.000000 0.000000 3024.dat
1 6 20.280590 -173.766800 -32.835830 0.999998 0.000000 0.000637 0.000637 0.000000 -1.000000 0.000000 1.000000 0.000000 25269.dat
1 6 40.281730 -173.754000 -32.835820 0.999998 0.000000 0.000637 0.000637 0.000000 -1.000000 0.000000 1.000000 0.000000 25269.dat
1 6 60.281730 -173.741600 -32.835840 -0.000637 0.000000 0.999999 1.000000 0.000000 0.000637 0.000000 1.000000 0.000000 25269.dat
1 6 78.000180 -134.000000 30.000000 0.000000 -1.000003 0.000000 0.000000 0.000000 -1.000003 1.000000 0.000001 0.000000 3023a.dat
1 6 77.999340 -164.000000 10.000160 0.000000 -1.000000 0.000001 1.000000 0.000000 0.000000 0.000000 0.000001 1.000000 3022.dat
1 6 77.999370 -134.000000 59.999930 0.000000 -1.000000 0.000001 1.000000 0.000000 0.000000 0.000000 0.000001 1.000000 3623.dat
1 6 77.999370 -174.000000 39.999980 0.000000 -1.000000 0.000001 1.000000 0.000000 0.000000 0.000000 0.000001 1.000000 2420.dat
1 92 77.999940 -114.000100 40.000000 0.000000 -1.000003 0.000001 1.000003 0.000000 0.000000 0.000000 0.000001 1.000000 3024.dat
1 92 77.999940 -114.000000 0.000180 0.000000 -1.000003 0.000000 0.000000 0.000000 -1.000003 1.000000 0.000000 0.000000 14719.dat
1 6 77.999340 -154.000000 10.000150 0.000001 -1.000000 0.000000 0.000000 0.000000 -1.000000 1.000000 0.000001 0.000000 85984.dat
1 6 85.982590 -134.000000 19.997980 0.000000 -1.000003 0.000001 1.000003 0.000000 0.000000 0.000000 0.000001 1.000000 25269.dat
1 6 69.999300 -174.000100 -10.000000 0.000000 -1.000000 0.000001 1.000000 0.000000 0.000000 0.000000 0.000001 1.000000 11477.dat
1 6 30.000310 -144.000000 77.999940 1.000000 0.000000 0.000000 0.000000 0.000001 1.000000 0.000000 -1.000000 0.000001 3020.dat
1 6 10.000440 -164.002000 69.999960 1.000000 0.000000 0.000000 0.000000 0.000001 0.999996 0.000000 -0.999993 0.000000 15068.dat
1 6 50.000360 -164.000200 70.000010 1.000000 0.000000 0.000000 0.000000 0.000001 1.000000 0.000000 -1.000000 0.000001 15068.dat
1 6 30.000100 -114.000300 77.999950 1.000003 0.000000 0.000000 0.000000 0.000001 1.000003 0.000000 -1.000000 0.000001 2431.dat
1 6 60.000400 -134.000000 85.999950 1.000003 0.000000 0.000000 0.000000 0.000001 1.000003 0.000000 -1.000000 0.000001 3024.dat
1 6 40.000400 -134.000000 85.999950 -1.000003 0.000000 0.000000 0.000000 0.000001 -1.000003 0.000000 -1.000000 -0.000001 25269.dat
1 6 20.000090 -134.000000 85.999950 -1.000003 0.000000 0.000000 0.000000 0.000001 -1.000003 0.000000 -1.000000 -0.000001 25269.dat
1 6 0.000310 -134.000000 85.999940 0.000000 0.000000 -1.000003 1.000003 0.000001 0.000000 0.000001 -1.000000 0.000000 25269.dat
1 6 -18.000000 -134.000000 30.000000 0.000000 1.000003 0.000000 0.000000 0.000000 -1.000003 -1.000000 0.000000 0.000000 3023a.dat
1 6 -17.999510 -163.999900 10.000190 0.000000 1.000000 0.000000 1.000000 0.000000 0.000001 0.000001 0.000000 -1.000000 3022.dat
1 6 -17.999510 -134.000000 59.999980 0.000000 1.000000 0.000000 1.000000 0.000000 0.000001 0.000001 0.000000 -1.000000 3623.dat
1 6 -17.999650 -174.000000 39.999960 0.000000 1.000000 0.000000 0.000000 0.000000 1.000000 1.000000 0.000000 0.000000 2420.dat
1 6 -26.000010 -134.000000 20.000000 0.000000 1.000003 0.000000 0.000000 0.000000 -1.000003 -1.000000 0.000000 0.000000 25269.dat
1 6 -17.999520 -154.000000 10.000150 0.000000 1.000000 0.000000 0.000001 0.000000 -1.000000 -1.000000 0.000000 -0.000001 85984.dat
1 6 -9.999519 -174.000100 -10.000020 0.000000 1.000000 0.000000 -1.000000 0.000000 0.000000 0.000000 0.000000 1.000000 11477.dat
1 92 -18.003400 -113.999700 0.000000 0.000000 1.000000 0.000000 -1.000000 0.000000 0.000000 0.000000 0.000000 1.000000 14719.dat
1 92 30.000510 -184.000000 30.000050 1.000000 0.000000 0.000000 0.000000 1.000000 0.000000 0.000000 0.000000 1.000000 3022.dat
1 6 60.000360 -192.000100 30.000020 0.000001 0.000000 -1.000000 0.000000 1.000000 0.000000 1.000000 0.000000 0.000001 32028.dat
1 6 0.000450 -192.000000 30.000020 0.000000 0.000000 1.000000 0.000000 1.000000 0.000000 -1.000000 0.000000 0.000000 32028.dat
1 6 50.000360 -184.000000 59.999980 0.000000 0.000000 -1.000000 0.000000 1.000000 0.000000 1.000000 0.000000 0.000000 11477.dat
1 6 10.000500 -184.000000 59.999960 0.000000 0.000000 1.000000 0.000000 1.000000 0.000000 -1.000000 0.000000 0.000000 11477.dat
1 92 29.999530 -151.999900 39.999920 1.000000 0.000000 0.000000 0.000000 1.000000 0.000000 0.000000 0.000000 1.000000 3245b.dat
1 92 40.000360 -176.000100 39.999960 1.000000 0.000000 0.000000 0.000000 1.000000 0.000000 0.000000 0.000000 1.000000 3005.dat
1 92 19.999360 -176.000100 39.999890 1.000000 0.000000 0.000000 0.000000 1.000000 0.000000 0.000000 0.000000 1.000000 3005.dat
1 6 30.000390 -192.000000 49.999920 1.000000 0.000000 0.000000 0.000000 1.000000 0.000000 0.000000 0.000000 1.000000 3022.dat
1 6 40.000340 -192.000000 20.000080 -1.000000 0.000000 0.000000 0.000000 1.000000 0.000000 0.000000 0.000000 -1.000000 2420.dat
1 6 30.000500 -200.000000 30.000050 1.000000 0.000000 0.000000 0.000000 1.000000 0.000000 0.000000 0.000000 1.000000 3022.dat
1 6 50.000480 -192.000000 30.000020 0.000001 0.000000 -1.000000 0.000000 1.000000 0.000000 1.000000 0.000000 0.000001 15068.dat
1 6 10.000450 -192.000000 30.000020 0.000000 0.000000 1.000000 0.000000 1.000000 0.000000 -1.000000 0.000000 0.000000 15068.dat
1 6 19.999350 -208.000100 0.000100 0.000000 0.000000 1.000000 0.000000 1.000000 0.000000 -1.000000 0.000000 0.000000 50950.dat
1 6 60.000480 -184.000100 0.000070 0.000001 0.000000 -1.000000 0.000000 1.000000 0.000000 1.000000 0.000000 0.000001 54200.dat
1 6 40.281740 -191.754000 -18.835920 1.000000 0.000000 0.000000 0.000000 1.000000 0.000000 0.000000 0.000000 1.000000 3623.dat
1 6 10.281690 -183.754100 -18.835930 0.000000 0.000000 1.000000 0.000000 1.000000 0.000000 -1.000000 0.000000 0.000000 11477.dat
1 6 30.280660 -191.754000 -18.835860 0.000000 0.000000 -1.000000 0.000000 1.000000 0.000000 1.000000 0.000000 0.000000 11477.dat
1 92 -18.000000 -114.000100 40.000000 0.000000 1.000003 0.000000 1.000003 0.000000 0.000000 0.000000 0.000000 -1.000000 3024.dat
1 71 30.000000 0.000000 0.000000 1.000000 0.000000 0.000000 0.000000 1.000000 0.000000 0.000000 0.000000 1.000000 3710.dat
1 71 0.000000 0.000000 40.000000 0.000000 0.000000 -1.000000 0.000000 1.000000 0.000000 1.000000 0.000000 0.000000 3623.dat
1 71 30.000000 0.000000 20.000000 1.000000 0.000000 0.000000 0.000000 1.000000 0.000000 0.000000 0.000000 1.000000 3023.dat
1 71 60.000000 0.000000 30.000000 0.000000 0.000000 -1.000000 0.000000 1.000000 0.000000 1.000000 0.000000 0.000000 3023.dat
1 71 30.000000 0.000000 50.000000 1.000000 0.000000 0.000000 0.000000 1.000000 0.000000 0.000000 0.000000 1.000000 3022.dat
1 71 60.000000 0.000000 60.000000 1.000000 0.000000 0.000000 0.000000 1.000000 0.000000 0.000000 0.000000 1.000000 3024.dat
1 15 30.000000 -8.000000 0.000000 1.000000 0.000000 0.000000 0.000000 1.000000 0.000000 0.000000 0.000000 1.000000 3710.dat
1 15 0.000000 -8.000000 30.000000 0.000000 0.000000 -1.000000 0.000000 1.000000 0.000000 1.000000 0.000000 0.000000 3023.dat
1 15 30.000000 -8.000000 20.000000 1.000000 0.000000 0.000000 0.000000 1.000000 0.000000 0.000000 0.000000 1.000000 3023.dat
1 15 60.000000 -8.000000 30.000000 0.000000 0.000000 -1.000000 0.000000 1.000000 0.000000 1.000000 0.000000 0.000000 3023.dat
1 15 20.000000 -8.000000 40.000000 1.000000 0.000000 0.000000 0.000000 1.000000 0.000000 0.000000 0.000000 1.000000 3024.dat
1 15 40.000000 -8.000000 40.000000 1.000000 0.000000 0.000000 0.000000 1.000000 0.000000 0.000000 0.000000 1.000000 3024.dat
1 15 0.000000 -16.000000 30.000000 0.000000 0.000000 -1.000000 0.000000 1.000000 0.000000 1.000000 0.000000 0.000000 3023.dat
1 15 60.000000 -16.000000 30.000000 0.000000 0.000000 -1.000000 0.000000 1.000000 0.000000 1.000000 0.000000 0.000000 3023.dat
1 84 0.000000 -24.000000 30.000000 0.000000 0.000000 -1.000000 0.000000 1.000000 0.000000 1.000000 0.000000 0.000000 3023.dat
1 92 60.000000 -24.000000 30.000000 0.000000 0.000000 -1.000000 0.000000 1.000000 0.000000 1.000000 0.000000 0.000000 3023.dat
1 84 0.000000 -32.000000 30.000000 0.000000 0.000000 -1.000000 0.000000 1.000000 0.000000 1.000000 0.000000 0.000000 3023.dat
1 92 60.000000 -32.000000 30.000000 0.000000 0.000000 -1.000000 0.000000 1.000000 0.000000 1.000000 0.000000 0.000000 3023.dat
1 15 0.000000 -40.000000 30.000000 0.000000 0.000000 -1.000000 0.000000 1.000000 0.000000 1.000000 0.000000 0.000000 3023.dat
1 15 40.000000 -40.000000 20.000000 1.000000 0.000000 0.000000 0.000000 1.000000 0.000000 0.000000 0.000000 1.000000 3623.dat
1 15 30.000000 -40.000000 40.000000 1.000000 0.000000 0.000000 0.000000 1.000000 0.000000 0.000000 0.000000 1.000000 3023.dat
1 15 60.000000 -40.000000 40.000000 1.000000 0.000000 0.000000 0.000000 1.000000 0.000000 0.000000 0.000000 1.000000 3024.dat
1 15 30.000000 -48.000000 0.000000 1.000000 0.000000 0.000000 0.000000 1.000000 0.000000 0.000000 0.000000 1.000000 3710.dat
1 15 0.000000 -48.000000 40.000000 0.000000 0.000000 -1.000000 0.000000 1.000000 0.000000 1.000000 0.000000 0.000000 3623.dat
1 15 30.000000 -48.000000 20.000000 1.000000 0.000000 0.000000 0.000000 1.000000 0.000000 0.000000 0.000000 1.000000 3023.dat
1 15 60.000000 -48.000000 40.000000 0.000000 0.000000 -1.000000 0.000000 1.000000 0.000000 1.000000 0.000000 0.000000 3623.dat
1 15 30.000000 -48.000000 50.000000 1.000000 0.000000 0.000000 0.000000 1.000000 0.000000 0.000000 0.000000 1.000000 3022.dat
1 1 0.000000 -56.000000 0.000000 1.000000 0.000000 0.000000 0.000000 1.000000 0.000000 0.000000 0.000000 1.000000 3024.dat
1 4 20.000000 -56.000000 10.000000 0.000000 0.000000 -1.000000 0.000000 1.000000 0.000000 1.000000 0.000000 0.000000 3023.dat
1 1 40.000000 -56.000000 30.000000 0.000000 0.000000 -1.000000 0.000000 1.000000 0.000000 1.000000 0.000000 0.000000 3710.dat
1 4 0.000000 -56.000000 20.000000 1.000000 0.000000 0.000000 0.000000 1.000000 0.000000 0.000000 0.000000 1.000000 3024.dat
1 1 10.000000 -56.000000 50.000000 1.000000 0.000000 0.000000 0.000000 1.000000 0.000000 0.000000 0.000000 1.000000 3022.dat
1 1 0.000000 -64.000000 0.000000 1.000000 0.000000 0.000000 0.000000 1.000000 0.000000 0.000000 0.000000 1.000000 3024.dat
1 4 20.000000 -64.000000 10.000000 0.000000 0.000000 -1.000000 0.000000 1.000000 0.000000 1.000000 0.000000 0.000000 3023.dat
1 1 40.000000 -64.000000 30.000000 0.000000 0.000000 -1.000000 0.000000 1.000000 0.000000 1.000000 0.000000 0.000000 3710.dat
1 4 60.000000 -64.000000 0.000000 1.000000 0.000000 0.000000 0.000000 1.000000 0.000000 0.000000 0.000000 1.000000 3024.dat
1 1 20.000000 -64.000000 50.000000 0.000000 0.000000 -1.000000 0.000000 1.000000 0.000000 1.000000 0.000000 0.000000 3023.dat
1 1 0.000000 -64.000000 60.000000 1.000000 0.000000 0.000000 0.000000 1.000000 0.000000 0.000000 0.000000 1.000000 3024.dat
1 1 60.000000 -64.000000 60.000000 1.000000 0.000000 0.000000 0.000000 1.000000 0.000000 0.000000 0.000000 1.000000 3024.dat
1 1 0.000000 -72.000000 0.000000 1.000000 0.000000 0.000000 0.000000 1.000000 0.000000 0.000000 0.000000 1.000000 3024.dat
1 4 20.000000 -72.000000 10.000000 0.000000 0.000000 -1.000000 0.000000 1.000000 0.000000 1.000000 0.000000 0.000000 3023.dat
1 1 40.000000 -72.000000 30.000000 0.000000 0.000000 -1.000000 0.000000 1.000000 0.000000 1.000000 0.000000 0.000000 3710.dat
1 4 60.000000 -72.000000 0.000000 1.000000 0.000000 0.000000 0.000000 1.000000 0.000000 0.000000 0.000000 1.000000 3024.dat
1 1 20.000000 -72.000000 50.000000 0.000000 0.000000 -1.000000 0.000000 1.000000 0.000000 1.000000 0.000000 0.000000 3023.dat
1 1 0.000000 -72.000000 60.000000 1.000000 0.000000 0.000000 0.000000 1.000000 0.000000 0.000000 0.000000 1.000000 3024.dat
1 1 60.000000 -72.000000 60.000000 1.000000 0.000000 0.000000 0.000000 1.000000 0.000000 0.000000 0.000000 1.000000 3024.dat
1 1 0.000000 -80.000000 0.000000 1.000000 0.000000 0.000000 0.000000 1.000000 0.000000 0.000000 0.000000 1.000000 3024.dat
1 4 20.000000 -80.000000 10.000000 0.000000 0.000000 -1.000000 0.000000 1.000000 0.000000 1.000000 0.000000 0.000000 3023.dat
1 1 40.000000 -80.000000 30.000000 0.000000 0.000000 -1.000000 0.000000 1.000000 0.000000 1.000000 0.000000 0.000000 3710.dat
1 4 60.000000 -80.000000 0.000000 1.000000 0.000000 0.000000 0.000000 1.000000 0.000000 0.000000 0.000000 1.000000 3024.dat
1 1 20.000000 -80.000000 50.000000 0.000000 0.000000 -1.000000 0.000000 1.000000 0.000000 1.000000 0.000000 0.000000 3023.dat
1 1 0.000000 -80.000000 60.000000 1.000000 0.000000 0.000000 0.000000 1.000000 0.000000 0.000000 0.000000 1.000000 3024.dat
1 1 60.000000 -80.000000 60.000000 1.000000 0.000000 0.000000 0.000000 1.000000 0.000000 0.000000 0.000000 1.000000 3024.dat
1 1 0.000000 -88.000000 0.000000 1.000000 0.000000 0.000000 0.000000 1.000000 0.000000 0.000000 0.000000 1.000000 3024.dat
1 4 20.000000 -88.000000 10.000000 0.000000 0.000000 -1.000000 0.000000 1.000000 0.000000 1.000000 0.000000 0.000000 3023.dat
1 1 40.000000 -88.000000 30.000000 0.000000 0.000000 -1.000000 0.000000 1.000000 0.000000 1.000000 0.000000 0.000000 3710.dat
1 4 60.000000 -88.000000 0.000000 1.000000 0.000000 0.000000 0.000000 1.000000 0.000000 0.000000 0.000000 1.000000 3024.dat
1 1 20.000000 -88.000000 50.000000 0.000000 0.000000 -1.000000 0.000000 1.000000 0.000000 1.000000 0.000000 0.000000 3023.dat
1 1 0.000000 -88.000000 60.000000 1.000000 0.000000 0.000000 0.000000 1.000000 0.000000 0.000000 0.000000 1.000000 3024.dat
1 1 60.000000 -88.000000 60.000000 1.000000 0.000000 0.000000 0.000000 1.000000 0.000000 0.000000 0.000000 1.000000 3024.dat
1 1 0.000000 -96.000000 0.000000 1.000000 0.000000 0.000000 0.000000 1.000000 0.000000 0.000000 0.000000 1.000000 3024.dat
1 4 20.000000 -96.000000 10.000000 0.000000 0.000000 -1.000000 0.000000 1.000000 0.000000 1.000000 0.000000 0.000000 3023.dat
1 1 40.000000 -96.000000 30.000000 0.000000 0.000000 -1.000000 0.000000 1.000000 0.000000 1.000000 0.000000 0.000000 3710.dat
1 4 60.000000 -96.000000 0.000000 1.000000 0.000000 0.000000 0.000000 1.000000 0.000000 0.000000 0.000000 1.000000 3024.dat
1 1 20.000000 -96.000000 50.000000 0.000000 0.000000 -1.000000 0.000000 1.000000 0.000000 1.000000 0.000000 0.000000 3023.dat
1 1 0.000000 -96.000000 60.000000 1.000000 0.000000 0.000000 0.000000 1.000000 0.000000 0.000000 0.000000 1.000000 3024.dat
1 1 60.000000 -96.000000 60.000000 1.000000 0.000000 0.000000 0.000000 1.000000 0.000000 0.000000 0.000000 1.000000 3024.dat
1 92 30.000000 -104.000000 30.000000 1.000000 0.000000 0.000000 0.000000 1.000000 0.000000 0.000000 0.000000 1.000000 3031.dat
1 4 60.000000 -56.000000 0.000000 1.000000 0.000000 0.000000 0.000000 1.000000 0.000000 0.000000 0.000000 1.000000 3024.dat
1 1 60.000000 -56.000000 20.000000 1.000000 0.000000 0.000000 0.000000 1.000000 0.000000 0.000000 0.000000 1.000000 3024.dat
1 4 60.000000 -56.000000 40.000000 1.000000 0.000000 0.000000 0.000000 1.000000 0.000000 0.000000 0.000000 1.000000 3024.dat
1 1 60.000000 -56.000000 60.000000 1.000000 0.000000 0.000000 0.000000 1.000000 0.000000 0.000000 0.000000 1.000000 3024.dat
1 1 86.000000 -86.000010 20.000000 0.000000 -1.000000 0.000000 1.000000 0.000000 0.000000 0.000000 0.000000 1.000000 3070b.dat
1 4 85.999980 -86.000000 40.000000 0.000000 -1.000000 0.000000 1.000000 0.000000 0.000000 0.000000 0.000000 1.000000 3070b.dat
1 1 -26.000000 -86.000010 40.000000 0.000000 1.000000 0.000000 1.000000 0.000000 0.000000 0.000000 0.000000 -1.000000 3070b.dat
1 4 -26.000000 -86.000010 20.000000 0.000000 1.000000 0.000000 1.000000 0.000000 0.000000 0.000000 0.000000 -1.000000 3070b.dat
