0 Untitled Model
0 Name:  dalgali
0 Author:  
0 CustomBrick
0 FlexibleBrickControlPointUnitLength -1
0 FlexibleBrickLockedControlPoint 
0 NumOfBricks:  77
1 219 -44.174460 -122.000100 -10.162570 0.000000 0.999996 0.000000 0.999996 0.000000 0.000000 0.000000 0.000000 -1.000000 2420.dat
0 STEP
1 219 -36.174820 -132.000100 -0.162510 0.000000 1.000000 0.000000 0.000000 0.000000 1.000000 1.000000 0.000000 0.000000 3022.dat
1 219 -36.174900 -132.000100 -40.162540 0.000000 1.000000 0.000000 0.000000 0.000000 1.000000 1.000000 0.000000 0.000000 3022.dat
0 STEP
1 219 -28.174940 -122.000000 9.837490 0.000000 1.000000 0.000000 1.000000 0.000000 0.000000 0.000000 0.000000 -1.000000 2420.dat
1 219 -28.174940 -122.000000 -50.162480 0.000000 1.000000 0.000000 0.000000 0.000000 1.000000 1.000000 0.000000 0.000000 2420.dat
0 STEP
1 89 -10.174960 -152.000000 -20.162520 0.000000 0.000000 1.000000 0.000000 1.000000 0.000000 -1.000000 0.000000 0.000000 22885.dat
0 STEP
1 219 -28.174960 -152.000000 -10.162510 0.000000 1.000000 0.000000 0.000000 0.000000 1.000000 1.000000 0.000000 0.000000 11477.dat
1 219 -28.175000 -152.000000 -20.162520 0.000000 1.000000 0.000000 0.000000 0.000000 1.000000 1.000000 0.000000 0.000000 3020.dat
1 219 -44.174890 -142.000000 -30.162520 0.000000 1.000000 0.000000 0.000000 0.000000 1.000000 1.000000 0.000000 0.000000 3024.dat
0 STEP
1 89 -0.174990 -152.000000 -50.162520 1.000000 0.000000 0.000000 0.000000 1.000000 0.000000 0.000000 0.000000 1.000000 22885.dat
1 89 19.825010 -122.000000 -68.162520 1.000000 0.000000 0.000000 0.000000 0.000000 -1.000000 0.000000 1.000000 0.000000 3710.dat
1 89 19.825010 -122.000000 -76.162530 1.000000 0.000000 0.000000 0.000000 0.000000 -1.000000 0.000000 1.000000 0.000000 2431.dat
1 89 39.825020 -152.000000 -50.162530 1.000000 0.000000 0.000000 0.000000 1.000000 0.000000 0.000000 0.000000 1.000000 22885.dat
1 89 19.825010 -152.000000 -68.162520 1.000000 0.000000 0.000000 0.000000 0.000000 -1.000000 0.000000 1.000000 0.000000 3020.dat
1 89 19.825010 -142.000000 -76.162530 -1.000000 0.000000 0.000000 0.000000 0.000000 1.000000 0.000000 1.000000 0.000000 92593.dat
1 0 -10.175000 -142.000000 -84.162530 1.000000 0.000000 0.000000 0.000000 0.000000 -1.000000 0.000000 1.000000 0.000000 98138.dat
1 0 49.825010 -142.000000 -84.162530 1.000000 0.000000 0.000000 0.000000 0.000000 -1.000000 0.000000 1.000000 0.000000 98138.dat
1 89 -10.174990 -192.000000 -40.162520 0.000000 0.000000 1.000000 0.000000 1.000000 0.000000 -1.000000 0.000000 0.000000 22885.dat
0 STEP
1 89 -0.174980 -152.000000 9.837470 -1.000000 0.000000 0.000000 0.000000 1.000000 0.000000 0.000000 0.000000 -1.000000 22885.dat
1 219 19.825020 -152.000000 27.837480 1.000000 0.000000 0.000000 0.000000 0.000000 1.000000 0.000000 -1.000000 0.000000 3020.dat
1 219 29.825020 -152.000000 27.837470 1.000000 0.000000 0.000000 0.000000 0.000000 1.000000 0.000000 -1.000000 0.000000 11477.dat
1 219 9.825020 -142.000000 43.837480 1.000000 0.000000 0.000000 0.000000 0.000000 1.000000 0.000000 -1.000000 0.000000 3024.dat
1 219 19.825020 -132.000000 35.837490 1.000000 0.000000 0.000000 0.000000 0.000000 1.000000 0.000000 -1.000000 0.000000 3020.dat
0 STEP
1 89 39.825010 -152.000000 9.837470 -1.000000 0.000000 0.000000 0.000000 1.000000 0.000000 0.000000 0.000000 -1.000000 22885.dat
1 89 49.825020 -152.000000 -20.162530 0.000000 0.000000 -1.000000 0.000000 1.000000 0.000000 1.000000 0.000000 0.000000 22885.dat
1 219 67.825360 -152.666700 -19.495830 0.000000 -1.000004 0.000000 0.000000 0.000000 1.000004 -1.000000 0.000000 0.000000 3020.dat
1 219 67.825350 -122.666500 10.504130 0.000000 -1.000004 0.000000 0.000000 0.000000 1.000004 -1.000000 0.000000 0.000000 2420.dat
1 219 75.825420 -132.666700 0.504140 0.000000 -1.000004 0.000000 0.000000 0.000000 1.000004 -1.000000 0.000000 0.000000 3022.dat
0 STEP
1 219 29.825020 -122.000000 43.837480 0.000000 0.000000 -1.000000 1.000000 0.000000 0.000000 0.000000 -1.000000 0.000000 2420.dat
1 219 19.825010 -112.000000 27.837470 1.000000 0.000000 0.000000 0.000000 0.000000 1.000000 0.000000 -1.000000 0.000000 3020.dat
1 219 29.825010 -102.000000 35.837480 1.000000 0.000000 0.000000 0.000000 0.000000 1.000000 0.000000 -1.000000 0.000000 3024.dat
1 219 9.825009 -102.000000 35.837480 1.000000 0.000000 0.000000 0.000000 0.000000 1.000000 0.000000 -1.000000 0.000000 3024.dat
1 219 83.825470 -142.666700 -9.495830 0.000000 -1.000004 0.000000 0.000000 0.000000 1.000004 -1.000000 0.000000 0.000000 3024.dat
0 STEP
1 219 67.825360 -152.666700 -29.495830 0.000000 -1.000004 0.000000 0.000000 0.000000 1.000004 -1.000000 0.000000 0.000000 11477.dat
1 89 -10.174960 -192.000000 -0.162510 0.000000 0.000000 1.000000 0.000000 1.000000 0.000000 -1.000000 0.000000 0.000000 22885.dat
1 219 83.825030 -122.666600 -29.495770 0.000000 -1.000000 0.000000 1.000000 0.000000 0.000000 0.000000 0.000000 1.000000 2420.dat
1 219 75.825400 -132.666700 -39.495830 0.000000 -1.000004 0.000000 0.000000 0.000000 1.000004 -1.000000 0.000000 0.000000 3022.dat
1 219 67.825350 -122.666500 -49.495860 0.000000 -1.000004 0.000000 1.000004 0.000000 0.000000 0.000000 0.000000 1.000000 2420.dat
0 STEP
1 219 -20.174960 -172.000000 9.837490 0.000000 1.000000 0.000000 0.000000 0.000000 1.000000 1.000000 0.000000 0.000000 11477.dat
1 219 -10.174980 -172.000000 19.837480 1.000000 0.000000 0.000000 0.000000 0.000000 1.000000 0.000000 -1.000000 0.000000 11477.dat
1 219 -28.174880 -172.000200 -30.162640 0.000000 1.000000 0.000000 0.000000 0.000000 1.000000 1.000000 0.000000 0.000000 11477.dat
1 219 9.825020 -162.000000 35.837480 1.000000 0.000000 0.000000 0.000000 0.000000 1.000000 0.000000 -1.000000 0.000000 3024.dat
1 219 -36.174900 -162.000000 -30.162520 0.000000 1.000000 0.000000 0.000000 0.000000 1.000000 1.000000 0.000000 0.000000 3024.dat
0 STEP
1 89 19.825020 -192.000000 9.837470 -1.000000 0.000000 0.000000 0.000000 1.000000 0.000000 0.000000 0.000000 -1.000000 22885.dat
1 89 49.825020 -192.000000 -0.162520 0.000000 0.000000 -1.000000 0.000000 1.000000 0.000000 1.000000 0.000000 0.000000 22885.dat
1 219 49.825020 -172.000000 19.837480 1.000000 0.000000 0.000000 0.000000 0.000000 1.000000 0.000000 -1.000000 0.000000 11477.dat
1 219 59.825340 -172.666900 10.504130 0.000000 -1.000004 0.000000 0.000000 0.000000 1.000004 -1.000000 0.000000 0.000000 11477.dat
1 89 49.825020 -192.000000 -40.162530 0.000000 0.000000 -1.000000 0.000000 1.000000 0.000000 1.000000 0.000000 0.000000 22885.dat
0 STEP
1 89 19.825010 -192.000000 -50.162520 1.000000 0.000000 0.000000 0.000000 1.000000 0.000000 0.000000 0.000000 1.000000 22885.dat
1 219 75.825440 -162.666800 -9.495830 0.000000 -1.000004 0.000000 0.000000 0.000000 1.000004 -1.000000 0.000000 0.000000 3024.dat
1 219 -20.174960 -172.000000 -50.162540 0.000000 1.000000 0.000000 0.000000 0.000000 1.000000 1.000000 0.000000 0.000000 11477.dat
1 219 59.825360 -172.666900 -49.495800 0.000000 -1.000004 0.000000 0.000000 0.000000 1.000004 -1.000000 0.000000 0.000000 11477.dat
1 89 19.825010 -172.000000 -76.162520 -1.000000 0.000000 0.000000 0.000000 0.000000 1.000000 0.000000 1.000000 0.000000 87079.dat
0 STEP
1 219 67.825360 -172.666900 -9.495830 0.000000 -1.000004 0.000000 0.000000 0.000000 1.000004 -1.000000 0.000000 0.000000 11477.dat
1 219 9.825020 -172.000000 27.837480 1.000000 0.000000 0.000000 0.000000 0.000000 1.000000 0.000000 -1.000000 0.000000 11477.dat
0 STEP
1 219 -28.175000 -182.000000 -20.162520 0.000000 1.000000 0.000000 0.000000 0.000000 1.000000 1.000000 0.000000 0.000000 3023b.dat
1 89 19.825010 -182.000000 -68.162520 1.000000 0.000000 0.000000 0.000000 0.000000 -1.000000 0.000000 1.000000 0.000000 3710.dat
1 219 67.825020 -182.000000 -20.162540 -0.000001 -1.000000 0.000000 0.000000 0.000000 1.000000 -1.000000 0.000001 0.000000 3023b.dat
1 219 19.825020 -182.000000 27.837460 1.000000 0.000000 0.000000 0.000000 0.000000 1.000000 0.000000 -1.000000 0.000000 3023b.dat
0 STEP
1 219 -10.174990 -200.000000 -20.162520 0.000000 0.000000 1.000000 0.000001 1.000000 0.000000 -1.000000 0.000001 0.000000 3023b.dat
1 219 -10.174980 -192.000000 -40.162520 1.000000 0.000000 0.000001 0.000000 1.000000 0.000000 -0.000001 0.000000 1.000000 11477.dat
1 219 -10.174980 -192.000000 -0.162510 -1.000000 0.000000 0.000000 0.000000 1.000000 0.000000 0.000000 0.000000 -1.000000 11477.dat
1 219 19.825010 -200.000000 -50.162520 -1.000000 0.000001 0.000000 0.000001 1.000000 0.000000 0.000000 0.000000 -1.000000 3023b.dat
1 219 39.825000 -192.000000 -50.162540 0.000000 0.000000 -1.000000 0.000000 1.000000 0.000000 1.000000 0.000000 0.000000 11477.dat
1 219 49.825020 -200.000000 -20.162530 0.000000 0.000000 -1.000000 0.000001 1.000000 0.000000 1.000000 -0.000001 0.000000 3023b.dat
1 219 49.825040 -192.000000 -0.162520 -1.000000 0.000000 0.000000 0.000000 1.000000 0.000000 0.000000 0.000000 -1.000000 11477.dat
1 219 19.825020 -200.000000 9.837470 1.000000 -0.000001 0.000000 0.000001 1.000000 0.000000 0.000000 0.000000 1.000000 3023b.dat
0 STEP
1 89 19.825020 -136.000000 -20.162530 1.000000 0.000000 0.000000 0.000000 1.000000 0.000000 0.000000 0.000000 1.000000 3003.dat
1 89 19.825020 -160.000000 -20.162530 1.000000 0.000000 0.000000 0.000000 1.000000 0.000000 0.000000 0.000000 1.000000 3003.dat
1 89 19.825020 -168.000000 -20.162530 1.000000 0.000000 0.000000 0.000000 1.000000 0.000000 0.000000 0.000000 1.000000 4032a.dat
1 72 19.825020 -192.000000 -20.162530 1.000000 0.000000 0.000000 0.000000 1.000000 0.000000 0.000000 0.000000 1.000000 3003.dat
1 219 19.825020 -200.000000 -20.162530 1.000000 0.000000 0.000000 0.000000 1.000000 0.000000 0.000000 0.000000 1.000000 4032a.dat
1 219 9.825009 -200.000000 -40.162520 1.000000 0.000000 0.000001 0.000000 1.000000 0.000000 -0.000001 0.000000 1.000000 11477.dat
0 STEP
1 219 39.825020 -200.000000 -30.162540 0.000000 0.000000 -1.000000 0.000000 1.000000 0.000000 1.000000 0.000000 0.000000 11477.dat
1 219 9.825020 -200.000000 -0.162520 -1.000000 0.000000 0.000000 0.000000 1.000000 0.000000 0.000000 0.000000 -1.000000 11477.dat
1 219 29.825020 -200.000000 -0.162520 -1.000000 0.000000 0.000000 0.000000 1.000000 0.000000 0.000000 0.000000 -1.000000 11477.dat
1 219 19.825020 -208.000000 -20.162530 1.000000 0.000000 0.000000 0.000000 1.000000 0.000000 0.000000 0.000000 1.000000 3022.dat
0 STEP
