0 Untitled Model
0 Name:  longwavy
0 Author:  
0 CustomBrick
0 FlexibleBrickControlPointUnitLength -1
0 FlexibleBrickLockedControlPoint 
1 89 -0.000010 -128.000000 -20.000010 1.000000 0.000000 0.000000 0.000000 1.000000 0.000000 0.000000 0.000000 1.000000 3003.dat
1 89 -0.000010 -104.000000 -20.000010 1.000000 0.000000 0.000000 0.000000 1.000000 0.000000 0.000000 0.000000 1.000000 4032a.dat
1 89 29.999990 -128.000000 -20.000000 0.000000 0.000000 -1.000000 0.000000 1.000000 0.000000 1.000000 0.000000 0.000000 22885.dat
1 89 30.000000 -88.000000 -40.000000 0.000000 0.000000 -1.000000 0.000000 1.000000 0.000000 1.000000 0.000000 0.000000 22885.dat
1 89 -0.000010 -72.000000 -20.000010 1.000000 0.000000 0.000000 0.000000 1.000000 0.000000 0.000000 0.000000 1.000000 3003.dat
1 89 -0.000010 -96.000000 -20.000010 1.000000 0.000000 0.000000 0.000000 1.000000 0.000000 0.000000 0.000000 1.000000 3003.dat
1 89 19.999990 -128.000000 10.000000 -1.000000 0.000000 0.000000 0.000000 1.000000 0.000000 0.000000 0.000000 -1.000000 22885.dat
1 89 -0.000010 -88.000000 10.000000 -1.000000 0.000000 0.000000 0.000000 1.000000 0.000000 0.000000 0.000000 -1.000000 22885.dat
1 89 -30.000020 -88.000000 0.000000 0.000000 0.000000 1.000000 0.000000 1.000000 0.000000 -1.000000 0.000000 0.000000 22885.dat
1 89 -29.999990 -128.000000 -20.000000 0.000000 0.000000 1.000000 0.000000 1.000000 0.000000 -1.000000 0.000000 0.000000 22885.dat
1 0 -30.000010 -78.000000 -84.000010 1.000000 0.000000 0.000000 0.000000 0.000000 -1.000000 0.000000 1.000000 0.000000 98138.dat
1 0 30.000010 -78.000000 -84.000000 1.000000 0.000000 0.000000 0.000000 0.000000 -1.000000 0.000000 1.000000 0.000000 98138.dat
1 89 -0.000040 -57.999980 -76.000010 1.000000 0.000000 0.000000 0.000000 0.000000 -1.000000 0.000000 1.000000 0.000000 2431.dat
1 89 -0.000040 -78.000000 -76.000010 -1.000000 0.000000 0.000000 0.000000 0.000000 1.000000 0.000000 1.000000 0.000000 92593.dat
1 89 -0.000040 -108.000000 -76.000010 -1.000000 0.000000 0.000000 0.000000 0.000000 1.000000 0.000000 1.000000 0.000000 87079.dat
1 89 -0.000040 -108.000000 -68.000010 -1.000000 0.000000 0.000000 0.000000 0.000000 1.000000 0.000000 1.000000 0.000000 3020.dat
1 89 -0.000040 -68.000000 -68.000000 -1.000000 0.000000 0.000000 0.000000 0.000000 1.000000 0.000000 1.000000 0.000000 3020.dat
1 219 -0.000010 -136.000000 -20.000010 1.000000 0.000000 0.000000 0.000000 1.000000 0.000000 0.000000 0.000000 1.000000 3031.dat
1 219 -47.999980 -118.000000 -20.000000 0.000000 1.000000 0.000000 0.000000 0.000000 1.000000 1.000000 0.000000 0.000000 3710.dat
1 219 -47.999970 -118.000000 -50.000000 0.000000 1.000000 0.000000 0.000000 0.000000 1.000000 1.000000 0.000000 0.000000 54200.dat
1 219 -47.999980 -118.000000 -9.999990 0.000000 1.000000 0.000000 0.000000 0.000000 1.000000 1.000000 0.000000 0.000000 54200.dat
1 219 -47.999980 -118.000000 10.000000 0.000000 1.000000 0.000000 0.000000 0.000000 1.000000 1.000000 0.000000 0.000000 54200.dat
1 219 -47.999980 -118.000000 -30.000000 0.000000 1.000000 0.000000 0.000000 0.000000 1.000000 1.000000 0.000000 0.000000 49307.dat
1 219 -47.999980 -78.000010 -20.000000 0.000000 1.000000 0.000000 -1.000000 0.000000 0.000000 0.000000 0.000000 1.000000 3021.dat
1 219 -55.999980 -78.000010 -20.000000 0.000000 1.000000 0.000000 -1.000000 0.000000 0.000000 0.000000 0.000000 1.000000 3021.dat
1 219 -63.999980 -78.000010 -9.999990 0.000000 1.000000 0.000000 -1.000000 0.000000 0.000000 0.000000 0.000000 1.000000 3024.dat
1 219 -55.999980 -98.000000 -9.999990 0.000000 1.000000 0.000000 0.000000 0.000000 1.000000 1.000000 0.000000 0.000000 49307.dat
1 219 -63.999980 -78.000010 -9.999990 0.000000 1.000000 0.000000 0.000000 0.000000 1.000000 1.000000 0.000000 -0.000001 49307.dat
1 219 -55.999980 -98.000020 -30.000000 0.000000 1.000000 0.000000 0.000000 0.000000 1.000000 1.000000 0.000000 0.000000 54200.dat
1 219 -55.999980 -78.000010 -30.000000 0.000000 1.000000 0.000000 0.000000 0.000000 -1.000000 -1.000000 0.000000 0.000000 54200.dat
1 219 -48.000000 -68.000010 -50.000000 0.000000 1.000000 0.000000 -1.000000 0.000000 0.000000 0.000000 0.000000 1.000000 3710.dat
1 89 29.999990 -88.000000 0.000000 0.000000 0.000000 -1.000000 0.000000 1.000000 0.000000 1.000000 0.000000 0.000000 22885.dat
1 89 -20.000010 -128.000000 10.000000 -1.000000 0.000000 0.000000 0.000000 1.000000 0.000000 0.000000 0.000000 -1.000000 22885.dat
1 89 -29.999980 -88.000000 -40.000000 0.000000 0.000000 1.000000 0.000000 1.000000 0.000000 -1.000000 0.000000 0.000000 22885.dat
1 89 -0.000040 -87.999980 -50.000000 1.000000 0.000000 0.000000 0.000000 1.000000 0.000000 0.000000 0.000000 1.000000 22885.dat
1 89 -20.000040 -128.000000 -50.000010 1.000000 0.000000 0.000000 0.000000 1.000000 0.000000 0.000000 0.000000 1.000000 22885.dat
1 89 19.999960 -127.875000 -50.000000 1.000000 0.000000 0.000000 0.000000 1.000000 0.000000 0.000000 0.000000 1.000000 22885.dat
1 219 -48.000000 -98.000000 -50.000000 0.000000 1.000000 0.000000 0.000001 0.000000 -1.000000 -1.000000 0.000000 -0.000001 54200.dat
1 219 -56.000000 -68.000020 -50.000000 0.000000 1.000000 0.000000 -1.000000 0.000000 0.000000 0.000000 0.000000 1.000000 3023b.dat
1 219 -56.000000 -78.000020 -50.000000 0.000000 1.000000 0.000000 0.000000 0.000000 1.000000 1.000000 0.000000 0.000000 54200.dat
1 219 -56.000040 -58.000020 -50.000000 0.000000 1.000000 0.000000 0.000001 0.000000 -1.000000 -1.000000 0.000000 -0.000001 54200.dat
1 219 -47.999820 -98.000000 9.999990 0.000000 1.000000 0.000000 0.000000 0.000000 -1.000000 -1.000000 0.000000 0.000000 54200.dat
1 219 -47.999820 -68.000000 10.000010 0.000000 1.000000 0.000000 -1.000000 0.000000 0.000000 0.000000 0.000000 1.000000 3710.dat
1 219 -55.999830 -67.999980 10.000010 0.000000 1.000000 0.000000 -1.000000 0.000000 0.000000 0.000000 0.000000 1.000000 3023b.dat
1 219 -55.999950 -78.000200 10.000020 0.000000 1.000002 0.000000 0.000000 0.000000 1.000002 1.000000 0.000000 0.000000 54200.dat
1 219 -56.000000 -58.000080 10.000020 0.000000 1.000002 0.000000 0.000001 0.000000 -1.000002 -1.000000 0.000000 -0.000001 54200.dat
1 219 -63.999980 -48.000010 -20.000000 0.000000 1.000000 0.000000 -1.000000 0.000000 0.000000 0.000000 0.000000 1.000000 4032a.dat
1 219 -63.999980 -58.000010 -9.999990 0.000000 1.000000 0.000000 0.000000 0.000000 1.000000 1.000000 0.000000 -0.000001 49307.dat
1 219 55.999980 -58.000130 10.000000 0.000000 -1.000000 0.000000 -0.000001 0.000000 -1.000000 1.000000 0.000000 -0.000001 54200.dat
1 219 55.999980 -78.000220 10.000020 0.000000 -1.000000 0.000000 0.000000 0.000000 1.000000 -1.000000 0.000000 0.000000 54200.dat
1 219 55.999980 -68.000020 10.000020 0.000000 -1.000000 0.000000 1.000000 0.000000 0.000000 0.000000 0.000000 1.000000 3023b.dat
1 219 47.999980 -68.000030 10.000020 0.000000 -1.000000 0.000000 1.000000 0.000000 0.000000 0.000000 0.000000 1.000000 3710.dat
1 219 63.999980 -58.000030 -10.000000 0.000000 -1.000000 0.000000 -0.000001 0.000000 1.000000 -1.000000 0.000000 -0.000001 49307.dat
1 219 63.999980 -48.000040 -20.000020 0.000000 -1.000000 0.000000 1.000000 0.000000 0.000000 0.000000 0.000000 1.000000 4032a.dat
1 219 47.999980 -98.000050 10.000020 0.000000 -1.000000 0.000000 0.000000 0.000000 -1.000000 1.000000 0.000000 0.000000 54200.dat
1 219 55.999970 -58.000040 -50.000000 0.000000 -1.000000 0.000000 -0.000001 0.000000 -1.000000 1.000000 0.000000 -0.000001 54200.dat
1 219 55.999970 -78.000040 -49.999980 0.000000 -1.000000 0.000000 0.000000 0.000000 1.000000 -1.000000 0.000000 0.000000 54200.dat
1 219 55.999970 -68.000040 -50.000010 0.000000 -1.000000 0.000000 1.000000 0.000000 0.000000 0.000000 0.000000 1.000000 3023b.dat
1 219 47.999980 -98.000030 -49.999980 0.000000 -1.000000 0.000000 -0.000001 0.000000 -1.000000 1.000000 0.000000 -0.000001 54200.dat
1 219 47.999980 -68.000020 -50.000000 0.000000 -1.000000 0.000000 1.000000 0.000000 0.000000 0.000000 0.000000 1.000000 3710.dat
1 219 55.999960 -78.000020 -29.999970 0.000000 -1.000000 0.000000 0.000000 0.000000 -1.000000 1.000000 0.000000 0.000000 54200.dat
1 219 55.999980 -98.000050 -29.999970 0.000000 -1.000000 0.000000 0.000000 0.000000 1.000000 -1.000000 0.000000 0.000000 54200.dat
1 219 63.999980 -78.000030 -10.000000 0.000000 -1.000000 0.000000 -0.000001 0.000000 1.000000 -1.000000 0.000000 -0.000001 49307.dat
1 219 55.999980 -98.000030 -10.000000 0.000000 -1.000000 0.000000 -0.000001 0.000000 1.000000 -1.000000 0.000000 -0.000001 49307.dat
1 219 63.999980 -78.000030 -10.000000 0.000000 -1.000000 0.000000 1.000000 0.000000 0.000000 0.000000 0.000000 1.000000 3024.dat
1 219 55.999980 -78.000030 -20.000000 0.000000 -1.000000 0.000000 1.000000 0.000000 0.000000 0.000000 0.000000 1.000000 3021.dat
1 219 47.999980 -78.000030 -20.000000 0.000000 -1.000000 0.000000 1.000000 0.000000 0.000000 0.000000 0.000000 1.000000 3021.dat
1 219 47.999960 -118.000000 -30.000250 0.000000 -1.000000 0.000000 0.000000 0.000000 1.000000 -1.000000 0.000000 0.000000 49307.dat
1 219 47.999980 -118.000000 10.000010 0.000000 -1.000000 0.000000 0.000000 0.000000 1.000000 -1.000000 0.000000 0.000000 54200.dat
1 219 47.999980 -118.000000 -10.000000 0.000000 -1.000000 0.000000 0.000000 0.000000 1.000000 -1.000000 0.000000 0.000000 54200.dat
1 219 48.000020 -117.999900 -50.000030 0.000000 -1.000000 0.000000 0.000000 0.000000 1.000000 -1.000000 0.000000 0.000000 54200.dat
1 219 47.999980 -118.000000 -20.000000 0.000000 -1.000000 0.000000 0.000000 0.000000 1.000000 -1.000000 0.000000 0.000000 3710.dat
1 219 -0.000020 -98.000000 28.000000 0.000000 0.000000 -1.000000 1.000000 0.000000 0.000000 0.000000 -1.000000 0.000000 3021.dat
1 219 -0.000020 -98.000000 36.000020 1.000000 0.000000 0.000000 0.000000 0.000000 1.000000 0.000000 -1.000000 0.000000 3023b.dat
1 219 9.999980 -98.000000 36.000020 1.000000 0.000000 0.000000 0.000000 0.000000 1.000000 0.000000 -1.000000 0.000000 49307.dat
1 219 -10.000030 -98.000000 36.000000 1.000000 0.000000 0.000000 0.000000 0.000000 1.000000 0.000000 -1.000000 0.000000 49307.dat
1 219 9.999980 -118.000000 28.000000 1.000000 0.000000 0.000000 0.000000 0.000000 1.000000 0.000000 -1.000000 0.000000 49307.dat
1 219 -10.000020 -118.000000 27.999980 1.000000 0.000000 0.000000 0.000000 0.000000 1.000000 0.000000 -1.000000 0.000000 49307.dat
1 219 29.999990 -98.000000 28.000000 0.000000 0.000000 -1.000000 1.000000 0.000000 0.000000 0.000000 -1.000000 0.000000 3623.dat
1 219 -30.000010 -98.000000 27.999980 0.000000 0.000000 -1.000000 1.000000 0.000000 0.000000 0.000000 -1.000000 0.000000 3623.dat
1 219 29.999990 -98.000000 28.000000 -1.000000 0.000000 0.000000 0.000000 0.000000 -1.000000 0.000000 -1.000000 0.000000 54200.dat
1 219 29.999990 -118.000000 28.000000 1.000000 0.000000 0.000000 0.000000 0.000000 1.000000 0.000000 -1.000000 0.000000 54200.dat
1 219 -30.000020 -97.999880 27.999920 -1.000000 0.000000 0.000000 0.000000 0.000000 -1.000000 0.000000 -1.000000 0.000000 54200.dat
1 219 -30.000010 -118.000000 28.000000 1.000000 0.000000 0.000000 0.000000 0.000000 1.000002 0.000000 -1.000002 0.000000 54200.dat
1 219 29.999990 -78.000000 36.000000 1.000000 0.000000 0.000000 0.000000 0.000000 1.000000 0.000000 -1.000000 0.000000 3024.dat
1 219 -30.000010 -78.000000 35.999980 1.000000 0.000000 0.000000 0.000000 0.000000 1.000000 0.000000 -1.000000 0.000000 3024.dat
1 219 29.999990 -78.000000 36.000000 1.000000 0.000000 0.000000 0.000000 0.000000 1.000000 0.000000 -1.000000 0.000000 49307.dat
1 219 -30.000010 -78.000000 36.000000 1.000000 0.000000 0.000000 0.000000 0.000000 1.000000 0.000000 -1.000000 0.000000 49307.dat
1 219 -0.000020 -58.000000 36.000020 0.000000 0.000000 1.000000 -1.000000 0.000000 0.000000 0.000000 -1.000000 0.000000 3021.dat
1 219 -0.000060 -68.000240 44.000060 0.000000 0.000000 1.000000 -1.000000 0.000000 0.000000 0.000000 -1.000000 0.000000 4032a.dat
1 219 0.000010 -28.000050 27.999980 0.000000 0.000000 1.000000 -1.000000 0.000000 0.000000 0.000000 -1.000000 0.000000 4032a.dat
1 219 -30.000030 -58.000010 28.000000 1.000000 0.000000 0.000000 0.000000 0.000000 1.000000 0.000000 -1.000000 0.000000 2420.dat
1 219 29.999960 -58.000010 28.000000 0.000000 0.000000 -1.000000 1.000000 0.000000 0.000000 0.000000 -1.000000 0.000000 2420.dat
1 219 29.999950 -58.000010 28.000000 1.000000 0.000000 0.000000 0.000000 0.000000 1.000000 0.000000 -1.000000 0.000000 49307.dat
1 219 -30.000030 -58.000010 28.000000 1.000000 0.000000 0.000000 0.000000 0.000000 1.000000 0.000000 -1.000000 0.000000 49307.dat
1 219 9.999969 -38.000050 36.000000 1.000000 0.000000 0.000000 0.000000 0.000000 1.000000 0.000000 -1.000000 0.000000 49307.dat
1 219 -10.000000 -38.000050 35.999980 1.000000 0.000000 0.000000 0.000000 0.000000 1.000000 0.000000 -1.000000 0.000000 49307.dat
1 219 9.999990 -18.000050 28.000000 -1.000000 0.000000 0.000000 0.000000 0.000000 -1.000000 0.000000 -1.000000 0.000000 54200.dat
1 219 -10.000000 -18.000040 27.999980 -1.000000 0.000000 0.000000 0.000000 0.000000 -1.000000 0.000000 -1.000000 0.000000 54200.dat
1 219 -10.000070 -58.000260 44.000040 -1.000000 0.000000 0.000000 0.000000 0.000000 -1.000000 0.000000 -1.000000 0.000000 54200.dat
1 219 9.999940 -58.000240 44.000060 -1.000000 0.000000 0.000000 0.000000 0.000000 -1.000000 0.000000 -1.000000 0.000000 54200.dat
1 219 9.999929 -78.000260 44.000060 1.000000 0.000000 0.000000 0.000000 0.000001 1.000000 0.000000 -1.000000 0.000001 54200.dat
1 219 -10.000070 -78.000240 44.000040 1.000000 0.000000 0.000000 0.000000 0.000001 1.000000 0.000000 -1.000000 0.000001 54200.dat
1 219 -0.000010 -144.000000 -20.000010 1.000000 0.000000 0.000000 0.000000 1.000000 0.000000 0.000000 0.000000 1.000000 3022.dat
1 219 29.999990 -136.000000 -10.000000 0.000000 0.000000 -1.000000 0.000001 1.000000 0.000000 1.000000 -0.000001 0.000000 54200.dat
1 219 30.000000 -136.000000 -30.000010 0.000000 0.000000 -1.000000 0.000001 1.000000 0.000000 1.000000 -0.000001 0.000000 54200.dat
1 219 9.999990 -136.000000 -50.000020 1.000000 -0.000001 0.000000 0.000001 1.000000 0.000000 0.000000 0.000000 1.000000 54200.dat
1 219 -10.000010 -136.000000 -50.000010 1.000000 -0.000001 0.000000 0.000001 1.000000 0.000000 0.000000 0.000000 1.000000 54200.dat
1 219 -30.000020 -136.000000 -10.000000 0.000000 0.000000 1.000000 0.000001 1.000000 0.000000 -1.000000 0.000001 0.000000 54200.dat
1 219 -30.000010 -136.000000 -30.000020 0.000000 0.000000 1.000000 0.000001 1.000000 0.000000 -1.000000 0.000001 0.000000 54200.dat
1 219 9.999990 -136.000000 10.000000 -1.000000 0.000001 0.000000 0.000001 1.000000 0.000000 0.000000 0.000000 -1.000000 54200.dat
1 219 -10.000020 -136.000000 10.000000 -1.000000 0.000001 0.000000 0.000001 1.000000 0.000000 0.000000 0.000000 -1.000000 54200.dat
1 219 -0.000010 -152.000000 -20.000010 1.000000 0.000000 0.000000 0.000000 1.000000 0.000000 0.000000 0.000000 1.000000 3022.dat
