0 Untitled Model
0 Name:  longstraight
0 Author:  
0 CustomBrick
0 FlexibleBrickControlPointUnitLength -1
0 FlexibleBrickLockedControlPoint 
0 NumOfBricks:  83
1 89 -20.000000 -128.000000 -0.000010 1.000000 0.000000 0.000000 0.000000 1.000000 0.000000 0.000000 0.000000 1.000000 3003.dat
1 89 -20.000000 -104.000000 -0.000010 1.000000 0.000000 0.000000 0.000000 1.000000 0.000000 0.000000 0.000000 1.000000 4032a.dat
1 89 9.999990 -128.000000 0.000000 0.000000 0.000000 -1.000000 0.000000 1.000000 0.000000 1.000000 0.000000 0.000000 22885.dat
1 89 -20.000000 -72.000000 -0.000010 1.000000 0.000000 0.000000 0.000000 1.000000 0.000000 0.000000 0.000000 1.000000 3003.dat
1 89 -20.000000 -96.000000 -0.000010 1.000000 0.000000 0.000000 0.000000 1.000000 0.000000 0.000000 0.000000 1.000000 3003.dat
1 89 -0.000010 -128.000000 30.000000 -1.000000 0.000000 0.000000 0.000000 1.000000 0.000000 0.000000 0.000000 -1.000000 22885.dat
1 89 -20.000000 -88.000000 30.000000 -1.000000 0.000000 0.000000 0.000000 1.000000 0.000000 0.000000 0.000000 -1.000000 22885.dat
1 89 -50.000010 -88.000000 19.999990 0.000000 0.000000 1.000000 0.000000 1.000000 0.000000 -1.000000 0.000000 0.000000 22885.dat
1 89 -49.999980 -128.000000 0.000000 0.000000 0.000000 1.000000 0.000000 1.000000 0.000000 -1.000000 0.000000 0.000000 22885.dat
1 0 -50.000000 -78.000000 -64.000020 1.000000 0.000000 0.000000 0.000000 0.000000 -1.000000 0.000000 1.000000 0.000000 98138.dat
1 0 10.000010 -78.000000 -64.000010 1.000000 0.000000 0.000000 0.000000 0.000000 -1.000000 0.000000 1.000000 0.000000 98138.dat
1 89 -20.000030 -57.999980 -56.000020 1.000000 0.000000 0.000000 0.000000 0.000000 -1.000000 0.000000 1.000000 0.000000 2431.dat
1 89 -20.000030 -77.999980 -56.000020 -1.000000 0.000000 0.000000 0.000000 0.000000 1.000000 0.000000 1.000000 0.000000 92593.dat
1 219 -20.000030 -108.000000 -48.000010 -1.000000 0.000000 0.000000 0.000000 0.000000 1.000000 0.000000 1.000000 0.000000 3020.dat
1 89 -20.000030 -68.000000 -48.000000 -1.000000 0.000000 0.000000 0.000000 0.000000 1.000000 0.000000 1.000000 0.000000 3020.dat
1 89 9.999980 -88.000000 20.000000 0.000000 0.000000 -1.000000 0.000000 1.000000 0.000000 1.000000 0.000000 0.000000 22885.dat
1 89 -40.000010 -128.000000 30.000000 -1.000000 0.000000 0.000000 0.000000 1.000000 0.000000 0.000000 0.000000 -1.000000 22885.dat
1 89 -49.999980 -88.000000 -20.000000 0.000000 0.000000 1.000000 0.000000 1.000000 0.000000 -1.000000 0.000000 0.000000 22885.dat
1 89 -20.000040 -87.999980 -30.000000 1.000000 0.000000 0.000000 0.000000 1.000000 0.000000 0.000000 0.000000 1.000000 22885.dat
1 89 -40.000040 -128.000000 -30.000020 1.000000 0.000000 0.000000 0.000000 1.000000 0.000000 0.000000 0.000000 1.000000 22885.dat
1 89 -0.000040 -127.875000 -30.000000 1.000000 0.000000 0.000000 0.000000 1.000000 0.000000 0.000000 0.000000 1.000000 22885.dat
1 89 10.000000 -88.000000 -20.000000 0.000000 0.000000 -1.000000 0.000000 1.000000 0.000000 1.000000 0.000000 0.000000 22885.dat
1 219 -0.000040 -127.875000 -20.000000 0.000000 0.000000 -1.000000 0.000000 1.000000 0.000000 1.000000 0.000000 0.000000 15068.dat
1 219 -0.000010 -128.000000 20.000010 0.000000 0.000000 -1.000000 0.000000 1.000000 0.000000 1.000000 0.000000 0.000000 15068.dat
1 219 -39.999980 -128.000000 20.000000 0.000000 0.000000 1.000000 0.000000 1.000000 0.000000 -1.000000 0.000000 0.000000 15068.dat
1 219 -40.000040 -128.000000 -20.000020 0.000000 0.000000 1.000000 0.000000 1.000000 0.000000 -1.000000 0.000000 0.000000 15068.dat
1 219 -20.000040 -135.875000 0.000000 0.000000 0.000000 -1.000000 0.000000 1.000000 0.000000 1.000000 0.000000 0.000000 3020.dat
1 89 -40.000040 -98.000000 -56.000020 1.000000 0.000000 0.000000 0.000000 0.000000 -1.000000 0.000000 1.000000 0.000000 3023b.dat
1 89 -0.000040 -98.000000 -56.000010 1.000000 0.000000 0.000000 0.000000 0.000000 -1.000000 0.000000 1.000000 0.000000 3023b.dat
1 219 -50.000040 -108.000000 -48.000020 -1.000000 0.000000 0.000000 0.000000 0.000000 1.000000 0.000000 1.000000 0.000000 11477.dat
1 219 9.999960 -108.000000 -48.000000 -1.000000 0.000000 0.000000 0.000000 0.000000 1.000000 0.000000 1.000000 0.000000 11477.dat
1 219 -30.000040 -118.000000 -48.000020 -1.000000 0.000000 0.000000 0.000000 0.000000 1.000000 0.000000 1.000000 0.000000 54200.dat
1 219 -10.000030 -118.000000 -48.000010 -1.000000 0.000000 0.000000 0.000000 0.000000 1.000000 0.000000 1.000000 0.000000 54200.dat
1 219 -30.000040 -98.000020 -64.000020 1.000000 0.000000 0.000000 0.000000 0.000000 -1.000000 0.000000 1.000000 0.000000 25269.dat
1 219 -10.000030 -98.000000 -64.000000 0.000000 0.000000 1.000000 1.000000 0.000000 0.000000 0.000000 1.000000 0.000000 25269.dat
1 219 -68.000020 -58.000000 29.999990 0.000000 1.000000 0.000000 1.000000 0.000000 0.000000 0.000000 0.000000 -1.000000 2420.dat
1 219 -68.000000 -58.000000 -20.000000 0.000000 1.000000 0.000000 0.000000 0.000000 -1.000000 -1.000000 0.000000 0.000000 3023b.dat
1 219 -68.000000 -78.000030 30.000010 0.000001 1.000000 0.000000 0.000000 0.000000 -1.000000 -1.000000 0.000001 0.000000 2420.dat
1 219 -68.000000 -78.000010 -30.000000 0.000000 1.000000 0.000000 -1.000000 0.000000 0.000000 0.000000 0.000001 1.000000 2420.dat
1 219 -76.000020 -68.000040 30.000010 0.000000 1.000000 0.000000 1.000000 0.000001 0.000000 0.000000 0.000000 -1.000000 3023b.dat
1 219 -76.000010 -38.000000 30.000000 0.000000 1.000000 0.000000 0.000000 0.000000 -1.000000 -1.000000 0.000000 0.000000 25269.dat
1 219 -76.000020 -58.000000 9.999990 0.000000 1.000000 0.000000 -1.000000 0.000000 0.000000 0.000000 0.000000 1.000000 3024.dat
1 219 -60.000000 -48.000000 -29.999990 0.000000 1.000000 0.000000 0.000000 0.000000 -1.000000 -1.000000 0.000000 0.000000 11477.dat
1 219 -76.000010 -78.000010 -30.000000 0.000000 1.000000 0.000000 -1.000000 0.000000 0.000000 0.000000 0.000000 1.000000 3024.dat
1 219 -68.000000 -58.000000 -9.999990 0.000000 1.000000 0.000000 0.000000 0.000000 -1.000000 -1.000000 0.000000 0.000000 54200.dat
1 219 28.000070 -58.000360 29.999700 0.000000 -1.000001 -0.000001 0.000000 -0.000001 1.000002 -1.000000 0.000000 0.000000 2420.dat
1 219 36.000030 -68.000400 30.000080 0.000000 -1.000000 0.000000 -1.000002 0.000000 0.000000 0.000000 0.000000 -1.000000 3023b.dat
1 219 36.000030 -58.000330 10.000110 0.000000 -1.000001 0.000000 1.000002 0.000000 0.000000 0.000000 0.000000 1.000000 3024.dat
1 219 28.000010 -58.000340 -20.000010 0.000000 -1.000001 0.000000 0.000000 0.000000 -1.000002 1.000000 0.000000 0.000000 3023b.dat
1 219 35.999990 -78.000390 -30.000000 0.000000 -1.000001 0.000000 1.000002 0.000000 0.000000 0.000000 0.000000 1.000000 3024.dat
1 219 27.999970 -78.000430 -30.000060 0.000000 -1.000001 0.000000 0.000000 0.000000 -1.000002 1.000000 0.000000 0.000000 2420.dat
1 219 28.000000 -78.000010 30.000000 0.000000 -1.000000 0.000000 -1.000000 0.000000 0.000000 0.000000 0.000000 -1.000000 2420.dat
1 219 20.000050 -48.000280 -29.999970 0.000000 -1.000001 0.000000 0.000000 0.000000 -1.000002 1.000000 0.000000 0.000000 11477.dat
1 219 28.000070 -58.000340 -9.999940 0.000000 -1.000001 0.000000 0.000000 0.000000 -1.000002 1.000000 0.000000 0.000000 54200.dat
1 219 -60.000000 -108.000000 30.000000 0.000000 1.000000 0.000000 0.000000 0.000000 1.000000 1.000000 0.000000 0.000000 11477.dat
1 219 -59.999980 -108.000000 -30.000010 0.000000 1.000000 0.000000 0.000000 0.000000 1.000000 1.000000 0.000000 0.000000 11477.dat
1 219 -83.999980 -98.000000 10.000000 0.000000 1.000000 0.000000 0.000000 0.000000 1.000000 1.000000 0.000000 0.000000 50950.dat
1 219 -83.999980 -98.000000 -10.000010 0.000000 1.000000 0.000000 0.000000 0.000000 1.000000 1.000000 0.000000 0.000000 50950.dat
1 219 -84.000010 -57.999980 10.000000 0.000000 1.000000 0.000000 1.000000 0.000000 0.000000 0.000000 0.000000 -1.000000 25269.dat
1 219 19.999970 -108.000100 -30.000040 0.000000 -1.000000 0.000000 0.000000 0.000000 1.000000 -1.000000 0.000000 0.000000 11477.dat
1 219 19.999990 -108.000000 30.000000 0.000000 -1.000000 0.000000 0.000000 0.000000 1.000000 -1.000000 0.000000 0.000000 11477.dat
1 219 44.000000 -97.999980 -10.000000 0.000000 -1.000000 0.000000 0.000000 0.000000 1.000000 -1.000000 0.000000 0.000000 50950.dat
1 219 44.000000 -97.999980 10.000000 0.000000 -1.000000 0.000000 0.000000 0.000000 1.000000 -1.000000 0.000000 0.000000 50950.dat
1 219 36.000060 -38.000320 29.999700 0.000000 -1.000000 0.000000 1.000000 0.000000 0.000000 0.000000 0.000000 1.000000 25269.dat
1 219 44.000030 -58.000340 10.000090 0.000000 -1.000000 -0.000001 -0.000001 0.000001 -1.000000 1.000000 0.000000 -0.000001 25269.dat
1 219 -0.000010 -48.000000 48.000000 0.000000 0.000000 -1.000000 1.000000 0.000000 0.000000 0.000000 -1.000000 0.000000 3020.dat
1 219 -40.000010 -48.000000 48.000000 0.000000 0.000000 -1.000000 1.000000 0.000000 0.000000 0.000000 -1.000000 0.000000 3020.dat
1 219 -20.000010 -108.000000 48.000000 1.000000 0.000000 0.000000 0.000000 0.000000 1.000000 0.000000 -1.000000 0.000000 3020.dat
1 219 -20.000010 -48.000000 55.999980 1.000000 0.000000 0.000000 0.000000 0.000000 1.000000 0.000000 -1.000000 0.000000 3020.dat
1 219 9.999990 -78.000000 56.000000 1.000000 0.000000 0.000000 0.000000 0.000000 1.000000 0.000000 -1.000000 0.000000 3024.dat
1 219 -50.000020 -78.000000 56.000000 1.000000 0.000000 0.000000 0.000000 0.000000 1.000000 0.000000 -1.000000 0.000000 3024.dat
1 219 9.999990 -108.000000 48.000000 1.000000 0.000000 0.000000 0.000000 0.000000 1.000000 0.000000 -1.000000 0.000000 11477.dat
1 219 10.000000 -98.000000 56.000000 1.000000 0.000000 0.000000 0.000000 0.000000 1.000000 0.000000 -1.000000 0.000000 3024.dat
1 219 -50.000020 -108.000000 48.000000 1.000000 0.000000 0.000000 0.000000 0.000000 1.000000 0.000000 -1.000000 0.000000 11477.dat
1 219 -50.000020 -98.000000 56.000020 1.000000 0.000000 0.000000 0.000000 0.000000 1.000000 0.000000 -1.000000 0.000000 3024.dat
1 219 -10.000010 -98.000000 72.000010 1.000000 0.000000 0.000000 0.000000 0.000000 1.000000 0.000000 -1.000000 0.000000 50950.dat
1 219 -30.000010 -98.000000 72.000000 1.000000 0.000000 0.000000 0.000000 0.000000 1.000000 0.000000 -1.000000 0.000000 50950.dat
1 219 -20.000010 -57.999980 64.000010 1.000000 0.000001 0.000000 0.000000 0.000000 1.000000 0.000001 -1.000000 0.000000 3023b.dat
1 219 -20.000000 -28.000000 47.999980 -1.000000 0.000000 -0.000001 0.000001 0.000000 -1.000000 0.000000 -1.000000 0.000000 15068.dat
1 219 9.999980 -38.000000 63.999990 0.000000 0.000001 -1.000000 1.000000 0.000000 0.000000 0.000000 -1.000000 -0.000001 25269.dat
1 219 -50.000020 -38.000000 64.000000 -1.000000 0.000000 -0.000001 0.000001 0.000001 -1.000000 0.000000 -1.000000 0.000000 25269.dat
1 219 -10.000020 -58.000000 72.000010 0.000000 0.000001 -1.000000 1.000000 0.000000 0.000000 0.000000 -1.000000 -0.000001 25269.dat
1 219 -30.000020 -58.000000 72.000010 -1.000000 0.000000 -0.000001 0.000001 0.000001 -1.000000 0.000000 -1.000000 0.000000 25269.dat
