0 Untitled Model
0 Name:  asymmetrical_short_bob_female
0 Author:  
0 CustomBrick
0 FlexibleBrickControlPointUnitLength -1
0 FlexibleBrickLockedControlPoint 
0 NumOfBricks:  105
1 89 10.000000 -33.000160 10.000000 0.000000 0.000000 -1.000000 0.000000 1.000000 0.000000 1.000000 0.000000 0.000000 4304.dat
1 89 -50.000000 -33.000160 -9.999990 0.000000 0.000000 1.000000 0.000000 1.000000 0.000000 -1.000000 0.000000 0.000000 4304.dat
1 89 -50.000010 -33.000160 29.999980 0.000000 0.000000 1.000000 0.000000 1.000000 0.000000 -1.000000 0.000000 0.000000 4304.dat
1 89 -30.000010 -33.000160 19.999970 1.000000 0.000000 0.000000 0.000000 1.000000 0.000000 0.000000 0.000000 1.000000 2420.dat
1 89 -30.000010 -33.000160 0.000000 0.000000 0.000000 1.000000 0.000000 1.000000 0.000000 -1.000000 0.000000 0.000000 2420.dat
1 89 -50.000020 -57.000180 39.999980 -1.000000 0.000000 0.000000 0.000000 1.000000 0.000000 0.000000 0.000000 -1.000000 87087.dat
1 89 -30.000020 -57.000180 39.999980 -1.000000 0.000000 0.000000 0.000000 1.000000 0.000000 0.000000 0.000000 -1.000000 87087.dat
1 89 -50.000000 -57.000180 -20.000040 1.000000 0.000000 -0.000001 0.000000 1.000000 0.000000 0.000001 0.000000 1.000000 87087.dat
1 89 -30.000010 -57.000180 -20.000020 1.000000 0.000000 -0.000001 0.000000 1.000000 0.000000 0.000001 0.000000 1.000000 87087.dat
1 89 10.000000 -57.000180 10.000010 0.000000 0.000000 -1.000000 0.000000 1.000000 0.000000 1.000000 0.000000 0.000000 11211.dat
1 89 -50.000040 -57.000180 9.999990 0.000000 0.000000 1.000000 0.000000 1.000000 0.000000 -1.000000 0.000000 0.000000 11211.dat
1 89 -20.000030 -57.000180 10.000000 0.000000 0.000000 -1.000000 0.000000 1.000000 0.000000 1.000000 0.000000 0.000000 3003.dat
1 89 10.000000 -73.000170 10.000010 0.000000 0.000000 -1.000000 0.000000 1.000000 0.000000 1.000000 0.000000 0.000000 4304.dat
1 89 -30.000010 -65.000170 10.000000 0.000000 0.000000 -1.000000 0.000000 1.000000 0.000000 1.000000 0.000000 0.000000 3023.dat
1 89 -20.000020 -73.000170 10.000000 0.000000 0.000000 -1.000000 0.000000 1.000000 0.000000 1.000000 0.000000 0.000000 3022.dat
1 89 -20.000020 -97.000170 10.000000 0.000000 0.000000 -1.000000 0.000000 1.000000 0.000000 1.000000 0.000000 0.000000 3003.dat
1 89 0.000000 -57.000180 39.999990 -1.000000 0.000000 0.000000 0.000000 1.000000 0.000000 0.000000 0.000000 -1.000000 22885.dat
1 89 -20.000030 -97.000170 39.999980 -1.000000 0.000000 0.000000 0.000000 1.000000 0.000000 0.000000 0.000000 -1.000000 22885.dat
1 89 -50.000040 -97.000170 29.999980 0.000000 0.000000 1.000000 0.000000 1.000000 0.000000 -1.000000 0.000000 0.000000 22885.dat
1 89 -50.000000 -97.000170 -9.999990 0.000000 0.000000 1.000000 0.000000 1.000000 0.000000 -1.000000 0.000000 0.000000 22885.dat
1 89 0.000010 -57.000180 -20.000020 1.000000 0.000000 0.000000 0.000000 1.000000 0.000000 0.000000 0.000000 1.000000 22885.dat
1 89 -20.000000 -97.000170 -20.000020 1.000000 0.000000 0.000000 0.000000 1.000000 0.000000 0.000000 0.000000 1.000000 22885.dat
1 89 10.000000 -97.000170 -20.000040 1.000000 0.000000 0.000000 0.000000 1.000000 0.000000 0.000000 0.000000 1.000000 32952.dat
1 89 9.999990 -97.000170 39.999990 -1.000000 0.000000 0.000000 0.000000 1.000000 0.000000 0.000000 0.000000 -1.000000 32952.dat
1 89 10.000000 -97.000170 10.000010 0.000000 0.000000 -1.000000 0.000000 1.000000 0.000000 1.000000 0.000000 0.000000 11211.dat
1 89 0.000000 -113.000200 -20.000000 1.000001 0.000000 0.000000 0.000000 1.000000 0.000000 0.000000 0.000000 1.000001 99206.dat
1 89 -40.000000 -113.000200 -20.000010 1.000001 0.000000 0.000000 0.000000 1.000000 0.000000 0.000000 0.000000 1.000001 99206.dat
1 89 -0.000030 -113.000200 40.000010 -1.000001 0.000000 0.000000 0.000000 1.000000 0.000000 0.000000 0.000000 -1.000001 99206.dat
1 89 -40.000060 -113.000200 40.000040 -1.000001 0.000000 0.000000 0.000000 1.000000 0.000000 0.000000 0.000000 -1.000001 99206.dat
1 89 -20.000020 -113.000200 10.000000 1.000001 0.000000 0.000000 0.000000 1.000000 0.000000 0.000000 0.000000 1.000001 3020.dat
1 431 -20.000020 -121.000200 10.000000 1.000001 0.000000 0.000000 0.000000 1.000000 0.000000 0.000000 0.000000 1.000001 3020.dat
1 431 0.000020 -113.000200 -20.000000 1.000001 0.000000 0.000000 0.000000 1.000000 0.000000 0.000000 0.000000 1.000001 85984.dat
1 431 -40.000000 -113.000200 -20.000010 1.000001 0.000000 0.000000 0.000000 1.000000 0.000000 0.000000 0.000000 1.000001 85984.dat
1 431 -40.000040 -113.000200 30.000020 -1.000001 0.000000 0.000000 0.000000 1.000000 0.000000 0.000000 0.000000 -1.000001 15068.dat
1 431 0.000000 -113.000200 30.000050 -1.000001 0.000000 0.000000 0.000000 1.000000 0.000000 0.000000 0.000000 -1.000001 15068.dat
1 431 -20.000010 -129.000200 -0.000010 1.000001 0.000000 0.000000 0.000000 1.000000 0.000000 0.000000 0.000000 1.000001 2431.dat
1 89 27.999990 -47.000160 -9.999990 0.000000 -1.000001 0.000000 1.000000 0.000000 0.000000 0.000000 0.000000 1.000001 3021.dat
1 89 27.999980 -47.000160 30.000060 0.000000 -1.000001 0.000000 1.000000 0.000000 0.000000 0.000000 0.000000 1.000001 3021.dat
1 431 27.999980 -87.000170 -9.999990 0.000000 -1.000001 0.000000 0.000000 0.000000 1.000000 -1.000001 0.000000 0.000000 99780.dat
1 431 27.999970 -87.000170 30.000040 0.000000 -1.000001 0.000000 0.000000 0.000000 1.000000 -1.000001 0.000000 0.000000 99780.dat
1 431 29.999980 -101.000200 30.000040 -0.000001 0.000000 -1.000001 0.000000 1.000000 0.000000 1.000001 0.000000 -0.000001 85984.dat
1 431 29.999980 -101.000200 -10.000000 -0.000001 0.000000 -1.000001 0.000000 1.000000 0.000000 1.000001 0.000000 -0.000001 85984.dat
1 89 36.000040 -27.000070 10.000030 0.000000 -1.000003 0.000000 0.000000 0.000000 -1.000002 1.000001 0.000000 0.000000 2431.dat
1 89 36.000040 -47.000070 10.000030 0.000000 -1.000004 0.000000 0.000000 0.000000 1.000003 -1.000001 0.000000 0.000000 41740.dat
1 89 35.999990 -67.000170 10.000030 0.000000 -1.000001 0.000000 0.000000 0.000000 1.000000 -1.000001 0.000000 0.000000 41740.dat
1 89 35.999980 -87.000170 10.000030 0.000000 -1.000001 0.000000 0.000000 0.000000 -1.000000 1.000001 0.000000 0.000000 3710.dat
1 15 44.000100 -47.000070 -20.000000 0.000000 -1.000001 0.000000 0.000000 0.000000 1.000000 -1.000001 0.000000 0.000000 98138p2o.dat
1 431 44.000020 -87.000170 40.000080 0.000000 -1.000001 0.000000 0.000000 0.000000 -1.000000 1.000001 0.000000 0.000000 3070b.dat
1 431 44.000020 -77.000170 -20.000000 0.000000 -1.000001 0.000000 1.000000 0.000000 0.000000 0.000000 0.000000 1.000001 3069b.dat
1 431 44.000020 -87.000170 0.000010 0.000000 -1.000001 0.000000 0.000000 0.000000 -1.000000 1.000001 0.000000 0.000000 25269.dat
1 431 44.000020 -67.000170 40.000080 0.000000 -1.000001 0.000000 1.000000 0.000000 0.000000 0.000000 0.000000 1.000001 25269.dat
1 431 44.000020 -87.000170 0.000010 0.000000 -1.000001 0.000000 0.000000 0.000000 -1.000000 1.000001 0.000000 0.000000 27925.dat
1 431 19.999970 -77.000170 58.000020 0.000000 0.000000 -1.000001 1.000000 0.000000 0.000000 0.000000 -1.000001 0.000000 3022.dat
1 431 -10.000020 -87.000170 58.000030 0.000000 0.000000 -1.000001 1.000000 0.000000 0.000000 0.000000 -1.000001 0.000000 3024.dat
1 431 -40.000060 -67.000170 58.000020 1.000001 0.000000 0.000000 0.000000 0.000000 1.000000 0.000000 -1.000001 0.000000 3710.dat
1 89 -30.000020 -37.000160 58.000010 0.000000 0.000000 -1.000001 1.000000 0.000000 0.000000 0.000000 -1.000001 0.000000 3023.dat
1 431 -50.000040 -47.000160 57.999980 0.000000 0.000000 -1.000001 1.000000 0.000000 0.000000 0.000000 -1.000001 0.000000 2420.dat
1 89 9.999990 -27.000160 58.000020 -1.000001 0.000000 0.000000 0.000000 0.000000 -1.000000 0.000000 -1.000001 0.000000 14719.dat
1 431 29.999980 -67.000170 66.000040 0.000000 0.000000 -1.000001 1.000000 0.000000 0.000000 0.000000 -1.000001 0.000000 25269.dat
1 431 -10.000000 -47.000160 50.000000 -1.000001 0.000000 0.000000 0.000000 0.000000 -1.000000 0.000000 -1.000001 0.000000 54200.dat
1 431 -10.000020 -67.000170 66.000040 0.000000 0.000000 -1.000001 1.000000 0.000000 0.000000 0.000000 -1.000001 0.000000 3024.dat
1 431 -50.000050 -47.000160 66.000020 0.000000 0.000000 -1.000001 1.000000 0.000000 0.000000 0.000000 -1.000001 0.000000 3024.dat
1 89 -30.000020 -37.000160 58.000010 0.000000 0.000000 1.000001 -1.000000 0.000000 0.000000 0.000000 -1.000001 0.000000 85984.dat
1 431 -0.000020 -67.000170 58.000020 0.000000 0.000000 -1.000001 1.000000 0.000000 0.000000 0.000000 -1.000001 0.000000 11477.dat
1 431 -70.000110 -37.000160 49.999980 -1.000001 0.000000 0.000000 0.000000 0.000000 -1.000000 0.000000 -1.000001 0.000000 11477.dat
1 431 -50.000040 -37.000160 57.999980 -1.000001 0.000000 0.000000 0.000000 0.000000 -1.000000 0.000000 -1.000001 0.000000 29119.dat
1 431 -70.000160 -77.000170 50.000010 1.000001 0.000000 0.000000 0.000000 0.000000 1.000000 0.000000 -1.000001 0.000000 29119.dat
1 431 29.999980 -97.000170 50.000000 1.000001 0.000000 0.000000 0.000000 0.000000 1.000000 0.000000 -1.000001 0.000000 29120.dat
1 431 -0.000020 -97.000170 50.000000 1.000001 0.000000 0.000000 0.000000 0.000000 1.000000 0.000000 -1.000001 0.000000 15068.dat
1 431 -30.000050 -87.000170 74.000110 1.000001 0.000000 0.000000 0.000000 0.000000 1.000000 0.000000 -1.000001 0.000000 50950.dat
1 431 -50.000080 -87.000170 74.000110 1.000001 0.000000 0.000000 0.000000 0.000000 1.000000 0.000000 -1.000001 0.000000 50950.dat
1 431 -76.000110 -27.000160 30.000010 0.000000 1.000001 0.000000 0.000000 0.000000 -1.000000 -1.000001 0.000000 0.000000 99206.dat
1 431 -76.000080 -27.000160 -10.000010 0.000000 1.000001 0.000000 0.000000 0.000000 -1.000000 -1.000001 0.000000 0.000000 99206.dat
1 431 -76.000080 -47.000160 10.000030 0.000000 1.000001 0.000000 0.000000 0.000000 1.000000 1.000001 0.000000 0.000000 3710.dat
1 431 -68.000080 -67.000170 10.000020 0.000000 1.000001 0.000000 0.000000 0.000000 1.000000 1.000001 0.000000 0.000000 3710.dat
1 431 -70.000070 -17.000140 40.000010 1.000001 0.000000 0.000000 0.000000 -1.000000 0.000000 0.000000 0.000000 -1.000001 54200.dat
1 431 -70.000080 -17.000180 -20.000030 -1.000001 0.000000 0.000000 0.000000 -1.000000 0.000000 0.000000 0.000000 1.000001 54200.dat
1 431 -84.000100 -87.000170 40.000060 0.000000 1.000001 0.000000 0.000000 0.000000 1.000000 1.000001 0.000000 0.000000 50950.dat
1 431 -84.000090 -87.000170 20.000030 0.000000 1.000001 0.000000 0.000000 0.000000 1.000000 1.000001 0.000000 0.000000 50950.dat
1 431 -84.000090 -87.000170 -0.000010 0.000000 1.000001 0.000000 0.000000 0.000000 1.000000 1.000001 0.000000 0.000000 50950.dat
1 431 -84.000090 -87.000170 -20.000030 0.000000 1.000001 0.000000 0.000000 0.000000 1.000000 1.000001 0.000000 0.000000 50950.dat
1 431 -84.000090 -37.000160 10.000020 0.000000 1.000001 0.000000 0.000000 0.000000 1.000000 1.000001 0.000000 0.000000 87079.dat
1 431 -70.000100 -17.000180 0.000000 1.000001 0.000000 0.000000 0.000000 -1.000000 0.000000 0.000000 0.000000 -1.000001 54200.dat
1 431 -70.000100 -17.000180 19.999980 1.000001 0.000000 0.000000 0.000000 -1.000000 0.000000 0.000000 0.000000 -1.000001 54200.dat
1 431 -10.000020 -37.000160 -38.000050 -1.000001 0.000000 0.000000 0.000000 0.000000 1.000000 0.000000 1.000001 0.000000 3021.dat
1 431 29.999980 -67.000170 -38.000010 0.000000 0.000000 -1.000001 -1.000000 0.000000 0.000000 0.000000 1.000001 0.000000 2420.dat
1 89 -19.999990 -67.000170 -38.000020 -1.000001 0.000000 0.000000 0.000000 0.000000 1.000000 0.000000 1.000001 0.000000 3023.dat
1 431 29.999970 -97.000170 -30.000010 -1.000001 0.000000 0.000001 0.000001 0.000000 1.000000 0.000000 1.000001 0.000000 29119.dat
1 431 10.000030 -17.000180 -30.000020 1.000001 0.000000 -0.000001 -0.000001 0.000000 -1.000000 0.000000 1.000001 0.000000 29119.dat
1 431 29.999980 -57.000180 -30.000010 1.000001 0.000000 -0.000001 -0.000001 0.000000 -1.000000 0.000000 1.000001 0.000000 29119.dat
1 431 -10.000020 -47.000160 -46.000040 1.000001 0.000000 0.000000 0.000000 0.000000 -1.000000 0.000000 1.000001 0.000000 3623.dat
1 431 10.000040 -87.000170 -54.000050 -1.000001 0.000000 0.000000 0.000000 0.000000 1.000000 0.000000 1.000001 0.000000 50950.dat
1 431 -9.999990 -87.000170 -54.000060 -1.000001 0.000000 0.000000 0.000000 0.000000 1.000000 0.000000 1.000001 0.000000 50950.dat
1 431 -29.999940 -87.000170 -54.000060 -1.000001 0.000000 0.000000 0.000000 0.000000 1.000000 0.000000 1.000001 0.000000 50950.dat
1 431 -30.000040 -37.000160 -38.000050 1.000001 0.000000 -0.000001 -0.000001 0.000000 -1.000000 0.000000 1.000001 0.000000 29119.dat
1 431 10.000020 -47.000160 -54.000060 1.000001 0.000000 0.000000 0.000000 0.000000 -1.000000 0.000000 1.000001 0.000000 25269.dat
1 431 -10.000020 -37.000160 -38.000050 1.000001 0.000000 0.000000 0.000000 0.000000 -1.000000 0.000000 1.000001 0.000000 11477.dat
1 431 -60.000070 -37.000070 -38.000160 -1.000001 0.000000 0.000000 0.000000 0.000000 1.000001 0.000000 1.000004 0.000000 24299.dat
1 431 -60.000060 -57.000180 -46.000070 -1.000001 0.000000 0.000000 0.000000 0.000000 1.000001 0.000000 1.000004 0.000000 24299.dat
1 431 -50.000030 -77.000170 -38.000050 0.000000 0.000000 1.000001 1.000001 0.000000 0.000000 0.000000 1.000004 0.000000 3023.dat
1 431 -50.000030 -77.000170 -38.000050 -1.000001 0.000000 0.000000 0.000000 0.000000 1.000000 0.000000 1.000001 0.000000 11477.dat
1 431 -50.000000 -17.000010 -30.000160 1.000001 0.000000 0.000000 0.000000 0.000000 -1.000000 0.000000 1.000001 0.000000 29119.dat
1 431 -49.999980 -47.000160 -54.000080 -1.000001 0.000000 0.000000 0.000000 0.000000 1.000000 0.000000 1.000001 0.000000 3070b.dat
1 431 -50.000000 -107.000200 -30.000020 -1.000001 0.000000 0.000000 0.000000 0.000000 1.000000 0.000000 1.000001 0.000000 54200.dat
1 15 44.000080 -47.000070 40.000080 0.000000 -1.000001 0.000000 0.000000 0.000000 1.000000 -1.000001 0.000000 0.000000 98138p2d.dat
