0 Untitled Model
0 Name:  bald_male_long_beard_mustache_Copy
0 Author:  
0 CustomBrick
0 FlexibleBrickControlPointUnitLength -1
0 FlexibleBrickLockedControlPoint 
0 NumOfBricks:  49
1 89 -30.000000 -40.000000 40.000000 0.000000 0.000000 1.000000 0.000000 1.000000 0.000000 -1.000000 0.000000 0.000000 22885.dat
1 89 -0.000020 -40.000000 50.000000 -1.000000 0.000000 0.000000 0.000000 1.000000 0.000000 0.000000 0.000000 -1.000000 22885.dat
1 89 29.999980 -40.000000 40.000000 0.000000 0.000000 -1.000000 0.000000 1.000000 0.000000 1.000000 0.000000 0.000000 22885.dat
1 23 -0.000030 -24.000000 20.000000 1.000000 0.000000 0.000000 0.000000 1.000000 0.000000 0.000000 0.000000 1.000000 3003.dat
1 89 -30.000030 -40.000000 -0.000020 0.000000 0.000000 1.000000 0.000000 1.000000 0.000000 -1.000000 0.000000 0.000000 22885.dat
1 89 29.999970 -40.000000 -0.000030 0.000000 0.000000 -1.000000 0.000000 1.000000 0.000000 1.000000 0.000000 0.000000 22885.dat
1 89 -0.000030 -40.000000 -10.000030 1.000000 0.000000 0.000000 0.000000 1.000000 0.000000 0.000000 0.000000 1.000000 22885.dat
1 89 -0.000030 -48.000000 20.000000 1.000000 0.000000 0.000000 0.000000 1.000000 0.000000 0.000000 0.000000 1.000000 3003.dat
1 89 -20.000030 -80.000000 50.000000 -1.000000 0.000000 0.000000 0.000000 1.000000 0.000000 0.000000 0.000000 -1.000000 22885.dat
1 89 -30.000030 -80.000000 20.000000 0.000000 0.000000 1.000000 0.000000 1.000000 0.000000 -1.000000 0.000000 0.000000 22885.dat
1 89 19.999970 -80.000000 50.000000 -1.000000 0.000000 0.000000 0.000000 1.000000 0.000000 0.000000 0.000000 -1.000000 22885.dat
1 89 29.999970 -80.000000 19.999990 0.000000 0.000000 -1.000000 0.000000 1.000000 0.000000 1.000000 0.000000 0.000000 22885.dat
1 89 -20.000040 -80.000000 -10.000020 1.000000 0.000000 0.000000 0.000000 1.000000 0.000000 0.000000 0.000000 1.000000 22885.dat
1 89 19.999970 -80.000000 -10.000030 1.000000 0.000000 0.000000 0.000000 1.000000 0.000000 0.000000 0.000000 1.000000 22885.dat
1 89 -0.000030 -56.000000 20.000000 1.000000 0.000000 0.000000 0.000000 1.000000 0.000000 0.000000 0.000000 1.000000 4032a.dat
1 89 -0.000030 -80.000000 20.000000 1.000000 0.000000 0.000000 0.000000 1.000000 0.000000 0.000000 0.000000 1.000000 3003.dat
1 89 -0.000030 -88.000000 20.000000 1.000000 0.000000 0.000000 0.000000 1.000000 0.000000 0.000000 0.000000 1.000000 3031.dat
1 89 -0.000030 -39.999990 -28.000030 -1.000000 0.000000 0.000000 0.000000 0.000000 1.000000 0.000000 1.000000 0.000000 3020.dat
1 89 -30.000030 -70.000000 -28.000030 1.000000 0.000000 0.000000 0.000000 0.000000 -1.000000 0.000000 1.000000 0.000000 3024.dat
1 89 29.999970 -70.000000 -28.000040 1.000000 0.000000 0.000000 0.000000 0.000000 -1.000000 0.000000 1.000000 0.000000 3024.dat
1 219 -20.000040 -10.000000 -28.000030 1.000000 0.000000 0.000000 0.000000 0.000000 -1.000003 0.000000 1.000003 0.000000 99780.dat
1 219 19.999970 -10.000010 -28.000020 1.000000 0.000000 0.000000 0.000000 0.000000 -1.000003 0.000000 1.000003 0.000000 99780.dat
1 89 -0.000020 -10.000010 -36.000060 1.000000 0.000000 -0.000001 -0.000001 0.000000 -1.000003 0.000000 1.000003 0.000000 3023b.dat
1 219 -30.000000 -9.999980 -35.999960 1.000000 0.000000 -0.000001 -0.000001 0.000000 -1.000000 0.000000 1.000000 0.000000 3024.dat
1 219 29.999970 -10.000010 -36.000050 1.000000 0.000000 -0.000001 -0.000001 0.000000 -1.000003 0.000000 1.000003 0.000000 3024.dat
1 219 -10.000020 -10.000000 -44.000100 1.000000 0.000000 -0.000001 -0.000001 0.000000 -1.000003 0.000000 1.000003 0.000000 25269.dat
1 219 -30.000020 -9.999990 -44.000100 -1.000000 0.000000 0.000000 0.000000 0.000000 1.000003 0.000000 1.000003 0.000000 25269.dat
1 219 9.999980 -10.000010 -44.000100 0.000000 0.000000 1.000000 1.000003 0.000000 0.000000 0.000000 1.000003 0.000000 25269.dat
1 219 29.999980 -10.000010 -44.000100 0.000000 0.000000 -1.000000 -1.000003 0.000000 0.000000 0.000000 1.000003 0.000000 25269.dat
1 219 -0.000010 12.000070 -30.000030 1.000000 -0.000001 0.000000 -0.000001 -1.000003 0.000000 0.000000 0.000000 -1.000003 3023b.dat
1 219 0.000000 20.000120 -30.000060 1.000000 -0.000001 0.000000 -0.000001 -1.000003 0.000000 0.000000 0.000000 -1.000003 3023b.dat
1 219 -30.000030 4.000040 -30.000050 -0.000001 -0.000001 1.000000 0.000000 -1.000003 -0.000001 1.000003 0.000000 0.000001 54200.dat
1 219 29.999980 4.000030 -30.000040 0.000001 -0.000001 -1.000000 -0.000001 -1.000003 0.000001 -1.000003 0.000001 -0.000001 54200.dat
1 89 -0.000040 -30.000000 -36.000030 -1.000000 0.000000 0.000000 0.000000 0.000000 1.000000 0.000000 1.000000 0.000000 92593.dat
1 0 29.999960 -30.000000 -44.000030 -1.000000 0.000000 0.000000 0.000000 0.000000 1.000000 0.000000 1.000000 0.000000 98138.dat
1 0 -30.000040 -30.000000 -44.000030 -1.000000 0.000000 0.000000 0.000000 0.000000 1.000000 0.000000 1.000000 0.000000 98138.dat
1 89 -0.000030 -70.000010 -28.000030 1.000000 0.000000 0.000000 0.000000 0.000000 -1.000000 0.000000 1.000000 0.000000 3023b.dat
1 89 -0.000020 -60.000000 -36.000030 -1.000000 0.000000 0.000000 0.000000 0.000000 1.000000 0.000000 1.000000 0.000000 87079.dat
1 89 -48.000000 -20.000010 40.000000 0.000000 1.000000 0.000000 -1.000000 0.000000 0.000000 0.000000 0.000000 1.000000 3022.dat
1 89 -48.000040 -10.000000 -10.000000 0.000000 1.000000 0.000000 -1.000000 0.000000 0.000000 0.000000 0.000000 1.000000 14719.dat
1 89 -48.000040 -20.000000 30.000000 0.000000 1.000000 0.000000 1.000000 0.000000 0.000000 0.000000 0.000000 -1.000000 85984.dat
1 89 -48.000040 -30.000000 10.000000 0.000000 1.000000 0.000000 1.000000 0.000000 0.000000 0.000000 0.000000 -1.000000 3024.dat
1 89 -48.000040 -60.000000 20.000000 0.000000 1.000000 0.000000 0.000000 0.000000 -1.000000 -1.000000 0.000000 0.000000 3020.dat
1 89 47.999940 -20.000000 39.999980 0.000000 -1.000000 0.000000 1.000000 0.000000 0.000000 0.000000 0.000000 1.000000 3022.dat
1 89 47.999960 -10.000000 -10.000030 0.000000 -1.000000 0.000000 0.000000 0.000000 -1.000000 1.000000 0.000000 0.000000 14719.dat
1 89 47.999960 -20.000000 29.999980 0.000000 -1.000000 0.000000 -1.000000 0.000000 0.000000 0.000000 0.000000 -1.000000 85984.dat
1 89 47.999960 -30.000000 9.999980 0.000000 -1.000000 0.000000 0.000000 0.000000 -1.000000 1.000000 0.000000 0.000000 3024.dat
1 89 47.999960 -60.000020 19.999980 0.000000 -1.000000 0.000000 0.000000 0.000000 1.000000 -1.000000 0.000000 0.000000 3020.dat
1 89 -0.000020 -40.000000 68.000000 1.000000 0.000000 0.000000 0.000000 0.000000 1.000000 0.000000 -1.000000 0.000000 3031.dat
