0 Untitled Model
0 Name:  long_straight_kahkulsuz_female
0 Author:  
0 CustomBrick
0 FlexibleBrickControlPointUnitLength -1
0 FlexibleBrickLockedControlPoint 
1 89 0.000000 -60.003480 0.000000 0.000000 0.000000 1.000000 0.000000 1.000000 0.000000 -1.000000 0.000000 0.000000 22885.dat
1 89 -0.000550 -60.003480 -39.999800 0.000000 0.000000 1.000000 0.000000 1.000000 0.000000 -1.000000 0.000000 0.000000 22885.dat
1 89 29.999590 -60.003480 -49.999720 1.000004 0.000000 -0.000001 0.000000 1.000000 0.000000 0.000001 0.000000 1.000004 22885.dat
1 89 59.999480 -60.003480 -40.000120 0.000000 0.000000 -1.000003 0.000000 1.000000 0.000000 1.000003 0.000000 0.000000 22885.dat
1 89 59.999490 -60.003480 0.000400 0.000000 0.000000 -1.000003 0.000000 1.000000 0.000000 1.000003 0.000000 0.000000 22885.dat
1 89 29.999570 -60.003480 10.000310 -1.000003 0.000000 0.000000 0.000000 1.000000 0.000000 0.000000 0.000000 -1.000003 22885.dat
1 89 49.999480 -100.003500 10.000310 -1.000003 0.000000 0.000000 0.000000 1.000000 0.000000 0.000000 0.000000 -1.000003 22885.dat
1 89 9.999499 -100.003500 10.000310 -1.000003 0.000000 0.000000 0.000000 1.000000 0.000000 0.000000 0.000000 -1.000003 22885.dat
1 89 0.000010 -100.003500 -20.000000 0.000000 0.000000 1.000000 0.000000 1.000000 0.000000 -1.000000 0.000000 0.000000 22885.dat
1 89 9.999470 -100.003500 -49.999820 1.000004 0.000000 -0.000001 0.000000 1.000000 0.000000 0.000001 0.000000 1.000004 22885.dat
1 89 49.999480 -100.003500 -49.999820 1.000004 0.000000 -0.000001 0.000000 1.000000 0.000000 0.000001 0.000000 1.000004 22885.dat
1 89 59.999480 -100.003500 -19.999910 0.000000 0.000000 -1.000003 0.000000 1.000000 0.000000 1.000003 0.000000 0.000000 22885.dat
1 89 29.998920 -44.003480 -19.999800 1.000000 0.000000 0.000000 0.000000 1.000000 0.000000 0.000000 0.000000 1.000000 3003.dat
1 89 29.998920 -68.003480 -19.999800 1.000000 0.000000 0.000000 0.000000 1.000000 0.000000 0.000000 0.000000 1.000000 3003.dat
1 89 29.998920 -92.003480 -19.999800 1.000000 0.000000 0.000000 0.000000 1.000000 0.000000 0.000000 0.000000 1.000000 3003.dat
1 89 29.998920 -100.003500 -19.999800 1.000000 0.000000 0.000000 0.000000 1.000000 0.000000 0.000000 0.000000 1.000000 4032a.dat
1 89 77.999560 -50.003480 -40.000020 0.000000 -1.000000 0.000000 -1.000000 0.000000 0.000000 0.000000 0.000000 -1.000000 3021.dat
1 89 77.999560 -50.003480 0.000090 0.000000 -1.000000 0.000000 -1.000000 0.000000 0.000000 0.000000 0.000000 -1.000000 3021.dat
1 219 77.999560 -90.003480 -40.000020 0.000000 -1.000000 0.000000 0.000000 0.000000 1.000000 -1.000000 0.000000 0.000000 99780.dat
1 219 77.999560 -90.003480 0.000090 0.000000 -1.000000 0.000000 0.000000 0.000000 1.000000 -1.000000 0.000000 0.000000 99780.dat
1 89 85.999590 -30.003480 -19.999920 0.000000 -1.000000 0.000000 0.000000 0.000000 1.000000 -1.000000 0.000000 0.000000 2431.dat
1 89 85.999590 -50.003480 -19.999920 0.000000 -1.000000 0.000000 0.000000 0.000000 1.000000 -1.000000 0.000000 0.000000 41740.dat
1 219 79.999660 -112.003500 -50.000020 0.000000 0.000000 1.000000 0.000000 1.000000 0.000000 -1.000000 0.000000 0.000000 3024.dat
1 219 79.999680 -112.003500 10.000100 0.000000 0.000000 1.000000 0.000000 1.000000 0.000000 -1.000000 0.000000 0.000000 3024.dat
1 219 79.999660 -104.003500 -40.000020 -1.000000 0.000000 0.000000 0.000000 1.000000 0.000000 0.000000 0.000000 -1.000000 11477.dat
1 219 79.999680 -104.003500 0.000090 1.000000 0.000000 0.000000 0.000000 1.000000 0.000000 0.000000 0.000000 1.000000 11477.dat
1 219 39.999500 -40.002380 -67.999820 0.000000 0.000000 1.000000 1.000062 0.000000 0.000000 0.000000 1.000062 0.000000 3023.dat
1 219 19.999520 -10.000000 -92.001130 -1.000000 0.000000 0.000000 0.000000 0.000000 1.000062 0.000000 1.000062 0.000000 6091.dat
1 219 19.999600 -70.003480 -67.999820 0.000000 0.000000 1.000000 1.000062 0.000000 0.000000 0.000000 1.000062 0.000000 2420.dat
1 219 59.999480 -40.002860 -67.999840 0.000000 0.000000 1.000000 1.000000 0.000000 0.000000 0.000000 1.000000 0.000000 3710.dat
1 219 -0.000500 -80.003480 -68.000160 0.000000 0.000000 1.000003 1.000000 0.000000 0.000000 0.000000 1.000003 0.000000 32028.dat
1 219 -0.000540 -40.003570 -67.999970 0.000000 0.000000 1.000003 1.000007 0.000000 0.000000 0.000000 1.000010 0.000000 32028.dat
1 219 -0.000520 -50.003480 -75.999910 1.000000 0.000000 0.000000 0.000000 0.000000 -1.000000 0.000000 1.000000 0.000000 2420.dat
1 219 59.999480 -40.002970 -75.999850 0.000000 0.000000 1.000000 1.000007 0.000000 0.000000 0.000000 1.000007 0.000000 3023.dat
1 219 39.999500 -40.002970 -75.999440 0.000000 0.000000 1.000000 1.000000 0.000000 0.000000 0.000000 1.000000 0.000000 3794b.dat
1 219 9.999470 -100.003500 -59.999910 -1.000000 0.000000 0.000000 0.000000 0.000000 1.000000 0.000000 1.000000 0.000000 15068.dat
1 219 39.999500 -70.003480 -67.999820 -1.000000 0.000000 0.000000 0.000000 0.000000 1.000000 0.000000 1.000000 0.000000 54200.dat
1 219 39.999500 -30.002860 -83.999760 0.000000 0.000000 1.000000 1.000007 0.000000 0.000000 0.000000 1.000007 0.000000 3023.dat
1 219 19.999550 -10.002900 -91.999820 1.000000 0.000000 0.000000 0.000000 0.000000 -1.000007 0.000000 1.000007 0.000000 25269.dat
1 219 39.999500 -20.002980 -91.999820 0.000000 0.000000 -1.000000 -1.000007 0.000000 0.000000 0.000000 1.000007 0.000000 25269.dat
1 219 59.999480 -10.002870 -75.999850 0.000000 0.000000 -1.000000 -1.000000 0.000000 0.000000 0.000000 1.000000 0.000000 25269.dat
1 219 -0.000520 -50.003480 -83.999910 0.000000 0.000000 -1.000000 -1.000000 0.000000 0.000000 0.000000 1.000000 0.000000 25269.dat
1 219 -18.000060 -100.003500 -0.000030 0.000000 1.000003 0.000000 0.000000 0.000000 -1.000000 -1.000003 0.000000 0.000000 3022.dat
1 219 -18.000060 -30.003570 -10.000060 0.000000 1.000003 0.000000 1.000000 0.000000 0.000000 0.000000 0.000000 -1.000003 3623.dat
1 219 -18.000060 -20.003570 10.000000 0.000000 1.000003 0.000000 1.000000 0.000000 0.000000 0.000000 0.000000 -1.000003 3023.dat
1 219 -18.001390 -100.001800 -40.000120 0.000000 1.000003 0.000000 1.000000 0.000000 0.000000 0.000000 0.000000 -1.000003 3022.dat
1 219 -26.000280 -90.003680 -20.000080 0.000000 1.000001 0.000000 0.000000 0.000000 -0.999998 -1.000003 0.000000 0.000000 3710.dat
1 219 -26.000160 -30.003380 -10.000060 0.000000 1.000003 0.000000 0.000000 0.000000 -1.000000 -1.000003 0.000000 0.000000 2420.dat
1 219 -25.999680 -50.003280 -50.000180 0.000000 1.000003 0.000000 0.000000 0.000000 -1.000000 -1.000003 0.000000 0.000000 3024.dat
1 219 -18.000060 -10.003560 10.000000 0.000000 1.000003 0.000000 0.000000 0.000000 -1.000000 -1.000003 0.000000 0.000000 54200.dat
1 219 -34.000180 -30.003380 -30.000120 0.000000 1.000003 0.000000 0.000000 0.000000 -1.000000 -1.000003 0.000000 0.000000 25269.dat
1 219 -33.999690 -50.003280 -50.000170 0.000000 1.000003 0.000000 -1.000000 0.000000 0.000000 0.000000 0.000000 1.000003 25269.dat
1 219 -34.000180 -50.003280 -10.000060 0.000000 1.000003 0.000000 1.000000 0.000000 0.000000 0.000000 0.000000 -1.000003 25269.dat
1 219 -34.000070 -70.003480 10.000050 0.000000 1.000003 0.000000 1.000000 0.000000 0.000000 0.000000 0.000000 -1.000003 2357.dat
1 219 -34.000080 -70.003480 -30.000120 0.000000 1.000003 0.000000 1.000000 0.000000 0.000000 0.000000 0.000000 -1.000003 2357.dat
1 219 -18.000100 -100.003400 0.000060 0.000000 1.000003 0.000000 0.000000 0.000000 1.000000 1.000003 0.000000 0.000000 15068.dat
1 219 -18.001410 -100.002200 -40.000120 0.000000 0.999982 0.000000 0.000000 0.000000 0.999979 1.000003 0.000000 0.000000 15068.dat
1 219 39.999850 -40.003480 28.000190 0.000000 0.000000 1.000000 -1.000000 0.000000 0.000000 0.000000 -1.000001 0.000000 3023.dat
1 219 19.999420 -10.003590 52.000310 1.000000 0.000000 0.000000 0.000000 0.000000 1.000000 0.000000 -1.000001 0.000000 6091.dat
1 219 19.999540 -70.003480 28.000310 1.000000 0.000000 0.000000 0.000000 0.000000 1.000000 0.000000 -1.000000 0.000000 2420.dat
1 219 -0.000490 -80.003480 28.000350 0.000000 0.000000 1.000003 -1.000000 0.000000 0.000000 0.000000 -1.000003 0.000000 32028.dat
1 219 -0.000710 -40.003570 28.000260 0.000000 0.000000 1.000003 -1.000000 0.000000 0.000000 0.000000 -1.000003 0.000000 32028.dat
1 219 -0.000540 -50.003480 36.000310 0.000001 0.000000 1.000000 -1.000000 0.000001 0.000001 -0.000001 -1.000000 0.000000 2420.dat
1 219 60.000010 -10.003590 36.000220 0.000000 0.000000 -1.000002 1.000000 0.000000 0.000000 0.000000 -1.000000 0.000000 25269.dat
1 219 60.000100 -40.003680 36.000090 0.000000 0.000000 -1.000000 0.999999 0.000000 0.000000 0.000000 -1.000000 0.000000 3023.dat
1 219 39.999850 -40.003480 36.000220 0.000000 0.000000 -1.000002 1.000000 0.000000 0.000000 0.000000 -1.000000 0.000000 3794b.dat
1 219 19.999440 -60.003480 28.000310 1.000000 0.000000 0.000000 0.000000 0.000000 1.000000 0.000000 -1.000000 0.000000 11477.dat
1 219 9.999470 -100.003500 20.000310 1.000000 0.000000 0.000000 0.000000 0.000000 1.000000 0.000000 -1.000000 0.000000 15068.dat
1 219 19.999470 -60.003480 -67.999940 -1.000000 0.000000 0.000000 0.000000 0.000000 1.000000 0.000000 1.000000 0.000000 11477.dat
1 219 39.999850 -30.003480 44.000220 0.000000 0.000000 1.000000 -1.000000 0.000000 0.000000 0.000000 -1.000000 0.000000 3023.dat
1 219 39.999780 -20.003480 52.000120 1.000000 0.000000 0.000000 0.000000 0.000000 1.000002 0.000000 -1.000002 0.000000 25269.dat
1 219 79.999680 -30.003480 36.000300 0.000000 0.000000 -1.000000 1.000000 0.000000 0.000000 0.000000 -1.000000 0.000000 25269.dat
1 219 -0.000530 -50.003480 44.000320 1.000000 0.000000 0.000000 0.000000 0.000000 1.000000 0.000000 -1.000000 0.000000 25269.dat
1 15 93.999610 -50.003480 -49.999920 0.000000 -1.000000 0.000000 0.000000 0.000000 1.000000 -1.000000 0.000000 0.000000 98138pb090.dat
1 15 93.999610 -50.003480 10.000100 0.000000 -1.000000 0.000000 0.000000 0.000000 1.000000 -1.000000 0.000000 0.000000 98138pb090.dat
1 219 59.999480 -50.002980 -75.999850 -1.000000 0.000000 0.000000 0.000000 0.000000 1.000000 0.000000 1.000000 0.000000 54200.dat
1 219 39.999470 -70.003480 28.000280 1.000000 0.000000 0.000000 0.000000 0.000000 1.000000 0.000000 -1.000000 0.000000 54200.dat
1 219 79.999680 -100.003500 20.000310 1.000000 0.000000 0.000000 0.000000 0.000000 1.000000 0.000000 -1.000000 0.000000 11477.dat
1 219 79.999680 -40.003480 28.000280 0.000000 0.000000 -1.000000 1.000000 0.000000 0.000000 0.000000 -1.000000 0.000000 3023.dat
1 219 60.000100 -50.003680 36.000090 1.000000 0.000000 0.000000 0.000000 0.000000 1.000000 0.000000 -1.000000 0.000000 54200.dat
1 89 49.999480 -108.003500 0.000270 0.000000 0.000000 1.000000 0.000000 1.000000 0.000000 -1.000000 0.000000 0.000000 3022.dat
1 219 29.999410 -116.003500 0.000270 -1.000003 0.000000 0.000000 0.000000 1.000000 0.000000 0.000000 0.000000 -1.000003 88930.dat
1 219 29.999390 -116.003500 -39.999820 1.000003 0.000000 0.000000 0.000000 1.000000 0.000000 0.000000 0.000000 1.000003 61068.dat
1 219 -0.000020 -116.003500 0.000000 0.000000 0.000000 1.000000 0.000000 1.000000 0.000000 -1.000000 0.000000 0.000000 99206.dat
1 89 -0.000030 -116.003500 -39.999980 0.000000 0.000000 1.000000 0.000000 1.000000 0.000000 -1.000000 0.000000 0.000000 99206.dat
1 89 39.999500 -116.003500 -49.999720 -1.000000 0.000000 0.000000 0.000000 1.000000 0.000000 0.000000 0.000000 -1.000000 3623.dat
1 89 39.999510 -116.003500 10.000310 -1.000000 0.000000 0.000000 0.000000 1.000000 0.000000 0.000000 0.000000 -1.000000 3623.dat
1 219 39.999420 -116.003500 -19.999740 -1.000003 0.000000 0.000000 0.000000 1.000000 0.000000 0.000000 0.000000 -1.000003 3021.dat
1 89 49.999450 -108.003500 -39.999970 0.000000 0.000000 1.000003 0.000000 1.000000 0.000000 -1.000003 0.000000 0.000000 3022.dat
1 219 79.999660 -100.003500 -59.999940 -1.000000 0.000000 -0.000001 -0.000001 0.000000 1.000000 0.000000 1.000000 0.000000 11477.dat
1 219 29.999630 -90.003480 -67.999940 -1.000000 0.000000 0.000000 0.000000 0.000000 1.000000 0.000000 1.000000 0.000000 3023.dat
1 219 79.999660 -90.003480 -67.999940 -1.000000 0.000000 0.000000 0.000000 0.000000 1.000000 0.000000 1.000000 0.000000 2420.dat
1 219 49.999580 -100.003500 -59.999910 -1.000000 0.000000 0.000000 0.000000 0.000000 1.000000 0.000000 1.000000 0.000000 15068.dat
1 219 79.999470 -40.002860 -67.999840 0.000000 0.000000 -1.000000 -1.000000 0.000000 0.000000 0.000000 1.000000 0.000000 3023.dat
1 219 79.999470 -70.002880 -75.999850 -1.000000 0.000000 0.000000 0.000000 0.000000 1.000000 0.000000 1.000000 0.000000 2420.dat
1 219 79.999470 -30.002860 -75.999780 1.000000 0.000000 0.000000 0.000000 0.000000 -1.000000 0.000000 1.000000 0.000000 25269.dat
1 219 -0.000550 -20.003390 -59.999720 1.000000 0.000000 0.000000 0.000000 0.000000 -1.000000 0.000000 1.000000 0.000000 29120.dat
1 219 -18.000150 -30.003380 -50.000290 0.000000 1.000003 0.000000 1.000000 0.000000 0.000000 0.000000 0.000000 -1.000003 3623.dat
1 219 -18.000150 -20.003390 -30.000120 0.000000 1.000003 0.000000 1.000000 0.000000 0.000000 0.000000 0.000000 -1.000003 3023.dat
1 219 -26.000070 -30.003570 10.000000 0.000000 1.000003 0.000000 -1.000000 0.000000 0.000000 0.000000 0.000000 1.000003 25269.dat
1 219 -18.000150 -30.003380 -50.000290 0.000000 1.000003 0.000000 0.000000 0.000000 -1.000000 -1.000003 0.000000 0.000000 54200.dat
1 219 -26.000070 -10.003560 -10.000060 0.000000 1.000003 0.000000 1.000000 0.000000 0.000000 0.000000 0.000000 -1.000003 25269.dat
1 219 -26.000160 -10.003300 -50.000290 0.000000 1.000003 0.000000 -1.000000 0.000000 0.000000 0.000000 0.000000 1.000003 25269.dat
1 219 59.999600 -40.003480 28.000280 0.000000 0.000000 -1.000000 1.000000 0.000000 0.000000 0.000000 -1.000000 0.000000 3710.dat
1 219 19.999420 -10.003590 52.000310 0.000000 0.000000 1.000000 -1.000000 0.000000 0.000000 0.000000 -1.000000 0.000000 25269.dat
1 219 29.999480 -90.003480 28.000310 -1.000000 0.000000 0.000000 0.000000 0.000000 -1.000000 0.000000 -1.000000 0.000000 3023.dat
1 219 79.999680 -90.003480 28.000280 0.000001 0.000000 -1.000000 1.000000 0.000000 0.000001 0.000000 -1.000000 0.000000 2420.dat
1 219 49.999580 -100.003500 20.000310 1.000000 0.000000 0.000000 0.000000 0.000000 1.000000 0.000000 -1.000000 0.000000 15068.dat
1 219 79.999680 -70.003480 36.000300 0.000000 0.000000 -1.000000 1.000000 0.000000 0.000000 0.000000 -1.000000 0.000000 2420.dat
1 219 -0.000730 -20.003480 20.000180 -1.000003 0.000000 0.000001 -0.000001 0.000000 -1.000000 0.000000 -1.000003 0.000000 29120.dat
1 89 85.999570 -80.003480 -19.999910 0.000000 -1.000000 0.000000 0.000000 0.000000 1.000000 -1.000000 0.000000 0.000000 87079.dat
