0 Untitled Model
0 Name:  longstraightkahkulsuz
0 Author:  
0 CustomBrick
0 FlexibleBrickControlPointUnitLength -1
0 FlexibleBrickLockedControlPoint 
1 89 0.000000 -120.000000 -70.000000 1.000000 0.000000 0.000000 0.000000 1.000000 0.000000 0.000000 0.000000 1.000000 3003.dat
1 89 0.000000 -96.000020 -70.000010 1.000000 0.000000 0.000000 0.000000 1.000000 0.000000 0.000000 0.000000 1.000000 4032a.dat
1 89 29.999990 -120.000000 -70.000000 0.000000 0.000000 -1.000000 0.000000 1.000000 0.000000 1.000000 0.000000 0.000000 22885.dat
1 89 0.000000 -64.000020 -70.000010 1.000000 0.000000 0.000000 0.000000 1.000000 0.000000 0.000000 0.000000 1.000000 3003.dat
1 89 0.000000 -88.000020 -70.000010 1.000000 0.000000 0.000000 0.000000 1.000000 0.000000 0.000000 0.000000 1.000000 3003.dat
1 89 19.999990 -120.000000 -40.000000 -1.000000 0.000000 0.000000 0.000000 1.000000 0.000000 0.000000 0.000000 -1.000000 22885.dat
1 89 0.000000 -80.000020 -40.000010 -1.000000 0.000000 0.000000 0.000000 1.000000 0.000000 0.000000 0.000000 -1.000000 22885.dat
1 89 -30.000000 -80.000020 -50.000010 0.000000 0.000000 1.000000 0.000000 1.000000 0.000000 -1.000000 0.000000 0.000000 22885.dat
1 89 -29.999980 -120.000000 -70.000000 0.000000 0.000000 1.000000 0.000000 1.000000 0.000000 -1.000000 0.000000 0.000000 22885.dat
1 0 -30.000000 -70.000020 -134.000000 1.000000 0.000000 0.000000 0.000000 0.000000 -1.000000 0.000000 1.000000 0.000000 98138.dat
1 0 30.000010 -70.000010 -134.000000 1.000000 0.000000 0.000000 0.000000 0.000000 -1.000000 0.000000 1.000000 0.000000 98138.dat
1 89 -0.000030 -50.000000 -126.000000 1.000000 0.000000 0.000000 0.000000 0.000000 -1.000000 0.000000 1.000000 0.000000 2431.dat
1 89 -0.000030 -70.000000 -126.000000 -1.000000 0.000000 0.000000 0.000000 0.000000 1.000000 0.000000 1.000000 0.000000 92593.dat
1 89 -0.000030 -60.000010 -118.000000 -1.000000 0.000000 0.000000 0.000000 0.000000 1.000000 0.000000 1.000000 0.000000 3020.dat
1 89 29.999980 -80.000020 -50.000000 0.000000 0.000000 -1.000000 0.000000 1.000000 0.000000 1.000000 0.000000 0.000000 22885.dat
1 89 -20.000010 -120.000000 -40.000010 -1.000000 0.000000 0.000000 0.000000 1.000000 0.000000 0.000000 0.000000 -1.000000 22885.dat
1 89 -29.999980 -80.000020 -90.000000 0.000000 0.000000 1.000000 0.000000 1.000000 0.000000 -1.000000 0.000000 0.000000 22885.dat
1 89 -0.000030 -80.000010 -100.000000 1.000000 0.000000 0.000000 0.000000 1.000000 0.000000 0.000000 0.000000 1.000000 22885.dat
1 89 -20.000040 -120.000000 -100.000000 1.000000 0.000000 0.000000 0.000000 1.000000 0.000000 0.000000 0.000000 1.000000 22885.dat
1 89 19.999960 -119.875000 -99.999980 1.000000 0.000000 0.000000 0.000000 1.000000 0.000000 0.000000 0.000000 1.000000 22885.dat
1 89 29.999990 -80.000020 -90.000000 0.000000 0.000000 -1.000000 0.000000 1.000000 0.000000 1.000000 0.000000 0.000000 22885.dat
1 219 19.999960 -119.875000 -90.000000 0.000000 0.000000 -1.000000 0.000000 1.000000 0.000000 1.000000 0.000000 0.000000 15068.dat
1 219 19.999990 -120.000000 -50.000000 0.000000 0.000000 -1.000000 0.000000 1.000000 0.000000 1.000000 0.000000 0.000000 15068.dat
1 219 -19.999980 -120.000000 -50.000000 0.000000 0.000000 1.000000 0.000000 1.000000 0.000000 -1.000000 0.000000 0.000000 15068.dat
1 219 -20.000040 -120.000000 -90.000020 0.000000 0.000000 1.000000 0.000000 1.000000 0.000000 -1.000000 0.000000 0.000000 15068.dat
1 219 -0.000030 -127.875000 -70.000000 0.000000 0.000000 -1.000000 0.000000 1.000000 0.000000 1.000000 0.000000 0.000000 3020.dat
1 219 -48.000020 -50.000020 -40.000010 0.000000 1.000000 0.000000 1.000000 0.000000 0.000000 0.000000 0.000000 -1.000000 2420.dat
1 219 -48.000000 -50.000020 -89.999980 0.000000 1.000000 0.000000 0.000000 0.000000 -1.000000 -1.000000 0.000000 0.000000 3023b.dat
1 219 -48.000000 -70.000050 -40.000000 0.000001 1.000000 0.000000 0.000000 0.000000 -1.000000 -1.000000 0.000001 0.000000 2420.dat
1 219 -47.999990 -70.000020 -100.000000 0.000000 1.000000 0.000000 -1.000000 0.000000 0.000000 0.000000 0.000001 1.000000 2420.dat
1 219 -56.000010 -60.000060 -40.000000 0.000000 1.000000 0.000000 1.000000 0.000001 0.000000 0.000000 0.000000 -1.000000 3023b.dat
1 219 -56.000000 -30.000020 -40.000000 0.000000 1.000000 0.000000 0.000000 0.000000 -1.000000 -1.000000 0.000000 0.000000 25269.dat
1 219 -56.000010 -50.000010 -60.000010 0.000000 1.000000 0.000000 -1.000000 0.000000 0.000000 0.000000 0.000000 1.000000 3024.dat
1 219 -39.999990 -40.000020 -99.999980 0.000000 1.000000 0.000000 0.000000 0.000000 -1.000000 -1.000000 0.000000 0.000000 11477.dat
1 219 -56.000000 -70.000020 -100.000000 0.000000 1.000000 0.000000 -1.000000 0.000000 0.000000 0.000000 0.000000 1.000000 3024.dat
1 219 -48.000000 -50.000020 -80.000000 0.000000 1.000000 0.000000 0.000000 0.000000 -1.000000 -1.000000 0.000000 0.000000 54200.dat
1 219 48.000060 -50.000380 -40.000300 0.000000 -1.000000 -0.000001 0.000000 -0.000001 1.000002 -1.000000 0.000000 0.000000 2420.dat
1 219 56.000020 -60.000420 -39.999920 0.000000 -1.000000 0.000000 -1.000002 0.000000 0.000000 0.000000 0.000000 -1.000000 3023b.dat
1 219 56.000020 -50.000340 -59.999880 0.000000 -1.000000 0.000000 1.000002 0.000000 0.000000 0.000000 0.000000 1.000000 3024.dat
1 219 48.000000 -50.000350 -90.000020 0.000000 -1.000000 0.000000 0.000000 0.000000 -1.000002 1.000000 0.000000 0.000000 3023b.dat
1 219 55.999980 -70.000400 -99.999980 0.000000 -1.000000 0.000000 1.000002 0.000000 0.000000 0.000000 0.000000 1.000000 3024.dat
1 219 47.999960 -70.000450 -100.000000 0.000000 -1.000001 0.000000 0.000000 0.000000 -1.000002 1.000000 0.000000 0.000000 2420.dat
1 219 47.999990 -70.000020 -40.000000 0.000000 -1.000000 0.000000 -1.000000 0.000000 0.000000 0.000000 0.000000 -1.000000 2420.dat
1 219 40.000050 -40.000300 -99.999950 0.000000 -1.000000 0.000000 0.000000 0.000000 -1.000002 1.000000 0.000000 0.000000 11477.dat
1 219 48.000060 -50.000350 -79.999940 0.000000 -1.000000 0.000000 0.000000 0.000000 -1.000002 1.000000 0.000000 0.000000 54200.dat
1 219 -39.999990 -100.000000 -40.000000 0.000000 1.000000 0.000000 0.000000 0.000000 1.000000 1.000000 0.000000 0.000000 11477.dat
1 219 -39.999980 -100.000000 -100.000000 0.000000 1.000000 0.000000 0.000000 0.000000 1.000000 1.000000 0.000000 0.000000 11477.dat
1 219 -63.999980 -90.000020 -60.000000 0.000000 1.000000 0.000000 0.000000 0.000000 1.000000 1.000000 0.000000 0.000000 50950.dat
1 219 -63.999980 -90.000020 -80.000010 0.000000 1.000000 0.000000 0.000000 0.000000 1.000000 1.000000 0.000000 0.000000 50950.dat
1 219 -64.000000 -50.000000 -60.000010 0.000000 1.000000 0.000000 1.000000 0.000000 0.000000 0.000000 0.000000 -1.000000 25269.dat
1 219 39.999970 -100.000100 -100.000000 0.000000 -1.000000 0.000000 0.000000 0.000000 1.000000 -1.000000 0.000000 0.000000 11477.dat
1 219 39.999980 -100.000000 -40.000000 0.000000 -1.000000 0.000000 0.000000 0.000000 1.000000 -1.000000 0.000000 0.000000 11477.dat
1 219 64.000000 -90.000000 -80.000000 0.000000 -1.000000 0.000000 0.000000 0.000000 1.000000 -1.000000 0.000000 0.000000 50950.dat
1 219 63.999980 -90.000000 -60.000000 0.000000 -1.000000 0.000000 0.000000 0.000000 1.000000 -1.000000 0.000000 0.000000 50950.dat
1 219 56.000040 -30.000330 -40.000300 0.000000 -1.000000 0.000000 1.000000 0.000000 0.000000 0.000000 0.000000 1.000000 25269.dat
1 219 64.000020 -50.000350 -59.999910 0.000000 -1.000000 -0.000001 -0.000001 0.000001 -1.000000 1.000000 0.000000 -0.000001 25269.dat
1 219 19.999980 -40.000020 -22.000000 0.000000 0.000000 -1.000000 1.000000 0.000000 0.000000 0.000000 -1.000000 0.000000 3020.dat
1 219 -20.000010 -40.000010 -22.000010 0.000000 0.000000 -1.000000 1.000000 0.000000 0.000000 0.000000 -1.000000 0.000000 3020.dat
1 219 -0.000010 -100.000000 -22.000010 1.000000 0.000000 0.000000 0.000000 0.000000 1.000000 0.000000 -1.000000 0.000000 3020.dat
1 219 -0.000010 -40.000010 -14.000020 1.000000 0.000000 0.000000 0.000000 0.000000 1.000000 0.000000 -1.000000 0.000000 3020.dat
1 219 29.999980 -70.000020 -14.000000 1.000000 0.000000 0.000000 0.000000 0.000000 1.000000 0.000000 -1.000000 0.000000 3024.dat
1 219 -30.000010 -70.000010 -14.000020 1.000000 0.000000 0.000000 0.000000 0.000000 1.000000 0.000000 -1.000000 0.000000 3024.dat
1 219 29.999990 -100.000000 -22.000000 1.000000 0.000000 0.000000 0.000000 0.000000 1.000000 0.000000 -1.000000 0.000000 11477.dat
1 219 29.999990 -90.000020 -14.000000 1.000000 0.000000 0.000000 0.000000 0.000000 1.000000 0.000000 -1.000000 0.000000 3024.dat
1 219 -30.000010 -100.000000 -22.000010 1.000000 0.000000 0.000000 0.000000 0.000000 1.000000 0.000000 -1.000000 0.000000 11477.dat
1 219 -30.000010 -90.000020 -14.000000 1.000000 0.000000 0.000000 0.000000 0.000000 1.000000 0.000000 -1.000000 0.000000 3024.dat
1 219 9.999990 -90.000020 1.999990 1.000000 0.000000 0.000000 0.000000 0.000000 1.000000 0.000000 -1.000000 0.000000 50950.dat
1 219 -10.000010 -90.000020 1.999990 1.000000 0.000000 0.000000 0.000000 0.000000 1.000000 0.000000 -1.000000 0.000000 50950.dat
1 219 -0.000010 -50.000000 -6.000010 1.000000 0.000001 0.000000 0.000000 0.000000 1.000000 0.000001 -1.000000 0.000000 3023b.dat
1 219 0.000000 -20.000020 -22.000020 -1.000000 0.000000 -0.000001 0.000001 0.000000 -1.000000 0.000000 -1.000000 0.000000 15068.dat
1 219 29.999980 -30.000020 -6.000020 0.000000 0.000001 -1.000000 1.000000 0.000000 0.000000 0.000000 -1.000000 -0.000001 25269.dat
1 219 -30.000020 -30.000020 -6.000020 -1.000000 0.000000 -0.000001 0.000001 0.000001 -1.000000 0.000000 -1.000000 0.000000 25269.dat
1 219 9.999980 -50.000010 1.999990 0.000000 0.000001 -1.000000 1.000000 0.000000 0.000000 0.000000 -1.000000 -0.000001 25269.dat
1 219 -10.000020 -50.000010 1.999990 -1.000000 0.000000 -0.000001 0.000001 0.000001 -1.000000 0.000000 -1.000000 0.000000 25269.dat
1 89 -0.000040 -99.875040 -118.000000 1.000000 0.000000 0.000000 0.000000 0.000000 -1.000000 0.000000 1.000000 0.000000 87079.dat
