0 Untitled Model
0 Name:  ponny_tail_female_Copy
0 Author:  
0 CustomBrick
0 FlexibleBrickControlPointUnitLength -1
0 FlexibleBrickLockedControlPoint 
0 NumOfBricks:  78
1 219 1.999930 -40.000020 80.000240 0.000000 0.000000 1.000005 0.000000 1.000000 0.000000 -1.000005 0.000000 0.000000 22885.dat
1 89 32.000140 -40.000020 90.000240 -1.000005 0.000000 0.000000 0.000000 1.000000 0.000000 0.000000 0.000000 -1.000005 22885.dat
1 89 62.000260 -40.000020 80.000170 0.000000 0.000000 -1.000005 0.000000 1.000000 0.000000 1.000005 0.000000 0.000000 22885.dat
1 89 32.000120 -24.000020 60.000040 1.000005 0.000000 0.000000 0.000000 1.000000 0.000000 0.000000 0.000000 1.000005 3003.dat
1 89 1.999970 -40.000000 40.000010 0.000000 0.000000 1.000005 0.000000 1.000000 0.000000 -1.000005 0.000000 0.000000 22885.dat
1 89 62.000220 -39.999990 39.999950 0.000000 0.000000 -1.000005 0.000000 1.000000 0.000000 1.000005 0.000000 0.000000 22885.dat
1 89 32.000130 -40.000010 29.999940 1.000005 0.000000 0.000000 0.000000 1.000000 0.000000 0.000000 0.000000 1.000005 22885.dat
1 89 32.000130 -40.000010 11.999820 0.000000 0.000000 -1.000005 -1.000000 0.000000 0.000000 0.000000 1.000005 0.000000 3020.dat
1 89 32.000120 -10.000010 3.999800 1.000005 0.000000 0.000000 0.000000 0.000000 -1.000000 0.000000 1.000005 0.000000 2431.dat
1 89 80.000300 -19.999970 70.000080 0.000000 -1.000000 0.000000 -1.000000 0.000000 0.000000 0.000000 0.000000 -1.000000 85984.dat
1 89 32.000120 -30.000020 3.999800 -1.000005 0.000000 0.000000 0.000000 0.000000 1.000000 0.000000 1.000005 0.000000 92593.dat
1 0 62.000060 -30.000020 -4.000140 -1.000000 0.000000 0.000000 0.000000 0.000000 1.000000 0.000000 1.000000 0.000000 98138.dat
1 0 1.999980 -30.000010 -4.000280 -1.000005 0.000000 0.000000 0.000000 0.000000 1.000000 0.000000 1.000005 0.000000 98138.dat
1 89 32.000120 -48.000020 60.000100 1.000005 0.000000 0.000000 0.000000 1.000000 0.000000 0.000000 0.000000 1.000005 3003.dat
1 89 11.999980 -79.999980 90.000240 -1.000005 0.000000 0.000000 0.000000 1.000000 0.000000 0.000000 0.000000 -1.000005 22885.dat
1 219 1.999970 -80.000010 60.000100 0.000000 0.000000 1.000005 0.000000 1.000000 0.000000 -1.000005 0.000000 0.000000 22885.dat
1 219 52.000320 -79.999980 90.000240 -1.000005 0.000000 0.000000 0.000000 1.000000 0.000000 0.000000 0.000000 -1.000005 22885.dat
1 89 32.000120 -60.000000 3.999800 -1.000005 0.000000 0.000000 0.000000 0.000000 1.000000 0.000000 1.000005 0.000000 87079.dat
1 219 62.000240 -79.999980 60.000030 0.000000 0.000000 -1.000005 0.000000 1.000000 0.000000 1.000005 0.000000 0.000000 22885.dat
1 89 11.999980 -79.999980 29.999940 1.000005 0.000000 0.000000 0.000000 1.000000 0.000000 0.000000 0.000000 1.000005 22885.dat
1 89 52.000300 -79.999980 29.999940 1.000005 0.000000 0.000000 0.000000 1.000000 0.000000 0.000000 0.000000 1.000005 22885.dat
1 89 32.000120 -56.000020 60.000100 1.000005 0.000000 0.000000 0.000000 1.000000 0.000000 0.000000 0.000000 1.000005 4032a.dat
1 89 32.000120 -79.999980 60.000030 1.000005 0.000000 0.000000 0.000000 1.000000 0.000000 0.000000 0.000000 1.000005 3003.dat
1 219 21.999740 -87.999950 49.999940 1.000000 0.000000 0.000000 0.000000 1.000000 0.000000 0.000000 0.000000 1.000000 2420.dat
1 219 41.999770 -87.999950 89.999950 -1.000000 0.000000 0.000000 0.000000 1.000000 0.000000 0.000000 0.000000 -1.000000 2420.dat
1 219 51.999840 -79.999950 59.999920 0.000000 0.000000 -1.000000 0.000000 1.000000 0.000000 1.000000 0.000000 0.000000 15068.dat
1 219 11.999720 -79.999950 59.999980 0.000000 0.000000 1.000000 0.000000 1.000000 0.000000 -1.000000 0.000000 0.000000 15068.dat
1 219 31.999780 -79.999950 89.999950 0.000000 0.000000 -1.000000 0.000000 1.000000 0.000000 1.000000 0.000000 0.000000 93273.dat
1 89 1.999980 -40.000000 11.999820 0.000000 0.000000 -1.000005 -1.000000 0.000000 0.000000 0.000000 1.000005 0.000000 3710.dat
1 89 62.000240 -20.000010 11.999760 0.000000 0.000001 -1.000005 -1.000000 0.000000 0.000000 0.000000 1.000005 0.000000 3023b.dat
1 219 62.000220 -60.000000 11.999750 0.000000 0.000000 -1.000005 -1.000000 0.000000 0.000000 0.000000 1.000005 -0.000001 99780.dat
1 219 11.999720 -87.999980 19.999990 0.000000 0.000000 1.000000 0.000000 1.000000 0.000000 -1.000000 0.000000 0.000000 26601.dat
1 219 51.999820 -87.999950 19.999990 1.000000 0.000000 0.000000 0.000000 1.000000 0.000000 0.000000 0.000000 1.000000 3022.dat
1 219 41.999780 -95.999950 29.999920 -1.000000 0.000000 0.000000 0.000000 1.000000 0.000000 0.000000 0.000000 -1.000000 2420.dat
1 219 51.999840 -87.999950 9.999900 0.000000 0.000000 -1.000000 0.000000 1.000000 0.000000 1.000000 0.000000 0.000000 11477.dat
1 219 21.999740 -87.999980 9.999900 0.000000 0.000000 1.000000 0.000000 1.000000 0.000000 -1.000000 0.000000 0.000000 54200.dat
1 89 -16.000010 -39.999990 60.000000 0.000000 1.000000 0.000000 0.000000 0.000000 1.000000 1.000000 0.000000 0.000000 3020.dat
1 219 -16.000020 -70.000000 70.000000 0.000000 1.000000 0.000000 -1.000000 0.000000 0.000000 0.000000 0.000000 1.000000 3024.dat
1 89 -16.000020 -10.000000 70.000000 0.000000 1.000000 0.000000 -1.000000 0.000000 0.000000 0.000000 0.000000 1.000000 3024.dat
1 89 -16.000010 -10.000000 40.000020 0.000000 1.000000 0.000000 0.000000 0.000000 1.000000 1.000000 0.000000 0.000000 3069a.dat
1 89 -16.000020 -19.999990 70.000000 0.000000 1.000000 0.000000 1.000000 0.000000 0.000000 0.000000 0.000000 -1.000000 85984.dat
1 219 -24.000010 -49.999990 70.000000 0.000000 1.000000 0.000000 -1.000000 0.000000 0.000000 0.000000 0.000000 1.000000 3024.dat
1 219 -8.000020 -60.000000 30.000000 0.000000 1.000000 0.000000 -0.000001 0.000000 1.000000 1.000000 0.000000 0.000001 11477.dat
1 219 -8.000010 -19.999980 90.000010 0.000000 1.000000 0.000000 0.000001 0.000000 -1.000000 -1.000000 0.000000 -0.000001 11477.dat
1 219 -16.000020 -50.000000 80.000000 0.000000 1.000000 0.000000 1.000000 0.000001 0.000001 0.000001 0.000000 -1.000000 11477.dat
1 219 -8.000020 -70.000010 80.000010 -0.000001 1.000000 0.000000 1.000000 0.000001 0.000001 0.000001 0.000000 -1.000000 11477.dat
1 219 -8.000020 -70.000000 50.000000 0.000000 1.000000 0.000000 -1.000000 0.000000 0.000000 0.000000 0.000000 1.000000 54200.dat
1 219 -16.000020 -50.000000 50.000000 0.000000 1.000000 0.000000 -1.000000 0.000000 0.000000 0.000000 0.000000 1.000000 54200.dat
1 219 -16.000020 -30.000000 30.000000 0.000000 1.000000 0.000000 0.000000 0.000000 -1.000000 -1.000000 0.000000 0.000000 54200.dat
1 219 80.000300 -49.999980 49.999980 0.000000 -1.000000 0.000000 0.000000 0.000000 1.000000 -1.000000 0.000000 0.000000 2420.dat
1 89 80.000260 -29.999990 29.999900 0.000000 -1.000000 0.000000 1.000000 0.000000 0.000000 0.000000 0.000000 1.000000 3070b.dat
1 89 80.000270 -9.999990 39.999900 0.000000 -1.000000 0.000000 0.000000 0.000000 -1.000000 1.000000 0.000000 0.000000 3069a.dat
1 89 80.000300 -10.000010 70.000110 0.000000 -1.000000 0.000000 1.000000 0.000000 0.000000 0.000000 0.000000 1.000000 3024.dat
1 219 80.000300 -69.999980 59.999980 0.000000 -1.000000 0.000000 0.000000 0.000000 -1.000000 1.000000 0.000000 0.000000 3023a.dat
1 219 80.000300 -39.999980 80.000080 0.000000 -1.000000 0.000000 1.000000 0.000000 0.000000 0.000000 0.000000 1.000000 3022.dat
1 219 72.000300 -19.999970 90.000080 0.000000 -1.000000 0.000000 0.000000 0.000000 -1.000000 1.000000 0.000000 0.000000 11477.dat
1 219 72.000300 -69.999980 59.999980 0.000000 -1.000000 0.000000 -1.000000 0.000000 0.000000 0.000000 0.000000 -1.000000 93273.dat
1 219 84.000300 -39.999990 9.999760 0.000000 -1.000000 0.000000 1.000000 0.000000 0.000000 0.000000 0.000000 1.000000 3023a.dat
1 219 84.000450 -30.000000 9.999710 0.000000 -1.000000 0.000000 0.000000 0.000000 -1.000000 1.000000 0.000000 0.000000 54200.dat
1 219 76.000270 -60.000000 9.999760 0.000000 -1.000000 0.000000 0.000000 0.000000 1.000000 -1.000000 0.000000 0.000000 11477.dat
1 219 80.000320 -49.999980 59.999980 0.000000 -1.000000 0.000000 -1.000000 0.000000 0.000000 0.000000 0.000000 -1.000000 93273.dat
1 219 52.000380 -39.999980 108.000300 0.000000 0.000000 1.000000 -1.000000 0.000000 0.000000 0.000000 -1.000000 0.000000 3020.dat
1 219 12.000040 -39.999980 108.000300 0.000000 0.000000 1.000000 -1.000000 0.000000 0.000000 0.000000 -1.000000 0.000000 3020.dat
1 219 32.000380 -39.999980 116.000300 1.000000 0.000000 0.000000 0.000000 0.000000 1.000000 0.000000 -1.000000 0.000000 3020.dat
1 219 32.000370 -69.999980 116.000300 1.000000 0.000000 0.000000 0.000000 0.000000 1.000000 0.000000 -1.000000 0.000000 3023a.dat
1 219 52.000380 -19.999980 108.000300 -1.000000 0.000000 0.000000 0.000000 0.000000 -1.000000 0.000000 -1.000000 0.000000 15068.dat
1 219 12.000380 -19.999980 108.000300 -1.000000 0.000000 0.000000 0.000000 0.000000 -1.000000 0.000000 -1.000000 0.000000 15068.dat
1 219 62.000380 -59.999980 108.000300 1.000000 0.000000 0.000000 0.000000 0.000000 1.000000 0.000000 -1.000000 0.000000 11477.dat
1 219 2.000030 -59.999980 108.000300 1.000000 0.000000 0.000000 0.000000 0.000000 1.000000 0.000000 -1.000000 0.000000 11477.dat
1 219 32.000380 -59.999980 124.000300 0.000000 0.000000 1.000000 -1.000000 0.000000 0.000000 0.000000 -1.000000 0.000000 3022.dat
1 219 32.000410 -40.000000 132.000300 -0.000001 0.000000 1.000000 -1.000001 0.000000 -0.000001 0.000000 -1.000001 0.000000 3020.dat
1 219 32.000400 -39.999980 140.000200 -1.000000 0.000000 -0.000001 0.000001 0.000000 -1.000000 0.000000 -1.000000 0.000000 3022.dat
1 219 22.000400 -70.000060 140.000200 -1.000000 0.000000 -0.000001 0.000001 0.000000 -1.000001 0.000000 -1.000001 0.000000 3024.dat
1 219 22.000430 -49.999990 140.000300 1.000000 0.000000 0.000001 -0.000001 0.000000 1.000001 0.000000 -1.000001 0.000000 54200.dat
1 219 22.000520 -9.999880 156.000100 -1.000000 0.000000 -0.000001 0.000001 0.000000 -1.000000 0.000000 -1.000000 0.000000 50950.dat
1 219 42.000380 -60.000030 132.000200 1.000000 0.000000 0.000001 -0.000001 0.000000 1.000001 0.000000 -1.000001 0.000000 11477.dat
1 219 42.000440 -30.000010 148.000200 -1.000000 0.000000 -0.000001 0.000001 0.000000 -1.000001 0.000000 -1.000001 0.000000 3024.dat
1 219 42.000480 10.000050 148.000300 -1.000000 0.000000 -0.000001 0.000001 0.000000 -1.000001 0.000000 -1.000001 0.000000 50950.dat
