0 Untitled Model
0 Name:  french_crop_clean_male
0 Author:  
0 CustomBrick
0 FlexibleBrickControlPointUnitLength -1
0 FlexibleBrickLockedControlPoint 
1 89 -29.999990 -88.000000 -40.000000 0.000000 0.000000 1.000000 0.000000 1.000000 0.000000 -1.000000 0.000000 0.000000 22885.dat
1 89 19.999980 -88.000000 -69.999980 1.000000 0.000000 0.000000 0.000000 1.000000 0.000000 0.000000 0.000000 1.000000 22885.dat
1 89 -20.000000 -88.000000 -70.000000 1.000000 0.000000 0.000000 0.000000 1.000000 0.000000 0.000000 0.000000 1.000000 22885.dat
1 89 0.000010 -128.000000 -70.000010 1.000000 0.000000 0.000000 0.000000 1.000000 0.000000 0.000000 0.000000 1.000000 22885.dat
1 89 30.000000 -88.000000 -40.000000 0.000001 0.000000 -1.000000 0.000000 1.000000 0.000000 1.000000 0.000000 0.000001 22885.dat
1 89 29.999980 -128.000000 -60.000000 0.000001 0.000000 -1.000000 0.000000 1.000000 0.000000 1.000000 0.000000 0.000001 22885.dat
1 89 30.000020 -128.000000 -20.000000 0.000001 0.000000 -1.000000 0.000000 1.000000 0.000000 1.000000 0.000000 0.000001 22885.dat
1 89 -29.999980 -128.000000 -20.000010 0.000000 0.000000 1.000000 0.000000 1.000000 0.000000 -1.000000 0.000000 0.000000 22885.dat
1 89 20.000030 -88.000000 -9.999980 -1.000000 0.000000 -0.000001 0.000000 1.000000 0.000000 0.000001 0.000000 -1.000000 22885.dat
1 89 -19.999980 -88.000000 -10.000010 -1.000000 0.000000 -0.000001 0.000000 1.000000 0.000000 0.000001 0.000000 -1.000000 22885.dat
1 89 -29.999990 -128.000000 -60.000000 0.000000 0.000000 1.000000 0.000000 1.000000 0.000000 -1.000000 0.000000 0.000000 22885.dat
1 89 0.000040 -120.000000 -10.000380 1.000000 0.000000 0.000001 0.000000 1.000000 0.000000 -0.000001 0.000000 1.000000 3023.dat
1 89 0.000010 -128.000000 -10.000410 0.999999 0.000000 0.000001 0.000000 1.000000 0.000000 -0.000001 0.000000 0.999999 3023.dat
1 89 0.000020 -112.000000 -10.000010 1.000000 0.000000 0.000001 0.000000 1.000000 0.000000 -0.000001 0.000000 1.000000 3004.dat
1 89 0.284840 -117.760200 -94.838090 -1.000000 0.000000 -0.000637 -0.000637 0.000000 1.000000 0.000000 1.000000 0.000000 99206.dat
1 89 0.272110 -97.760100 -94.838080 -1.000000 0.000000 -0.000637 -0.000637 0.000000 1.000000 0.000000 1.000000 0.000000 2431.dat
1 89 30.265720 -87.741000 -86.838040 -0.000637 0.000000 0.999998 1.000000 0.000000 0.000637 0.000000 1.000000 0.000000 3710.dat
1 89 -29.734290 -87.779210 -86.838020 -0.000637 0.000000 1.000000 1.000000 0.000000 0.000637 0.000000 1.000000 0.000000 3710.dat
1 89 30.259360 -77.741000 -94.838050 -0.999998 0.000000 -0.000637 -0.000637 0.000000 1.000000 0.000000 1.000000 0.000000 3024.dat
1 89 30.284810 -117.741200 -94.838080 -0.999998 0.000000 -0.000637 -0.000637 0.000000 1.000000 0.000000 1.000000 0.000000 3024.dat
1 89 -29.740680 -77.779300 -94.838090 -0.999999 0.000000 -0.000637 -0.000637 0.000000 1.000000 0.000000 1.000000 0.000000 3024.dat
1 89 -29.715220 -117.779300 -94.838090 -0.999999 0.000000 -0.000637 -0.000637 0.000000 1.000000 0.000000 1.000000 0.000000 3024.dat
1 15 30.259360 -77.740910 -102.838100 -0.999998 0.000000 -0.000637 -0.000637 0.000000 1.000000 0.000000 1.000000 0.000000 98138p2j.dat
1 15 -29.740680 -77.779300 -102.838100 -0.999998 0.000000 -0.000637 -0.000637 0.000000 1.000000 0.000000 1.000000 0.000000 98138p2j.dat
1 89 0.252950 -67.760100 -86.838080 -0.999998 0.000000 -0.000637 -0.000637 0.000000 1.000000 0.000000 1.000000 0.000000 3022.dat
1 89 0.246620 -57.760200 -94.838100 -0.999998 0.000000 -0.000637 -0.000637 0.000000 1.000000 0.000000 1.000000 0.000000 2431.dat
1 89 0.259320 -77.760100 -94.838090 -0.999998 0.000000 -0.000637 -0.000637 0.000000 1.000000 0.000000 1.000000 0.000000 3069b.dat
1 219 -29.715160 -117.779400 -102.838100 -0.999998 0.000000 -0.000637 -0.000637 0.000000 1.000000 0.000000 1.000000 0.000000 3024.dat
1 219 -9.715210 -117.766700 -102.838100 0.999998 0.000000 0.000637 0.000637 0.000000 -1.000000 0.000000 1.000000 0.000000 25269.dat
1 219 10.284850 -117.753900 -102.838100 0.999998 0.000000 0.000637 0.000637 0.000000 -1.000000 0.000000 1.000000 0.000000 25269.dat
1 219 30.284840 -117.741500 -102.838200 -0.000637 0.000000 0.999999 1.000000 0.000000 0.000637 0.000000 1.000000 0.000000 25269.dat
1 219 47.999980 -78.000000 -40.000020 0.000000 -1.000000 0.000000 0.000000 0.000000 -1.000000 1.000000 0.000001 0.000000 3023a.dat
1 219 47.999970 -108.000000 -59.999980 0.000000 -1.000000 0.000001 1.000000 0.000000 0.000000 0.000000 0.000001 1.000000 3022.dat
1 219 48.000000 -78.000000 -10.000020 0.000000 -1.000000 0.000001 1.000000 0.000000 0.000000 0.000000 0.000001 1.000000 3623.dat
1 219 47.999980 -118.000000 -30.000010 0.000000 -1.000000 0.000001 1.000000 0.000000 0.000000 0.000000 0.000001 1.000000 2420.dat
1 89 47.999970 -58.000000 -30.000010 0.000000 -1.000000 0.000001 1.000000 0.000000 0.000000 0.000000 0.000001 1.000000 3024.dat
1 89 47.999930 -57.999910 -69.999980 0.000000 -1.000000 0.000000 0.000000 0.000000 -1.000000 1.000000 0.000000 0.000000 14719.dat
1 219 55.999970 -78.000000 -50.000020 0.000000 -1.000000 0.000001 1.000000 0.000000 0.000000 0.000000 0.000001 1.000000 25269.dat
1 219 0.000020 -88.000000 7.999990 1.000000 0.000000 0.000000 0.000000 0.000001 1.000000 0.000000 -1.000000 0.000001 3020.dat
1 219 -19.999980 -108.002000 0.000200 1.000000 0.000000 0.000000 0.000000 0.000001 0.999996 0.000000 -0.999993 0.000000 15068.dat
1 219 20.000030 -108.000200 -0.000110 1.000000 0.000000 0.000000 0.000000 0.000001 1.000000 0.000000 -1.000000 0.000001 15068.dat
1 219 0.000020 -58.000300 7.999980 1.000000 0.000000 0.000000 0.000000 0.000001 1.000000 0.000000 -1.000000 0.000001 2431.dat
1 219 30.000060 -78.000000 15.999910 1.000000 0.000000 0.000000 0.000000 0.000001 1.000000 0.000000 -1.000000 0.000001 3024.dat
1 219 10.000000 -78.000000 15.999880 -1.000000 0.000000 0.000000 0.000000 0.000001 -1.000000 0.000000 -1.000000 -0.000001 25269.dat
1 219 -9.999980 -78.000000 15.999910 -1.000000 0.000000 0.000000 0.000000 0.000001 -1.000000 0.000000 -1.000000 -0.000001 25269.dat
1 219 -29.999980 -78.000000 15.999910 0.000000 0.000000 -1.000000 1.000000 0.000001 0.000000 0.000001 -1.000000 0.000000 25269.dat
1 219 -48.000010 -78.000000 -39.999990 0.000000 1.000000 0.000000 0.000000 0.000000 -1.000000 -1.000000 0.000000 0.000000 3023a.dat
1 219 -48.000010 -108.000000 -60.000000 0.000000 1.000000 0.000000 1.000000 0.000000 0.000001 0.000001 0.000000 -1.000000 3022.dat
1 219 -48.000010 -78.000000 -9.999980 0.000000 1.000000 0.000000 1.000000 0.000000 0.000001 0.000001 0.000000 -1.000000 3623.dat
1 219 -47.999980 -118.000000 -30.000010 0.000000 1.000000 0.000000 0.000000 0.000000 1.000000 1.000000 0.000000 0.000000 2420.dat
1 219 -56.000010 -78.000000 -50.000000 0.000000 1.000000 0.000000 0.000000 0.000000 -1.000000 -1.000000 0.000000 0.000000 25269.dat
1 89 -48.000000 -58.000000 -70.000000 0.000000 1.000000 0.000000 -1.000000 0.000000 0.000000 0.000000 0.000000 1.000000 14719.dat
1 89 0.000000 -128.000000 -40.000000 1.000000 0.000000 0.000000 0.000000 1.000000 0.000000 0.000000 0.000000 1.000000 3022.dat
1 219 20.000030 -128.000000 -10.000380 0.000000 0.000000 -1.000000 0.000000 1.000000 0.000000 1.000000 0.000000 0.000000 11477.dat
1 219 -19.999980 -128.000000 -9.999980 0.000000 0.000000 1.000000 0.000000 1.000000 0.000000 -1.000000 0.000000 0.000000 11477.dat
1 89 0.000000 -96.000000 -30.000000 1.000000 0.000000 0.000000 0.000000 1.000000 0.000000 0.000000 0.000000 1.000000 3245b.dat
1 89 10.000000 -120.000000 -30.000000 1.000000 0.000000 0.000000 0.000000 1.000000 0.000000 0.000000 0.000000 1.000000 3005.dat
1 89 -10.000000 -120.000000 -29.999990 1.000000 0.000000 0.000000 0.000000 1.000000 0.000000 0.000000 0.000000 1.000000 3005.dat
1 219 0.000020 -136.000000 -20.000000 1.000000 0.000000 0.000000 0.000000 1.000000 0.000000 0.000000 0.000000 1.000000 3022.dat
1 219 10.000020 -136.000000 -50.000000 -1.000000 0.000000 0.000000 0.000000 1.000000 0.000000 0.000000 0.000000 -1.000000 2420.dat
1 219 0.000010 -144.000000 -40.000000 1.000000 0.000000 0.000000 0.000000 1.000000 0.000000 0.000000 0.000000 1.000000 3022.dat
1 219 29.999980 -128.000000 -70.000000 0.000001 0.000000 -1.000000 0.000000 1.000000 0.000000 1.000000 0.000000 0.000001 54200.dat
1 219 10.291210 -135.753900 -88.838090 1.000000 0.000000 0.000000 0.000000 1.000000 0.000000 0.000000 0.000000 1.000000 3623.dat
1 219 -19.708790 -127.753900 -88.838090 0.000000 0.000000 1.000000 0.000000 1.000000 0.000000 -1.000000 0.000000 0.000000 11477.dat
1 89 -48.000000 -58.000000 -29.999990 0.000000 1.000000 0.000000 1.000000 0.000000 0.000000 0.000000 0.000000 -1.000000 3024.dat
1 219 20.000010 -144.000000 -70.000000 0.000000 0.000000 1.000000 0.000000 1.000000 0.000000 -1.000000 0.000000 0.000000 7302.dat
1 219 -30.000000 -136.000000 -40.000010 0.000000 0.000000 -1.000000 0.000000 1.000000 0.000000 1.000000 0.000000 0.000000 3023b.dat
1 219 29.999990 -136.000000 -40.000000 0.000000 0.000000 -1.000000 0.000000 1.000000 0.000000 1.000000 0.000000 0.000000 3023b.dat
