0 Untitled Model
0 Name:  short_messy_clean_short_beard_male.ldr
0 Author:  
0 CustomBrick
0 FlexibleBrickControlPointUnitLength -1
0 FlexibleBrickLockedControlPoint 
1 89 -30.000000 -40.000000 0.000000 0.000000 0.000000 1.000000 0.000000 1.000000 0.000000 -1.000000 0.000000 0.000000 22885.dat
1 89 0.000000 -80.000000 -30.000020 1.000000 0.000000 0.000000 0.000000 1.000000 0.000000 0.000000 0.000000 1.000000 22885.dat
1 89 30.000000 -40.000000 -0.000010 0.000001 0.000000 -1.000000 0.000000 1.000000 0.000000 1.000000 0.000000 0.000001 22885.dat
1 89 29.999980 -80.000000 -20.000010 0.000001 0.000000 -1.000000 0.000000 1.000000 0.000000 1.000000 0.000000 0.000001 22885.dat
1 89 30.000020 -80.000000 20.000000 0.000001 0.000000 -1.000000 0.000000 1.000000 0.000000 1.000000 0.000000 0.000001 22885.dat
1 89 -29.999990 -80.000000 20.000000 0.000000 0.000000 1.000000 0.000000 1.000000 0.000000 -1.000000 0.000000 0.000000 22885.dat
1 89 20.000030 -40.000000 30.000020 -1.000000 0.000000 -0.000001 0.000000 1.000000 0.000000 0.000001 0.000000 -1.000000 22885.dat
1 89 -19.999990 -40.000000 30.000000 -1.000000 0.000000 -0.000001 0.000000 1.000000 0.000000 0.000001 0.000000 -1.000000 22885.dat
1 89 -30.000000 -80.000000 -20.000000 0.000000 0.000000 1.000000 0.000000 1.000000 0.000000 -1.000000 0.000000 0.000000 22885.dat
1 89 0.000030 -72.000000 29.999620 1.000000 0.000000 0.000001 0.000000 1.000000 0.000000 -0.000001 0.000000 1.000000 3023.dat
1 89 0.000000 -80.000000 29.999590 0.999999 0.000000 0.000001 0.000000 1.000000 0.000000 -0.000001 0.000000 0.999999 3023.dat
1 89 0.000020 -64.000000 29.999990 1.000000 0.000000 0.000001 0.000000 1.000000 0.000000 -0.000001 0.000000 1.000000 3004.dat
1 219 -29.715180 -69.779400 -62.838100 -0.999998 0.000000 -0.000637 -0.000637 0.000000 1.000000 0.000000 1.000000 0.000000 3024.dat
1 219 -9.715230 -69.766700 -62.838100 0.999998 0.000000 0.000637 0.000637 0.000000 -1.000000 0.000000 1.000000 0.000000 25269.dat
1 219 10.284840 -69.753910 -62.838110 0.999998 0.000000 0.000637 0.000637 0.000000 -1.000000 0.000000 1.000000 0.000000 25269.dat
1 219 30.284830 -69.741500 -62.838220 -0.000637 0.000000 0.999999 1.000000 0.000000 0.000637 0.000000 1.000000 0.000000 25269.dat
1 219 47.999980 -30.000000 -0.000030 0.000000 -1.000000 0.000000 0.000000 0.000000 -1.000000 1.000000 0.000001 0.000000 3023a.dat
1 219 47.999970 -60.000000 -19.999990 0.000000 -1.000000 0.000001 1.000000 0.000000 0.000000 0.000000 0.000001 1.000000 3022.dat
1 219 48.000000 -30.000000 29.999980 0.000000 -1.000000 0.000001 1.000000 0.000000 0.000000 0.000000 0.000001 1.000000 3623.dat
1 219 47.999980 -70.000000 9.999980 0.000000 -1.000000 0.000001 1.000000 0.000000 0.000000 0.000000 0.000001 1.000000 2420.dat
1 89 47.999970 -10.000000 9.999980 0.000000 -1.000000 0.000001 1.000000 0.000000 0.000000 0.000000 0.000001 1.000000 3024.dat
1 89 47.999920 -9.999909 -29.999990 0.000000 -1.000000 0.000000 0.000000 0.000000 -1.000000 1.000000 0.000000 0.000000 14719.dat
1 219 47.999970 -50.000000 -19.999990 0.000001 -1.000000 0.000000 0.000000 0.000000 -1.000000 1.000000 0.000001 0.000000 85984.dat
1 219 55.999970 -30.000000 -10.000030 0.000000 -1.000000 0.000001 1.000000 0.000000 0.000000 0.000000 0.000001 1.000000 25269.dat
1 219 39.999940 -70.000000 -39.999990 0.000000 -1.000000 0.000001 1.000000 0.000000 0.000000 0.000000 0.000001 1.000000 11477.dat
1 219 0.000020 -40.000000 48.000000 1.000000 0.000000 0.000000 0.000000 0.000001 1.000000 0.000000 -1.000000 0.000001 3020.dat
1 219 -19.999980 -60.002000 40.000200 1.000000 0.000000 0.000000 0.000000 0.000001 0.999996 0.000000 -0.999993 0.000000 15068.dat
1 219 20.000030 -60.000200 39.999900 1.000000 0.000000 0.000000 0.000000 0.000001 1.000000 0.000000 -1.000000 0.000001 15068.dat
1 219 0.000020 -10.000310 47.999980 1.000000 0.000000 0.000000 0.000000 0.000001 1.000000 0.000000 -1.000000 0.000001 2431.dat
1 219 30.000060 -30.000000 55.999910 1.000000 0.000000 0.000000 0.000000 0.000001 1.000000 0.000000 -1.000000 0.000001 3024.dat
1 219 10.000000 -30.000000 55.999880 -1.000000 0.000000 0.000000 0.000000 0.000001 -1.000000 0.000000 -1.000000 -0.000001 25269.dat
1 219 -9.999980 -30.000000 55.999920 -1.000000 0.000000 0.000000 0.000000 0.000001 -1.000000 0.000000 -1.000000 -0.000001 25269.dat
1 219 -29.999980 -30.000000 55.999920 0.000000 0.000000 -1.000000 1.000000 0.000001 0.000000 0.000001 -1.000000 0.000000 25269.dat
1 219 -48.000020 -30.000000 0.000010 0.000000 1.000000 0.000000 0.000000 0.000000 -1.000000 -1.000000 0.000000 0.000000 3023a.dat
1 219 -48.000020 -60.000000 -20.000000 0.000000 1.000000 0.000000 1.000000 0.000000 0.000001 0.000001 0.000000 -1.000000 3022.dat
1 219 -48.000020 -30.000000 30.000030 0.000000 1.000000 0.000000 1.000000 0.000000 0.000001 0.000001 0.000000 -1.000000 3623.dat
1 219 -48.000000 -70.000000 10.000000 0.000000 1.000000 0.000000 0.000000 0.000000 1.000000 1.000000 0.000000 0.000000 2420.dat
1 219 -56.000030 -30.000000 -10.000000 0.000000 1.000000 0.000000 0.000000 0.000000 -1.000000 -1.000000 0.000000 0.000000 25269.dat
1 219 -48.000020 -50.000000 -20.000000 0.000000 1.000000 0.000000 0.000001 0.000000 -1.000000 -1.000000 0.000000 -0.000001 85984.dat
1 219 -40.000020 -70.000000 -40.000030 0.000000 1.000000 0.000000 -1.000000 0.000000 0.000000 0.000000 0.000000 1.000000 11477.dat
1 89 -48.000020 -10.000000 -30.000000 0.000000 1.000000 0.000000 -1.000000 0.000000 0.000000 0.000000 0.000000 1.000000 14719.dat
1 89 -0.000010 -80.000000 0.000000 1.000000 0.000000 0.000000 0.000000 1.000000 0.000000 0.000000 0.000000 1.000000 3022.dat
1 219 30.000000 -88.000000 -0.000010 0.000001 0.000000 -1.000000 0.000000 1.000000 0.000000 1.000000 0.000000 0.000001 32028.dat
1 219 -30.000000 -88.000000 0.000000 0.000000 0.000000 1.000000 0.000000 1.000000 0.000000 -1.000000 0.000000 0.000000 32028.dat
1 219 20.000030 -80.000000 29.999620 0.000000 0.000000 -1.000000 0.000000 1.000000 0.000000 1.000000 0.000000 0.000000 11477.dat
1 219 -19.999990 -80.000000 30.000030 0.000000 0.000000 1.000000 0.000000 1.000000 0.000000 -1.000000 0.000000 0.000000 11477.dat
1 89 -0.000010 -48.000000 10.000000 1.000000 0.000000 0.000000 0.000000 1.000000 0.000000 0.000000 0.000000 1.000000 3245b.dat
1 89 10.000000 -72.000000 10.000000 1.000000 0.000000 0.000000 0.000000 1.000000 0.000000 0.000000 0.000000 1.000000 3005.dat
1 89 -10.000010 -72.000000 10.000010 1.000000 0.000000 0.000000 0.000000 1.000000 0.000000 0.000000 0.000000 1.000000 3005.dat
1 219 0.000010 -88.000000 20.000000 1.000000 0.000000 0.000000 0.000000 1.000000 0.000000 0.000000 0.000000 1.000000 3022.dat
1 219 10.000010 -88.000000 -10.000010 -1.000000 0.000000 0.000000 0.000000 1.000000 0.000000 0.000000 0.000000 -1.000000 2420.dat
1 219 0.000000 -96.000000 0.000000 1.000000 0.000000 0.000000 0.000000 1.000000 0.000000 0.000000 0.000000 1.000000 3022.dat
1 219 20.000000 -88.000000 0.000010 0.000001 0.000000 -1.000000 0.000000 1.000000 0.000000 1.000000 0.000000 0.000001 15068.dat
1 219 -20.000010 -88.000000 -0.000010 0.000000 0.000000 1.000000 0.000000 1.000000 0.000000 -1.000000 0.000000 0.000000 15068.dat
1 219 -10.000000 -104.000000 -30.000020 0.000000 0.000000 1.000000 0.000000 1.000000 0.000000 -1.000000 0.000000 0.000000 50950.dat
1 219 29.999980 -80.000000 -30.000010 0.000001 0.000000 -1.000000 0.000000 1.000000 0.000000 1.000000 0.000000 0.000001 54200.dat
1 219 10.291200 -87.753910 -48.838100 1.000000 0.000000 0.000000 0.000000 1.000000 0.000000 0.000000 0.000000 1.000000 3623.dat
1 219 -19.708800 -79.753910 -48.838100 0.000000 0.000000 1.000000 0.000000 1.000000 0.000000 -1.000000 0.000000 0.000000 11477.dat
1 219 0.291200 -87.753910 -48.838100 0.000000 0.000000 -1.000000 0.000000 1.000000 0.000000 1.000000 0.000000 0.000000 11477.dat
1 89 -48.000020 -10.000000 10.000010 0.000000 1.000000 0.000000 1.000000 0.000000 0.000000 0.000000 0.000000 -1.000000 3024.dat
1 219 0.000000 -3.999940 -50.000240 -1.000000 0.000000 0.000000 0.000000 1.000000 0.000000 0.000000 0.000000 -1.000000 3710.dat
1 219 29.999960 -11.999940 -50.000240 -0.999999 0.000000 0.000000 0.000000 1.000000 0.000000 0.000000 0.000000 -0.999999 3024.dat
1 219 -29.999990 -11.999940 -50.000030 -1.000000 0.000000 0.000000 0.000000 1.000000 0.000000 0.000000 0.000000 -1.000000 3024.dat
1 219 0.000000 -20.000070 -50.000130 -1.000000 0.000000 0.000000 0.000000 1.000000 0.000000 0.000000 0.000000 -1.000000 2431.dat
1 89 0.000030 -70.000000 -48.000040 1.000000 0.000001 0.000000 0.000000 0.000000 -1.000000 -0.000001 1.000001 0.000000 3710.dat
1 89 -0.000020 -40.000000 -48.000040 1.000000 0.000001 0.000000 0.000000 0.000000 -1.000000 -0.000001 1.000000 0.000000 3020.dat
1 89 -0.003700 -59.988910 -55.999940 1.000000 0.000001 0.000366 0.000366 0.000000 -1.000000 -0.000001 1.000001 0.000000 87079.dat
1 89 -0.000020 -29.999900 -56.000040 1.000000 0.000001 0.000000 0.000000 0.000000 -1.000000 -0.000001 1.000001 0.000000 41740.dat
1 15 -30.000000 -29.999900 -64.000040 -1.000000 0.000000 -0.000637 -0.000637 0.000000 1.000000 0.000000 1.000000 0.000000 98138p2j.dat
1 15 30.000000 -29.999900 -64.000040 -1.000000 0.000000 -0.000637 -0.000637 0.000000 1.000000 0.000000 1.000000 0.000000 98138p2j.dat
1 89 0.000000 -12.000050 -50.000130 1.000000 0.000000 0.000000 0.000000 1.000000 0.000000 0.000000 0.000000 1.000000 3023b.dat
