0 Untitled Model
0 Name:  shortstraight_male
0 Author:  
0 CustomBrick
0 FlexibleBrickControlPointUnitLength -1
0 FlexibleBrickLockedControlPoint 
1 89 -30.000000 -40.000000 20.000000 0.000000 0.000000 1.000000 0.000000 1.000000 0.000000 -1.000000 0.000000 0.000000 22885.dat
1 89 0.001610 -40.000000 29.999440 -1.000013 0.000000 0.000000 0.000000 1.000000 0.000000 0.000000 0.000000 -1.000013 22885.dat
1 89 30.002150 -40.000000 19.999480 0.000000 0.000000 -1.000013 0.000000 1.000000 0.000000 1.000013 0.000000 0.000000 22885.dat
1 89 0.001490 -24.000000 -0.001000 1.000013 0.000000 0.000000 0.000000 1.000000 0.000000 0.000000 0.000000 1.000013 3003.dat
1 89 -29.998820 -40.000110 -20.001020 0.000000 0.000000 1.000013 0.000000 1.000000 0.000000 -1.000013 0.000000 0.000000 22885.dat
1 89 30.002160 -40.000000 -20.001030 0.000000 0.000000 -1.000013 0.000000 1.000000 0.000000 1.000013 0.000000 0.000000 22885.dat
1 89 0.001490 -40.000110 -30.001080 1.000013 0.000000 0.000000 0.000000 1.000000 0.000000 0.000000 0.000000 1.000013 22885.dat
1 219 48.002330 -20.000200 19.999480 0.000000 -1.000013 0.000000 1.000000 0.000000 0.000000 0.000000 0.000000 1.000013 3022.dat
1 89 48.002410 -20.000310 9.999490 0.000000 -1.000013 0.000000 -1.000000 0.000000 0.000000 0.000000 0.000000 -1.000013 85984.dat
1 89 0.001490 -48.000000 -0.001000 1.000013 0.000000 0.000000 0.000000 1.000000 0.000000 0.000000 0.000000 1.000013 3003.dat
1 89 -19.998870 -80.000110 29.999440 -1.000013 0.000000 0.000000 0.000000 1.000000 0.000000 0.000000 0.000000 -1.000013 22885.dat
1 89 -29.998820 -80.000200 -0.000990 0.000000 0.000000 1.000013 0.000000 1.000000 0.000000 -1.000013 0.000000 0.000000 22885.dat
1 89 20.001830 -80.000110 29.999470 -1.000013 0.000000 0.000000 0.000000 1.000000 0.000000 0.000000 0.000000 -1.000013 22885.dat
1 89 30.002150 -80.000110 -0.001000 0.000000 0.000000 -1.000013 0.000000 1.000000 0.000000 1.000013 0.000000 0.000000 22885.dat
1 89 -19.998680 -80.000110 -30.001080 1.000013 0.000000 0.000000 0.000000 1.000000 0.000000 0.000000 0.000000 1.000013 22885.dat
1 89 20.001800 -80.000200 -30.001090 1.000013 0.000000 0.000000 0.000000 1.000000 0.000000 0.000000 0.000000 1.000013 22885.dat
1 89 0.001490 -56.000000 -0.001000 1.000013 0.000000 0.000000 0.000000 1.000000 0.000000 0.000000 0.000000 1.000013 4032a.dat
1 89 0.001490 -80.000110 -0.001000 1.000013 0.000000 0.000000 0.000000 1.000000 0.000000 0.000000 0.000000 1.000013 3003.dat
1 219 0.001550 -88.000200 -20.000960 1.000013 0.000000 0.000000 0.000000 1.000000 0.000000 0.000000 0.000000 1.000013 3020.dat
1 219   30.002150 -88.000110 9.999129 1.000013 0.000000 0.000000 0.000000 1.000000 0.000000 0.000000 0.000000 1.000013 3024.dat
1 219 -29.998820 -88.000200 9.999140 1.000013 0.000000 0.000000 0.000000 1.000000 0.000000 0.000000 0.000000 1.000013 3024.dat
1 219 30.001980 -80.000110 19.999340 -1.000013 0.000000 0.000000 0.000000 1.000000 0.000000 0.000000 0.000000 -1.000013 11477.dat
1 219 -29.998910 -80.000110 19.999310 -1.000013 0.000000 0.000000 0.000000 1.000000 0.000000 0.000000 0.000000 -1.000013 11477.dat
1 219 -9.998700 -104.000100 9.999200 -1.000013 0.000000 0.000000 0.000000 1.000000 0.000000 0.000000 0.000000 -1.000013 50950.dat
1 219 10.001700 -104.000100 9.999229 -1.000013 0.000000 0.000000 0.000000 1.000000 0.000000 0.000000 0.000000 -1.000013 50950.dat
1 219 20.001800 -70.000200 -48.001300 -1.000013 0.000000 0.000000 0.000000 0.000000 1.000000 0.000000 1.000013 0.000000 99780.dat
1 219 -19.998680 -70.000110 -48.001300 -1.000013 0.000000 0.000000 0.000000 0.000000 1.000000 0.000000 1.000013 0.000000 99780.dat
1 89 0.001540 -50.000200 -48.001300 -1.000013 0.000000 0.000000 0.000000 0.000000 1.000000 0.000000 1.000013 0.000000 92593.dat
1 89 0.001480 -20.000110 -48.001300 1.000013 0.000000 0.000000 0.000000 0.000000 -1.000000 0.000000 1.000013 0.000000 3020.dat
1 89 0.001490 -30.000110 -56.001420 -1.000013 0.000000 0.000000 0.000000 0.000000 1.000000 0.000000 1.000013 0.000000 92593.dat
1 89 0.001550 -60.000200 -56.001420 -1.000013 0.000000 0.000000 0.000000 0.000000 1.000000 0.000000 1.000013 0.000000 87079.dat
1 89 -29.998920 -30.000110 -64.001540 1.000013 0.000000 0.000000 0.000000 0.000000 -1.000000 0.000000 1.000013 0.000000 98138.dat
1 89 30.001880 -30.000110 -64.001540 1.000013 0.000000 0.000000 0.000000 0.000000 -1.000000 0.000000 1.000013 0.000000 98138.dat
1 219 0.001550 -96.000200 -30.001080 1.000013 0.000000 0.000000 0.000000 1.000000 0.000000 0.000000 0.000000 1.000013 3023a.dat
1 219 0.001540 -92.000110 -50.001330 1.000013 0.000000 0.000000 0.000000 1.000000 0.000000 0.000000 0.000000 1.000013 3023b.dat
1 219 -29.998820 -84.000110 -50.001330 0.000000 0.000000 -1.000013 0.000000 1.000000 0.000000 1.000013 0.000000 0.000000 54200.dat
1 219 -9.998590 -92.000110 -50.001330 0.000000 0.000000 1.000013 0.000000 1.000000 0.000000 -1.000013 0.000000 0.000000 54200.dat
1 219 10.001680 -92.000110 -50.001330 0.000000 0.000000 1.000013 0.000000 1.000000 0.000000 -1.000013 0.000000 0.000000 54200.dat
1 219 30.001940 -84.000200 -50.001340 0.000000 0.000000 1.000013 0.000000 1.000000 0.000000 -1.000013 0.000000 0.000000 54200.dat
1 219 -9.998580 -96.000200 -30.001080 0.000000 0.000000 1.000013 0.000000 1.000000 0.000000 -1.000013 0.000000 0.000000 54200.dat
1 219 10.001680 -96.000200 -30.001090 0.000000 0.000000 1.000013 0.000000 1.000000 0.000000 -1.000013 0.000000 0.000000 54200.dat
1 219 30.001940 -88.000200 -30.001090 0.000000 0.000000 1.000013 0.000000 1.000000 0.000000 -1.000013 0.000000 0.000000 54200.dat
1 219 -29.998820 -88.000200 -30.001080 0.000000 0.000000 -1.000013 0.000000 1.000000 0.000000 1.000013 0.000000 0.000000 54200.dat
1 219 30.001940 -88.000200 -10.000830 0.000000 0.000000 -1.000013 0.000000 1.000000 0.000000 1.000013 0.000000 0.000000 54200.dat
1 219 -29.998820 -88.000200 -10.000820 0.000000 0.000000 1.000013 0.000000 1.000000 0.000000 -1.000013 0.000000 0.000000 54200.dat
1 219 -47.999040 -60.000200 -0.000990 0.000000 1.000013 0.000000 0.000000 0.000000 -1.000000 -1.000013 0.000000 0.000000 3020.dat
1 89 -48.000040 -20.000000 9.999700 0.000000 1.000013 0.000000 -1.000000 0.000000 0.000000 0.000000 0.000000 1.000013 85984.dat
1 219 -47.999040 -30.000110 -10.000880 0.000000 1.000013 0.000000 -1.000000 0.000000 0.000000 0.000000 0.000000 1.000013 3024.dat
1 219 -47.999040 -20.000110 -30.001160 0.000000 1.000013 0.000000 -1.000000 0.000000 0.000000 0.000000 0.000000 1.000013 3069b.dat
1 219 -48.000040 -20.000000 19.999800 0.000000 1.000013 0.000000 1.000000 0.000000 0.000000 0.000000 0.000000 -1.000013 3022.dat
1 89 48.002410 -20.000000 -30.001170 0.000000 -1.000013 0.000000 -1.000000 0.000000 0.000000 0.000000 0.000000 -1.000013 3069b.dat
1 219 48.002400 -60.000110 -0.001000 0.000000 -1.000013 0.000000 0.000000 0.000000 -1.000000 1.000013 0.000000 0.000000 3020.dat
1 219 48.002410 -30.000000 -10.000890 0.000000 -1.000013 0.000000 1.000000 0.000000 0.000000 0.000000 0.000000 1.000013 3024.dat
1 219 20.001830 -40.000110 47.999750 0.000000 0.000000 -1.000013 1.000000 0.000000 0.000000 0.000000 -1.000013 0.000000 3020.dat
1 219 -19.998870 -40.000110 47.999720 0.000000 0.000000 -1.000013 1.000000 0.000000 0.000000 0.000000 -1.000013 0.000000 3020.dat
1 89 48.002300 -10.000000 -10.000900 0.000000 -1.000000 0.000000 -1.000000 0.000000 0.000000 0.000000 0.000000 -1.000000 3070b.dat
1 89 0.001870 -10.000110 -56.001310 1.000000 0.000000 0.000000 0.000000 0.000000 -1.000000 0.000000 1.000000 0.000000 2431.dat
1 89 -47.998950 -10.000110 -10.000890 0.000000 1.000000 0.000000 -1.000000 0.000000 0.000000 0.000000 0.000000 1.000000 3070b.dat
