0 Untitled Model
0 Name:  short_asymmetrical_swept_female
0 Author:  
0 CustomBrick
0 FlexibleBrickControlPointUnitLength -1
0 FlexibleBrickLockedControlPoint 
0 NumOfBricks:  99
1 89 0.000000 -61.000020 -30.000000 0.000000 0.000000 1.000000 0.000000 1.000000 0.000000 -1.000000 0.000000 0.000000 3003.dat
1 89 -0.000010 -85.000010 -30.000000 0.000000 0.000000 1.000000 0.000000 1.000000 0.000000 -1.000000 0.000000 0.000000 3003.dat
1 89 -0.000010 -93.000010 -30.000000 0.000000 0.000000 1.000000 0.000000 1.000000 0.000000 -1.000000 0.000000 0.000000 4032a.dat
1 89 -0.000010 -117.000000 -30.000000 0.000000 0.000000 1.000000 0.000000 1.000000 0.000000 -1.000000 0.000000 0.000000 3003.dat
1 89 19.999980 -77.000010 0.000010 -1.000000 0.000000 0.000000 0.000000 1.000000 0.000000 0.000000 0.000000 -1.000000 22885.dat
1 431 -20.000010 -77.000010 0.000020 -1.000000 0.000000 0.000000 0.000000 1.000000 0.000000 0.000000 0.000000 -1.000000 22885.dat
1 431 -30.000020 -77.000010 -29.999990 0.000001 0.000000 1.000000 0.000000 1.000000 0.000000 -1.000000 0.000000 0.000001 22885.dat
1 431 -20.000000 -77.000010 -59.999990 1.000000 0.000000 0.000000 0.000000 1.000000 0.000000 0.000000 0.000000 1.000000 22885.dat
1 89 19.999990 -77.000010 -59.999970 1.000000 0.000000 0.000000 0.000000 1.000000 0.000000 0.000000 0.000000 1.000000 22885.dat
1 89 30.000000 -77.000010 -29.999990 0.000000 0.000000 -1.000000 0.000000 1.000000 0.000000 1.000000 0.000000 0.000000 22885.dat
1 89 30.000010 -117.000000 -49.999980 0.000000 0.000000 -1.000000 0.000000 1.000000 0.000000 1.000000 0.000000 0.000000 22885.dat
1 89 29.999990 -117.000000 -9.999990 0.000000 0.000000 -1.000000 0.000000 1.000000 0.000000 1.000000 0.000000 0.000000 22885.dat
1 89 -0.000010 -117.000000 0.000010 -1.000000 0.000000 0.000000 0.000000 1.000000 0.000000 0.000000 0.000000 -1.000000 22885.dat
1 431 -30.000020 -117.000000 -9.999990 0.000001 0.000000 1.000000 0.000000 1.000000 0.000000 -1.000000 0.000000 0.000001 22885.dat
1 431 -30.000010 -117.000000 -50.000000 0.000001 0.000000 1.000000 0.000000 1.000000 0.000000 -1.000000 0.000000 0.000001 22885.dat
1 89 0.000000 -117.000000 -59.999980 1.000000 0.000000 0.000000 0.000000 1.000000 0.000000 0.000000 0.000000 1.000000 22885.dat
1 431 -20.000010 -133.000000 0.000020 -1.000000 0.000000 0.000000 0.000000 1.000000 0.000000 0.000000 0.000000 -1.000000 99206.dat
1 431 29.999990 -133.000000 -50.000000 0.000000 0.000000 -1.000000 0.000000 1.000000 0.000000 1.000000 0.000000 0.000000 99206.dat
1 431 19.999980 -133.000000 0.000030 -1.000000 0.000000 0.000000 0.000000 1.000000 0.000000 0.000000 0.000000 -1.000000 99206.dat
1 431 -20.000000 -133.000000 -60.000000 1.000000 0.000000 0.000000 0.000000 1.000000 0.000000 0.000000 0.000000 1.000000 99206.dat
1 431 -30.000020 -133.000000 -29.999990 0.000000 0.000000 1.000000 0.000000 1.000000 0.000000 -1.000000 0.000000 0.000000 3023.dat
1 431 9.999990 -133.000000 -19.999980 -1.000000 0.000000 0.000000 0.000000 1.000000 0.000000 0.000000 0.000000 -1.000000 3623.dat
1 431 9.999990 -133.000000 -39.999990 -1.000000 0.000000 0.000000 0.000000 1.000000 0.000000 0.000000 0.000000 -1.000000 2420.dat
1 431 -0.000200 -141.000000 -30.000060 1.000004 0.000000 0.000000 0.000000 1.000000 0.000000 0.000000 0.000000 1.000004 3020.dat
1 431 19.999980 -133.000000 0.000030 -1.000000 0.000000 0.000000 0.000000 1.000000 0.000000 0.000000 0.000000 -1.000000 85984.dat
1 431 -20.000320 -133.000000 0.000080 -1.000004 0.000000 0.000000 0.000000 1.000000 0.000000 0.000000 0.000000 -1.000004 85984.dat
1 431 -20.000320 -133.000000 -50.000190 1.000004 0.000000 0.000000 0.000000 1.000000 0.000000 0.000000 0.000000 1.000004 15068.dat
1 431 19.999680 -133.000000 -50.000670 1.000002 0.000000 -0.000001 0.000000 1.000000 0.000000 0.000001 0.000000 1.000002 15068.dat
1 431 -0.000140 -149.000000 -20.000060 -1.000003 0.000000 0.000000 0.000000 1.000000 0.000000 0.000000 0.000000 -1.000003 2431.dat
1 89 48.000100 -67.000210 -50.000000 0.000000 -1.000005 0.000000 -1.000005 0.000000 0.000000 0.000000 0.000000 -1.000000 3021.dat
1 89 48.000100 -67.000210 -10.000020 0.000000 -1.000005 0.000000 -1.000005 0.000000 0.000000 0.000000 0.000000 -1.000000 3021.dat
1 431 47.999980 -117.000000 -29.999990 0.000000 -1.000000 0.000000 0.000000 0.000000 1.000000 -1.000000 0.000000 0.000000 3020.dat
1 89 56.000140 -47.000100 -30.000020 0.000000 -1.000005 -0.000001 0.000000 0.000001 -1.000005 1.000000 0.000000 0.000000 2431.dat
1 89 56.000120 -67.000210 -30.000020 0.000000 -1.000005 0.000000 0.000000 0.000000 -1.000005 1.000000 0.000000 0.000000 41740.dat
1 89 56.000120 -107.000300 -50.000000 0.000000 -1.000005 0.000000 0.000000 0.000000 1.000005 -1.000000 0.000000 0.000000 3023.dat
1 89 56.000100 -97.000300 -10.000020 0.000000 -1.000000 0.000000 0.000000 0.000000 1.000000 -1.000000 0.000000 0.000000 3068b.dat
1 89 56.000120 -87.000210 -50.000000 0.000000 -1.000005 0.000000 0.000000 0.000000 1.000005 -1.000000 0.000000 0.000000 3069b.dat
1 431 55.999980 -127.000000 -50.000000 0.000000 -1.000000 0.000000 0.000000 0.000000 1.000000 -1.000000 0.000000 0.000000 3023.dat
1 431 63.999980 -127.000000 -19.999990 0.000000 -1.000000 0.000000 -0.000001 0.000001 -1.000000 1.000000 0.000000 -0.000001 25269.dat
1 431 56.000120 -97.000210 -60.000000 0.000000 -1.000005 -0.000001 0.000000 0.000001 -1.000005 1.000000 0.000000 0.000000 29120.dat
1 431 64.000140 -107.000300 -40.000000 0.000000 -1.000005 0.000000 0.000000 0.000000 -1.000005 1.000000 0.000000 0.000000 25269.dat
1 89 64.000140 -107.000300 -60.000000 0.000000 -1.000005 0.000000 0.000000 0.000000 1.000005 -1.000000 0.000000 0.000000 3024.dat
1 431 56.000120 -127.000300 -50.000000 0.000000 -1.000005 0.000000 0.000000 0.000000 1.000005 -1.000000 0.000000 0.000000 85984.dat
1 431 63.999980 -117.000000 0.000010 0.000000 -1.000000 0.000000 0.000000 0.000000 -1.000000 1.000000 0.000000 0.000000 5092.dat
1 431 55.999980 -127.000000 -9.999990 0.000000 -1.000000 0.000000 0.000000 0.000000 1.000000 -1.000000 0.000000 0.000000 3023.dat
1 15 64.000140 -67.000210 -0.000020 0.000000 -1.000000 0.000000 0.000000 0.000000 -1.000000 1.000000 0.000000 0.000000 98138p0c.dat
1 15 64.000140 -67.000210 -60.000030 0.000000 -1.000000 0.000000 0.000000 0.000000 -1.000000 1.000000 0.000000 0.000000 98138p0c.dat
1 89 -10.000010 -57.000020 18.000010 0.000000 0.000000 1.000000 -1.000000 0.000000 0.000000 0.000000 -1.000000 0.000000 3023.dat
1 89 29.999980 -47.000020 18.000000 -1.000000 0.000000 0.000000 0.000000 0.000000 -1.000000 0.000000 -1.000000 0.000000 14719.dat
1 431 -30.000010 -87.000010 18.000010 0.000000 0.000000 1.000000 -1.000000 0.000000 0.000000 0.000000 -1.000000 0.000000 3623.dat
1 89 0.000000 -97.000010 18.000020 0.000000 0.000000 1.000000 -1.000000 0.000000 0.000000 0.000000 -1.000000 0.000000 3022.dat
1 431 -20.000010 -117.000000 10.000010 1.000000 0.000000 0.000000 0.000000 0.000000 1.000000 0.000000 -1.000000 0.000000 15068.dat
1 431 -20.000010 -87.000010 26.000030 -1.000000 0.000000 0.000000 0.000000 0.000000 -1.000000 0.000000 -1.000000 0.000000 3069b.dat
1 431 -30.000010 -57.000020 10.000010 -1.000000 0.000000 0.000000 0.000000 0.000000 -1.000000 0.000000 -1.000000 0.000000 29119.dat
1 89 -10.000010 -47.000020 26.000020 0.000000 0.000000 1.000000 -1.000000 0.000000 0.000000 0.000000 -1.000000 0.000000 3024.dat
1 89 -10.000010 -67.000010 18.000030 0.000000 0.000000 1.000000 -1.000000 0.000000 0.000000 0.000000 -1.000000 0.000000 54200.dat
1 226 -10.000000 -47.000020 34.000020 0.000000 0.000000 1.000000 -1.000000 0.000000 0.000000 0.000000 -1.000000 0.000000 98138.dat
1 431 20.000000 -97.000010 10.000020 0.000000 0.000000 -1.000000 1.000000 0.000000 0.000000 0.000000 -1.000000 0.000000 15068.dat
1 431 9.999990 -127.000000 10.000020 1.000000 0.000000 0.000000 0.000000 0.000000 1.000000 0.000000 -1.000000 0.000000 54200.dat
1 431 9.999980 -67.000010 10.000010 -1.000000 0.000000 0.000000 0.000000 0.000000 -1.000000 0.000000 -1.000000 0.000000 54200.dat
1 431 50.000000 -127.000000 18.000020 0.000000 0.000000 -1.000000 1.000000 0.000000 0.000000 0.000000 -1.000000 0.000000 27263.dat
1 431 -48.000040 -97.000010 -30.000000 0.000000 1.000000 0.000000 0.000000 0.000000 -1.000000 -1.000000 0.000000 0.000000 3020.dat
1 431 -48.000020 -57.000020 -29.999990 0.000000 1.000000 0.000000 0.000000 0.000000 -1.000000 -1.000000 0.000000 0.000000 3020.dat
1 431 -40.000030 -117.000000 -9.999990 0.000000 1.000000 0.000000 0.000000 0.000000 1.000000 1.000000 0.000000 0.000000 15068.dat
1 431 -40.000040 -117.000000 -50.000000 0.000000 1.000000 0.000000 0.000000 0.000000 1.000000 1.000000 0.000000 0.000000 15068.dat
1 431 -40.000020 -37.000010 0.000020 0.000000 1.000000 0.000000 0.000000 0.000000 -1.000000 -1.000000 0.000000 0.000000 29119.dat
1 431 -40.000010 -38.500010 -19.999980 0.000000 1.000000 0.000000 1.000000 0.000000 0.000000 0.000000 0.000000 -1.000000 bl_5414.dat
1 431 -40.000020 -38.500010 -40.000000 0.000000 1.000000 -0.000001 1.000000 0.000000 0.000000 0.000000 0.000000 -1.000000 bl_5414.dat
1 431 -40.000030 -37.000010 -60.000000 0.000000 1.000000 0.000000 0.000000 0.000000 -1.000000 -1.000000 0.000000 0.000000 29119.dat
1 431 -56.000060 -87.000010 -30.000000 0.000000 1.000000 0.000000 0.000000 0.000000 1.000000 1.000000 0.000000 0.000000 85984.dat
1 431 -48.000020 -67.000010 0.000020 0.000000 1.000000 0.000000 0.000000 0.000000 1.000000 1.000000 0.000000 0.000000 54200.dat
1 431 -48.000020 -67.000010 -60.000000 0.000000 1.000000 0.000000 0.000000 0.000000 1.000000 1.000000 0.000000 0.000000 54200.dat
1 431 -56.000040 -77.000010 -30.000000 0.000000 1.000000 0.000000 0.000000 0.000000 -1.000000 -1.000000 0.000000 0.000000 3022.dat
1 431 -56.000040 -87.000010 0.000000 0.000000 1.000000 0.000000 -1.000000 0.000000 0.000000 0.000000 0.000000 1.000000 3070b.dat
1 431 -56.000040 -87.000010 -60.000000 0.000000 1.000000 0.000000 -1.000000 0.000000 0.000000 0.000000 0.000000 1.000000 3070b.dat
1 431 -40.000010 -56.999900 -78.000000 -1.000000 0.000000 0.000000 0.000000 0.000000 1.000001 0.000000 1.000003 0.000000 24299.dat
1 431 -40.000020 -77.000010 -86.000020 -1.000000 0.000000 0.000000 0.000000 0.000000 1.000001 0.000000 1.000003 0.000000 24299.dat
1 431 -40.000010 -36.999920 -86.000030 -1.000000 0.000000 0.000000 0.000000 0.000000 1.000001 0.000000 1.000003 0.000000 24299.dat
1 431 -30.000040 -87.000010 -86.000020 -1.000000 0.000000 0.000000 0.000000 0.000000 1.000000 0.000000 1.000000 0.000000 54200.dat
1 431 -30.000050 -17.000110 -78.000020 1.000000 0.000000 0.000000 0.000000 0.000000 -1.000001 0.000000 1.000003 0.000000 29119.dat
1 431 -30.000030 -97.000010 -78.000000 0.000000 0.000000 1.000000 1.000001 0.000000 0.000000 0.000000 1.000003 0.000000 3023.dat
1 431 -30.000040 -47.000020 -94.000030 -1.000000 0.000000 0.000000 0.000000 0.000000 1.000000 0.000000 1.000000 0.000000 54200.dat
1 431 -30.000040 -57.000020 -94.000030 -1.000000 0.000000 0.000000 0.000000 0.000000 1.000000 0.000000 1.000000 0.000000 92946.dat
1 431 -30.000000 -117.000000 -70.000000 -1.000000 0.000000 0.000000 0.000000 0.000000 1.000000 0.000000 1.000000 0.000000 11477.dat
1 431 39.999990 -77.000010 -77.999970 0.000000 0.000000 1.000000 1.000000 0.000000 0.000000 0.000000 1.000000 0.000000 3020.dat
1 431 -0.000010 -67.000010 -77.999970 0.000000 0.000000 1.000000 1.000000 0.000000 0.000000 0.000000 1.000000 0.000000 3021.dat
1 431 9.999980 -67.000010 -85.999950 -1.000000 0.000000 0.000000 0.000000 0.000000 1.000000 0.000000 1.000000 0.000000 3623.dat
1 431 29.999990 -36.999980 -69.999970 1.000000 0.000000 0.000000 0.000000 0.000000 -1.000000 0.000000 1.000000 0.000000 29119.dat
1 431 9.999990 -57.000020 -77.999950 1.000000 0.000000 0.000000 0.000000 0.000000 -1.000000 0.000000 1.000000 0.000000 11477.dat
1 431 -10.000020 -57.000020 -77.999950 1.000000 0.000000 0.000000 0.000000 0.000000 -1.000000 0.000000 1.000000 0.000000 29119.dat
1 431 30.000000 -117.000000 -69.999970 -1.000000 0.000000 0.000000 0.000000 0.000000 1.000000 0.000000 1.000000 0.000000 11477.dat
1 431 -10.000000 -107.000000 -94.000010 -1.000000 0.000000 0.000000 0.000000 0.000000 1.000000 0.000000 1.000000 0.000000 50950.dat
1 431 9.999990 -107.000000 -93.999980 -1.000000 0.000000 0.000000 0.000000 0.000000 1.000000 0.000000 1.000000 0.000000 50950.dat
1 431 29.999990 -87.000010 -77.999970 -1.000000 0.000000 0.000000 0.000000 0.000000 1.000000 0.000000 1.000000 0.000000 54200.dat
1 431 49.999990 -117.000000 -69.999980 -1.000000 0.000000 0.000000 0.000000 0.000000 1.000000 0.000000 1.000000 0.000000 29119.dat
1 431 49.999990 -87.000010 -77.999970 -1.000000 0.000000 0.000000 0.000000 0.000000 1.000000 0.000000 1.000000 0.000000 54200.dat
1 431 49.999990 -36.999980 -77.999970 1.000000 0.000000 0.000000 0.000000 0.000000 -1.000000 0.000000 1.000000 0.000000 29120.dat
1 431 49.999990 -57.000020 -85.999970 -1.000000 0.000000 0.000000 0.000000 0.000000 1.000000 0.000000 1.000000 0.000000 92946.dat
1 431 29.999990 -67.000010 -85.999970 -1.000000 0.000000 0.000000 0.000000 0.000000 1.000000 0.000000 1.000000 0.000000 54200.dat
