0 Untitled Model
0 Name:  slicked_back_mullet_short_beard_male
0 Author:  
0 CustomBrick
0 FlexibleBrickControlPointUnitLength -1
0 FlexibleBrickLockedControlPoint 
0 NumOfBricks:  55
1 89 0.000000 -40.000000 -30.000000 -1.000000 0.000000 0.000000 0.000000 1.000000 0.000000 0.000000 0.000000 -1.000000 22885.dat
1 89 -30.000180 -40.000000 -80.000040 0.000000 0.000000 1.000000 0.000000 1.000000 0.000000 -1.000000 0.000000 0.000000 22885.dat
1 89 -30.000080 -40.000000 -40.000300 0.000000 0.000000 1.000000 0.000000 1.000000 0.000000 -1.000000 0.000000 0.000000 22885.dat
1 89 -29.999970 -80.000100 -60.000100 0.000000 0.000000 1.000000 0.000000 1.000000 0.000000 -1.000000 0.000000 0.000000 22885.dat
1 89 -19.999880 -80.000100 -90.000000 1.000000 0.000000 0.000001 0.000000 1.000000 0.000000 -0.000001 0.000000 1.000000 22885.dat
1 89 20.000180 -80.000100 -89.999880 1.000000 0.000000 0.000001 0.000000 1.000000 0.000000 -0.000001 0.000000 1.000000 22885.dat
1 89 20.000210 -80.000100 -30.000000 -1.000000 0.000000 0.000000 0.000000 1.000000 0.000000 0.000000 0.000000 -1.000000 22885.dat
1 89 30.000340 -40.000000 -80.000000 0.000001 0.000000 -1.000000 0.000000 1.000000 0.000000 1.000000 0.000000 0.000001 22885.dat
1 89 30.000340 -40.000000 -40.000150 0.000001 0.000000 -1.000000 0.000000 1.000000 0.000000 1.000000 0.000000 0.000001 22885.dat
1 89 -19.999980 -80.000100 -30.000060 -1.000000 0.000000 0.000000 0.000000 1.000000 0.000000 0.000000 0.000000 -1.000000 22885.dat
1 89 30.000280 -80.000100 -60.000180 0.000001 0.000000 -1.000001 0.000000 1.000000 0.000000 1.000001 0.000000 0.000001 22885.dat
1 89 -0.000020 -16.000000 -70.000000 1.000000 0.000000 0.000000 0.000000 1.000000 0.000000 0.000000 0.000000 1.000000 99780.dat
1 89 -0.000020 -18.000090 -92.000000 1.000000 0.000000 0.000000 0.000000 0.000000 -1.000000 0.000000 1.000000 0.000000 3023.dat
1 219 0.000020 -3.999980 -110.000100 -1.000000 0.000000 0.000000 0.000000 1.000000 0.000000 0.000000 0.000000 -1.000000 3710.dat
1 219 29.999970 -11.999980 -110.000100 -0.999999 0.000000 0.000000 0.000000 1.000000 0.000000 0.000000 0.000000 -0.999999 3024.dat
1 219 -29.999970 -11.999980 -109.999900 -1.000000 0.000000 0.000000 0.000000 1.000000 0.000000 0.000000 0.000000 -1.000000 3024.dat
1 219 0.000020 -20.000090 -110.000000 -1.000000 0.000000 0.000000 0.000000 1.000000 0.000000 0.000000 0.000000 -1.000000 2431.dat
1 89 0.000050 -70.000000 -107.999900 1.000000 0.000001 0.000000 0.000000 0.000000 -1.000000 -0.000001 1.000001 0.000000 3710.dat
1 89 0.000000 -40.000000 -107.999900 1.000000 0.000001 0.000000 0.000000 0.000000 -1.000000 -0.000001 1.000000 0.000000 3020.dat
1 89 -0.003680 -59.988900 -115.999800 1.000000 0.000001 0.000366 0.000366 0.000000 -1.000000 -0.000001 1.000001 0.000000 87079.dat
1 89 0.000000 -29.999900 -115.999900 1.000000 0.000001 0.000000 0.000000 0.000000 -1.000000 -0.000001 1.000001 0.000000 41740.dat
1 219 48.000160 -59.999700 -60.000120 0.000001 -1.000001 0.000000 0.000000 0.000000 -1.000000 1.000001 0.000001 0.000000 87079.dat
1 219 48.000200 -9.999980 -70.000060 0.000000 -1.000000 -0.000001 -1.000000 0.000000 0.000000 0.000000 0.000001 -1.000001 14719.dat
1 89 48.000170 -29.999900 -90.000140 0.000000 -1.000000 0.000001 1.000000 0.000000 0.000000 0.000000 0.000001 1.000000 3070b.dat
1 219 48.000170 -20.000000 -30.000120 0.000000 -1.000000 0.000001 1.000000 0.000000 0.000000 0.000000 0.000001 1.000000 3023.dat
1 89 48.000140 -20.000000 -50.000120 0.000000 -1.000000 0.000001 1.000000 0.000000 0.000000 0.000000 0.000001 1.000000 3023.dat
1 219 20.000140 -40.000000 -12.000150 0.000000 0.000000 -1.000000 1.000000 0.000000 0.000000 0.000000 -1.000001 0.000000 3020.dat
1 219 -19.999880 -40.000000 -12.000120 0.000000 0.000000 -1.000000 1.000000 0.000000 0.000000 0.000000 -1.000000 0.000000 3020.dat
1 219 30.000280 -9.999980 -12.000180 1.000000 0.000000 0.000000 0.000000 0.000000 1.000000 0.000000 -1.000000 0.000000 54200.dat
1 219 -30.000080 -9.999980 -12.000210 1.000000 0.000000 0.000000 0.000000 0.000000 1.000000 0.000000 -1.000000 0.000000 54200.dat
1 219 -9.999980 -9.999980 -12.000170 0.000000 0.000000 1.000000 -1.000000 0.000000 0.000000 0.000000 -1.000001 0.000000 54200.dat
1 219 0.000080 -60.000000 -4.000030 1.000000 0.000000 0.000000 0.000000 0.000000 1.000000 0.000000 -1.000000 0.000000 87079.dat
1 219 30.000370 -29.999900 -4.000090 1.000000 0.000000 0.000000 0.000000 0.000000 1.000000 0.000000 -1.000001 0.000000 3070b.dat
1 219 -9.999880 -29.999900 -4.000050 1.000000 0.000000 0.000000 0.000000 0.000000 1.000000 0.000000 -1.000000 0.000000 3070b.dat
1 219 -30.000080 -29.999900 -12.000210 1.000000 0.000000 0.000000 0.000000 0.000000 1.000000 0.000000 -1.000000 0.000000 54200.dat
1 219 10.000160 -20.000000 -12.000140 1.000000 0.000000 0.000000 0.000000 0.000000 1.000000 0.000000 -1.000000 0.000000 11477.dat
1 219 -47.999070 -60.000000 -59.999420 0.000000 0.999994 0.000000 0.000000 0.000000 -1.000000 -1.000000 0.000000 0.000000 87079.dat
1 219 -47.999970 -20.000000 -30.000150 0.000000 1.000000 0.000000 1.000000 0.000000 0.000000 0.000000 0.000000 -1.000001 3023.dat
1 89 -47.999970 -20.000000 -50.000300 0.000000 1.000000 0.000000 1.000000 0.000000 0.000000 0.000000 0.000000 -1.000001 3023.dat
1 219 -47.999970 -9.999980 -70.000000 0.000000 1.000000 0.000000 0.000000 0.000000 -1.000000 -1.000000 0.000000 0.000000 14719.dat
1 89 -47.999970 -29.999900 -90.000080 0.000000 1.000000 0.000000 1.000000 0.000000 0.000000 0.000000 0.000000 -1.000000 3070b.dat
1 219 0.000020 -88.000090 -60.000000 1.000000 0.000000 0.000000 0.000000 1.000000 0.000000 0.000000 0.000000 1.000000 3020.dat
1 219 0.000080 -88.000090 -90.000000 1.000000 0.000000 0.000000 0.000000 1.000000 0.000000 0.000000 0.000000 1.000000 32028.dat
1 219 0.000000 -88.000090 -30.000030 -1.000000 0.000000 0.000000 0.000000 1.000000 0.000000 0.000000 0.000000 -1.000000 32028.dat
1 219 0.000110 -96.000080 -59.999580 1.000000 0.000000 0.000000 0.000000 1.000000 0.000000 0.000000 0.000000 1.000000 3022.dat
1 219 -30.000080 -80.000100 -80.000040 1.000000 0.000000 0.000000 0.000000 1.000000 0.000000 0.000000 0.000000 1.000000 11477.dat
1 219 30.000370 -80.000100 -79.999940 1.000000 0.000000 0.000000 0.000000 1.000000 0.000000 0.000000 0.000000 1.000000 11477.dat
1 219 -30.000180 -80.000100 -40.000370 -1.000000 0.000000 0.000000 0.000000 1.000000 0.000000 0.000000 0.000000 -1.000000 11477.dat
1 219 30.000340 -80.000100 -40.000120 -1.000000 0.000000 0.000000 0.000000 1.000000 0.000000 0.000000 0.000000 -1.000000 11477.dat
1 219 0.000140 -88.000090 -80.000820 1.000000 0.000000 0.000000 0.000000 1.000000 0.000000 0.000000 0.000000 1.000000 15068.dat
1 219 0.000080 -88.000090 -39.999940 -1.000000 0.000000 0.000000 0.000000 1.000000 0.000000 0.000000 0.000000 -0.999999 15068.dat
1 15 -29.999970 -29.999900 -123.999900 -1.000000 0.000000 -0.000637 -0.000637 0.000000 1.000000 0.000000 1.000000 0.000000 98138p2j.dat
1 15 30.000020 -29.999900 -123.999900 -1.000000 0.000000 -0.000637 -0.000637 0.000000 1.000000 0.000000 1.000000 0.000000 98138p2j.dat
1 89 0.000020 -12.000090 -110.000000 1.000000 0.000000 0.000000 0.000000 1.000000 0.000000 0.000000 0.000000 1.000000 3023b.dat
1 89 -0.000020 -8.000000 -60.000000 1.000000 0.000000 0.000000 0.000000 1.000000 0.000000 0.000000 0.000000 1.000000 3022.dat
